<svg width="64" height="46" viewBox="0 0 64 46" fill="none" xmlns="http://www.w3.org/2000/svg">
<g id="business-handshake--deal-contract-business-money-payment-agreement">
<path id="Vector 1282" d="M24.6172 14.9615L31.0364 9.16067C34.0233 6.46157 38.0453 5.21114 42.036 5.74088L50.5275 6.86806L62.3136 0.49736C63.0752 0.0857483 64 0.637154 64 1.50275V23.1629C64 24.6378 63.2882 26.0222 62.0891 26.8805L54.1517 32.5601L36.9578 18.1334L31.2686 22.7375C29.0337 24.5463 25.7478 24.1598 23.9936 21.8818C22.364 19.7657 22.6355 16.7522 24.6172 14.9615Z" fill="#FFA502"/>
<path id="Union" fill-rule="evenodd" clip-rule="evenodd" d="M24.6172 14.9615L30.7776 9.39464C27.6125 6.70633 23.4145 5.55867 19.3169 6.26815L10.9258 7.721L1.72101 2.76717C0.943086 2.34852 0 2.91195 0 3.79538L9.37755e-05 23.1611C0.000101061 24.7057 0.763689 26.1503 2.03991 27.0203L26.9767 44.0194C30.2049 46.2201 34.4617 46.179 37.647 43.917L54.8571 32.1431L54.8046 32.093L54.1518 32.5602L45.5618 25.3527C47.2873 24.7407 48.7611 23.7315 49.9771 22.4704C51.0725 21.3345 51.0395 19.5257 49.9035 18.4304C48.768 17.3351 46.9591 17.368 45.8638 18.5039C45.0136 19.3857 44.031 19.9521 42.8812 20.1772C41.8794 20.3733 40.6037 20.3383 38.9996 19.8467L36.9578 18.1335L31.2687 22.7376C29.0337 24.5463 25.7478 24.1598 23.9936 21.8818C22.364 19.7657 22.6356 16.7523 24.6172 14.9615Z" fill="#002462"/>
</g>
</svg>
