<svg width="205" height="200" viewBox="0 0 205 200" fill="none" xmlns="http://www.w3.org/2000/svg">
<g clip-path="url(#clip0_995_18584)">
<path d="M102.345 192.618C137.17 192.618 165.402 164.386 165.402 129.56C165.402 94.7337 137.17 66.5018 102.345 66.5018C67.5186 66.5018 39.2866 94.7337 39.2866 129.56C39.2866 164.386 67.5186 192.618 102.345 192.618Z" fill="#1A2E50" stroke="#1A2E50" stroke-linecap="round" stroke-linejoin="round"/>
<path d="M102.345 187.737C137.17 187.737 165.402 159.505 165.402 124.679C165.402 89.8531 137.17 61.6212 102.345 61.6212C67.5186 61.6212 39.2866 89.8531 39.2866 124.679C39.2866 159.505 67.5186 187.737 102.345 187.737Z" fill="#FFA502" stroke="#1A2E50" stroke-linecap="round" stroke-linejoin="round"/>
<path d="M102.345 187.737C137.17 187.737 165.402 159.505 165.402 124.679C165.402 89.8531 137.17 61.6212 102.345 61.6212C67.5186 61.6212 39.2866 89.8531 39.2866 124.679C39.2866 159.505 67.5186 187.737 102.345 187.737Z" stroke="#1A2E50" stroke-linecap="round" stroke-linejoin="round"/>
<path d="M140.186 162.519C161.084 141.621 161.084 107.738 140.186 86.8397C119.287 65.9414 85.4047 65.9414 64.5064 86.8397C43.6081 107.738 43.6081 141.621 64.5064 162.519C85.4047 183.417 119.287 183.417 140.186 162.519Z" fill="#FFA502" stroke="#1A2E50" stroke-linecap="round" stroke-linejoin="round"/>
<path opacity="0.49" d="M155.855 124.672C155.855 125.159 155.828 125.632 155.815 126.119C109.702 112.134 71.8807 119.158 48.8878 127.106C48.8478 126.299 48.8245 125.492 48.8245 124.676C48.8245 117.638 50.1813 110.921 52.6616 104.767C60.5559 85.0741 79.825 71.169 102.344 71.169C124.864 71.169 143.493 84.6307 151.617 103.81C154.341 110.221 155.851 117.271 155.851 124.679L155.855 124.672Z" fill="white"/>
<path d="M151.621 103.806C109.819 92.1383 75.1612 97.6123 52.665 104.767C60.5594 85.0741 79.8284 71.169 102.348 71.169C124.867 71.169 143.496 84.6307 151.621 103.81V103.806Z" fill="white"/>
<path d="M102.344 74.0794C131.411 74.0794 155.044 97.2556 155.821 126.136C155.834 125.649 155.858 125.166 155.858 124.679C155.858 95.1254 131.898 71.1657 102.344 71.1657C72.7907 71.1657 48.8311 95.1254 48.8311 124.679C48.8311 125.169 48.8544 125.649 48.8677 126.136C49.6412 97.259 73.2774 74.0794 102.344 74.0794Z" fill="#1A2E50" stroke="#1A2E50" stroke-linecap="round" stroke-linejoin="round"/>
<path d="M137.496 115.185C136.832 114.521 136.129 113.911 135.389 113.354C131.975 110.781 127.824 109.387 123.45 109.387C118.133 109.387 113.143 111.444 109.405 115.185L96.4805 128.109L94.9836 129.606H101.424L112.626 118.405C115.503 115.528 119.347 113.944 123.447 113.944C126.531 113.944 129.468 114.841 131.958 116.505C132.782 117.055 133.555 117.691 134.272 118.405C137.149 121.282 138.732 125.126 138.732 129.226C138.732 133.327 137.149 137.171 134.272 140.051L133.825 140.498V140.504C130.985 143.141 127.311 144.585 123.414 144.585H106.972V144.592H103.561H86.2458C74.8277 144.592 65.5399 135.304 65.5399 123.886C65.5399 112.468 74.481 103.533 85.5991 103.19L86.2725 103.18C86.2958 103.18 86.3192 103.18 86.3425 103.18C88.9228 103.18 91.4465 103.646 93.8501 104.57C96.5605 105.61 98.9841 107.184 101.044 109.244L104.945 113.054C104.945 113.054 108.172 109.834 108.172 109.847L104.268 106.033C101.751 103.516 98.7941 101.596 95.4837 100.323C92.52 99.1858 89.4062 98.6158 86.2258 98.6324C79.4883 98.6391 73.1542 101.266 68.3903 106.03C63.6197 110.801 60.9927 117.141 60.9927 123.889C60.9927 130.636 63.6197 136.977 68.3903 141.748C73.1475 146.505 79.4683 149.132 86.1925 149.145H102.178V149.152H108.292V149.145H123.417C128.734 149.145 133.735 147.072 137.489 143.305L137.932 142.861L137.942 142.818C141.396 139.138 143.29 134.34 143.29 129.24C143.29 124.139 141.233 118.932 137.492 115.195L137.496 115.185Z" fill="#1F2243" stroke="#1F2243" stroke-linecap="round" stroke-linejoin="round"/>
<path d="M75.8144 124.572C75.8144 118.492 80.7617 113.544 86.8425 113.544C91.9331 113.544 96.2303 117.015 97.4938 121.712L101.224 117.982C98.7206 112.541 93.2166 108.75 86.8425 108.75C78.1181 108.75 71.0205 115.848 71.0205 124.572C71.0205 130.946 74.8076 136.451 80.2517 138.954L83.9821 135.224C79.2849 133.96 75.8144 129.666 75.8144 124.572Z" fill="#1F2243" stroke="#1F2243" stroke-linecap="round" stroke-linejoin="round"/>
<path d="M137.496 113.618C136.832 112.954 136.129 112.344 135.389 111.787C131.975 109.214 127.824 107.82 123.45 107.82C118.133 107.82 113.143 109.877 109.405 113.618L96.4805 126.543L94.9836 128.039H101.424L112.626 116.838C115.503 113.961 119.347 112.378 123.447 112.378C126.531 112.378 129.468 113.274 131.958 114.938C132.782 115.488 133.555 116.125 134.272 116.838C137.149 119.715 138.732 123.559 138.732 127.659C138.732 131.76 137.149 135.604 134.272 138.484L133.825 138.931V138.938C130.985 141.575 127.311 143.018 123.414 143.018H106.972V143.025H103.561H86.2458C74.8277 143.025 65.5399 133.737 65.5399 122.319C65.5399 110.901 74.481 101.966 85.5991 101.623L86.2725 101.613C86.2958 101.613 86.3192 101.613 86.3425 101.613C88.9228 101.613 91.4465 102.08 93.8501 103.003C96.5605 104.043 98.9841 105.617 101.044 107.677L104.945 111.487C104.945 111.487 108.172 108.267 108.172 108.28L104.268 104.467C101.751 101.95 98.7941 100.029 95.4837 98.7558C92.52 97.619 89.4062 97.0489 86.2258 97.0656C79.4883 97.0723 73.1542 99.6993 68.3903 104.463C63.6197 109.234 60.9927 115.575 60.9927 122.322C60.9927 129.07 63.6197 135.41 68.3903 140.181C73.1475 144.938 79.4683 147.565 86.1925 147.579H102.178V147.585H108.292V147.579H123.417C128.734 147.579 133.735 145.505 137.489 141.738L137.932 141.294L137.942 141.251C141.396 137.571 143.29 132.773 143.29 127.673C143.29 122.572 141.233 117.365 137.492 113.628L137.496 113.618Z" fill="#FFA502" stroke="#1F2243" stroke-linecap="round" stroke-linejoin="round"/>
<path d="M75.8144 123.006C75.8144 116.925 80.7617 111.977 86.8425 111.977C91.9331 111.977 96.2303 115.448 97.4938 120.145L101.224 116.415C98.7206 110.974 93.2166 107.184 86.8425 107.184C78.1181 107.184 71.0205 114.281 71.0205 123.006C71.0205 129.38 74.8076 134.884 80.2517 137.387L83.9821 133.657C79.2849 132.393 75.8144 128.099 75.8144 123.006Z" fill="#FFA502" stroke="#1F2243" stroke-linecap="round" stroke-linejoin="round"/>
</g>
<defs>
<clipPath id="clip0_995_18584">
<rect width="204" height="200" fill="white" transform="translate(0.666748)"/>
</clipPath>
</defs>
</svg>
