<svg width="86" height="90" viewBox="0 0 86 90" fill="none" xmlns="http://www.w3.org/2000/svg">
<path d="M30 29L27 26" stroke="#002462" stroke-width="5" stroke-linecap="round"/>
<path d="M20.0001 20.0001L20 20" stroke="#002462" stroke-width="5" stroke-linecap="round"/>
<path d="M56 29L63 22" stroke="#002462" stroke-width="5" stroke-linecap="round"/>
<path d="M43 29L43 14" stroke="#002462" stroke-width="5" stroke-linecap="round"/>
<g>
<path d="M62.5713 52.1429H21.4285V75.2857C21.4285 78.1259 23.731 80.4286 26.5713 80.4286H57.4285C60.2687 80.4286 62.5713 78.1259 62.5713 75.2857V52.1429Z" fill="#002462"/>
<path fill-rule="evenodd" clip-rule="evenodd" d="M23.1429 37.5714C20.3025 37.5714 18 39.874 18 42.7143V47.8571C18 50.6975 20.3025 53 23.1429 53H60.8571C63.6974 53 66 50.6975 66 47.8571V42.7143C66 39.874 63.6974 37.5714 60.8571 37.5714H23.1429ZM36.8571 61.1429C35.6737 61.1429 34.7143 62.1022 34.7143 63.2857C34.7143 64.4692 35.6737 65.4286 36.8571 65.4286H47.1429C48.3263 65.4286 49.2857 64.4692 49.2857 63.2857C49.2857 62.1022 48.3263 61.1429 47.1429 61.1429H36.8571Z" fill="#FFA502"/>
</g>
</svg>
