<svg width="24" height="24" viewBox="0 0 24 24" fill="none" xmlns="http://www.w3.org/2000/svg">
<g id="wrapper">
<path id="Union" fill-rule="evenodd" clip-rule="evenodd" d="M2.25293 6.0011C2.25293 5.58689 2.58872 5.2511 3.00293 5.2511H21.0029C21.4171 5.2511 21.7529 5.58689 21.7529 6.0011C21.7529 6.41531 21.4171 6.7511 21.0029 6.7511H3.00293C2.58872 6.7511 2.25293 6.41531 2.25293 6.0011ZM2.25293 12.0011C2.25293 11.5869 2.58872 11.2511 3.00293 11.2511H21.0029C21.4171 11.2511 21.7529 11.5869 21.7529 12.0011C21.7529 12.4153 21.4171 12.7511 21.0029 12.7511H3.00293C2.58872 12.7511 2.25293 12.4153 2.25293 12.0011ZM2.25293 18.0011C2.25293 17.5869 2.58872 17.2511 3.00293 17.2511H21.0029C21.4171 17.2511 21.7529 17.5869 21.7529 18.0011C21.7529 18.4153 21.4171 18.7511 21.0029 18.7511H3.00293C2.58872 18.7511 2.25293 18.4153 2.25293 18.0011Z" fill="#304872"/>
</g>
</svg>
