<svg width="64" height="64" viewBox="0 0 64 64" fill="none" xmlns="http://www.w3.org/2000/svg">
<g id="justice-hammer--hammer-work-mallet-office-company-gavel-justice-judge-arbitration-court">
<path id="Subtract" fill-rule="evenodd" clip-rule="evenodd" d="M6.08594 48.5947C6.08594 47.3325 7.1093 46.309 8.37165 46.309H33.5145C34.7769 46.309 35.8002 47.3325 35.8002 48.5947V56.5947H6.08594V48.5947Z" fill="#002462"/>
<path id="Subtract_2" fill-rule="evenodd" clip-rule="evenodd" d="M40.4561 30.0898L45.3048 25.2411L62.6239 42.5604C63.9628 43.8993 63.9628 46.07 62.6239 47.4089C61.2849 48.7479 59.1144 48.7479 57.7754 47.4089L40.4561 30.0898Z" fill="#FFA502"/>
<path id="Vector (Stroke)" fill-rule="evenodd" clip-rule="evenodd" d="M0.371582 60.0233C0.371582 58.1298 1.90661 56.5947 3.80015 56.5947H38.0859C39.9794 56.5947 41.5144 58.1298 41.5144 60.0233C41.5144 61.9168 39.9794 63.4519 38.0859 63.4519H3.80015C1.90661 63.4519 0.371582 61.9168 0.371582 60.0233Z" fill="#FFA502"/>
<path id="Union" d="M17.724 18.9451C15.0461 21.623 15.0461 25.9647 17.724 28.6425L24.9647 35.8833C27.6426 38.5612 31.9843 38.5612 34.6622 35.8833L51.0509 19.4946C53.7288 16.8168 53.7288 12.475 51.0509 9.79715L43.8102 2.55638C41.1323 -0.121496 36.7906 -0.121497 34.1127 2.55638L17.724 18.9451Z" fill="#002462"/>
</g>
</svg>
