<svg width="64" height="64" viewBox="0 0 64 64" fill="none" xmlns="http://www.w3.org/2000/svg">
<g id="magnifying-glass--glass-search-magnifying">
<path id="Ellipse 651" d="M27.4287 50.2857C40.0523 50.2857 50.2858 40.0522 50.2858 27.4286C50.2858 14.8049 40.0523 4.57141 27.4287 4.57141C14.805 4.57141 4.57153 14.8049 4.57153 27.4286C4.57153 40.0522 14.805 50.2857 27.4287 50.2857Z" fill="#002462"/>
<path id="Union" fill-rule="evenodd" clip-rule="evenodd" d="M9.14286 27.4286C9.14286 17.3296 17.3296 9.14286 27.4286 9.14286C37.5275 9.14286 45.7143 17.3296 45.7143 27.4286C45.7143 37.5275 37.5275 45.7143 27.4286 45.7143C17.3296 45.7143 9.14286 37.5275 9.14286 27.4286ZM27.4286 0C12.2802 0 0 12.2802 0 27.4286C0 42.577 12.2802 54.8571 27.4286 54.8571C33.3521 54.8571 38.8371 52.9792 43.3208 49.7865L56.1961 62.6619C57.9813 64.4471 60.8759 64.4471 62.661 62.6619C64.4462 60.8768 64.4462 57.9822 62.661 56.197L49.7861 43.3218C52.9792 38.838 54.8571 33.3526 54.8571 27.4286C54.8571 12.2802 42.577 0 27.4286 0Z" fill="#FFA502"/>
</g>
</svg>
