<svg width="200" height="200" viewBox="0 0 200 200" fill="none" xmlns="http://www.w3.org/2000/svg">
<g id="Subtract">
<mask id="path-1-inside-1_1001_21541" fill="white">
<path fill-rule="evenodd" clip-rule="evenodd" d="M100 200C155.228 200 200 155.228 200 100C200 44.7715 155.228 0 100 0C44.7715 0 0 44.7715 0 100C0 155.228 44.7715 200 100 200ZM100 166.667C136.819 166.667 166.667 136.819 166.667 100C166.667 63.181 136.819 33.3333 100 33.3333C63.181 33.3333 33.3333 63.181 33.3333 100C33.3333 136.819 63.181 166.667 100 166.667Z"/>
</mask>
<path fill-rule="evenodd" clip-rule="evenodd" d="M100 200C155.228 200 200 155.228 200 100C200 44.7715 155.228 0 100 0C44.7715 0 0 44.7715 0 100C0 155.228 44.7715 200 100 200ZM100 166.667C136.819 166.667 166.667 136.819 166.667 100C166.667 63.181 136.819 33.3333 100 33.3333C63.181 33.3333 33.3333 63.181 33.3333 100C33.3333 136.819 63.181 166.667 100 166.667Z" fill="#FFA502"/>
<path d="M198 100C198 154.124 154.124 198 100 198V202C156.333 202 202 156.333 202 100H198ZM100 2C154.124 2 198 45.8761 198 100H202C202 43.667 156.333 -2 100 -2V2ZM2 100C2 45.8761 45.8761 2 100 2V-2C43.667 -2 -2 43.667 -2 100H2ZM100 198C45.8761 198 2 154.124 2 100H-2C-2 156.333 43.667 202 100 202V198ZM164.667 100C164.667 135.714 135.714 164.667 100 164.667V168.667C137.924 168.667 168.667 137.924 168.667 100H164.667ZM100 35.3333C135.714 35.3333 164.667 64.2856 164.667 100H168.667C168.667 62.0764 137.924 31.3333 100 31.3333V35.3333ZM35.3333 100C35.3333 64.2856 64.2856 35.3333 100 35.3333V31.3333C62.0764 31.3333 31.3333 62.0764 31.3333 100H35.3333ZM100 164.667C64.2856 164.667 35.3333 135.714 35.3333 100H31.3333C31.3333 137.924 62.0764 168.667 100 168.667V164.667Z" fill="black" mask="url(#path-1-inside-1_1001_21541)"/>
</g>
</svg>
