<svg width="190" height="207" viewBox="0 0 190 207" fill="none" xmlns="http://www.w3.org/2000/svg">
<g id="image" filter="url(#filter0_dddd_997_19037)">
<g clip-path="url(#clip0_997_19037)">
<rect x="15" y="4" width="160" height="160" rx="80" fill="#FFB632"/>
<g id="Group">
<path id="Vector" d="M81.143 98.8247C66.0196 98.8247 46.321 96.7139 44.9175 106.914C43.5084 117.114 57.2284 206.098 57.2284 225.095C57.2284 225.095 129.331 236.698 130.033 224.741C130.735 212.784 120.148 132.713 109.633 107.969C109.633 107.969 96.2665 98.8247 81.143 98.8247Z" fill="#E1DCE6"/>
<path id="Vector_2" d="M88.4645 172.624C96.6202 147.289 117.695 140.935 118.761 143.178C118.855 143.145 118.954 143.107 119.048 143.068C118.197 138.83 117.319 134.735 116.418 130.862C105.45 129.204 95.3327 142.305 84.3313 140.852C71.617 139.172 58.0297 122.601 45.5088 119.811C46.8791 134.431 50.0176 158.324 52.7031 180.006C54.7586 180.172 56.8141 180.277 58.8475 180.404C63.9089 180.719 82.6847 185.217 87.7572 185.327C98.0679 185.543 94.6752 181.056 104.986 181.161C111.843 181.227 118.7 181.244 125.558 181.233C125.022 177.525 124.447 173.729 123.834 169.9C119.811 169.668 81.3365 194.754 88.4589 172.619L88.4645 172.624Z" fill="#B4AAC0"/>
<g id="Group_2">
<g id="Group_3">
<path id="Vector_3" d="M169.751 160.705C167.082 160.545 167.695 162.684 167.695 162.684L204.678 213.867L210.48 217.707L208.043 211.076L169.745 160.705H169.751Z" fill="#F9F2FF"/>
<path id="Vector_4" d="M167.839 162.639C167.839 162.639 167.839 162.623 167.839 162.617C167.839 162.612 167.828 162.601 167.823 162.595L167.845 162.639H167.839Z" fill="#280C61"/>
<path id="Vector_5" d="M208.231 211.01L208.22 210.982L208.203 210.96C204.976 206.789 201.804 202.578 198.683 198.329C195.561 194.08 192.472 189.803 189.284 185.604C187.709 183.487 186.09 181.41 184.482 179.321L179.647 173.061L174.757 166.844C173.11 164.783 171.469 162.717 169.8 160.678L169.784 160.656H169.762C169.187 160.611 168.552 160.628 168.043 161.015C167.795 161.208 167.629 161.501 167.557 161.799C167.491 162.109 167.491 162.413 167.557 162.722V162.739L167.579 162.766C169.06 164.943 170.552 167.109 172.06 169.27L176.58 175.74C179.614 180.039 182.642 184.344 185.725 188.609L190.333 195.019L194.997 201.39C198.102 205.639 201.219 209.877 204.363 214.099L204.407 214.16L204.462 214.193L210.33 217.939L211.049 218.398L210.75 217.613C209.91 215.414 209.048 213.22 208.236 211.016L208.231 211.01ZM210.22 217.801C210.126 217.53 210.032 217.259 209.938 216.989L204.96 213.579C204.96 213.579 204.982 213.613 204.998 213.635L204.899 213.541L204.965 213.585C201.959 209.292 198.926 205.02 195.876 200.755L191.289 194.328L186.653 187.941C183.576 183.67 180.443 179.443 177.31 175.215L172.585 168.889C171.016 166.789 169.436 164.695 167.839 162.617C167.839 162.623 167.839 162.634 167.839 162.639L167.817 162.595C167.817 162.595 167.828 162.612 167.833 162.617C167.701 162.12 167.756 161.512 168.165 161.164C168.574 160.816 169.171 160.75 169.723 160.761C171.237 162.91 172.784 165.037 174.32 167.165L179 173.541L183.741 179.874C185.322 181.984 186.897 184.101 188.515 186.184C191.709 190.378 195.002 194.5 198.263 198.644C201.517 202.782 204.722 206.954 207.872 211.17C207.872 211.159 207.866 211.154 207.86 211.143L207.888 211.192C207.888 211.192 207.877 211.176 207.872 211.17C208.579 213.104 209.253 215.049 209.938 216.989L210.64 217.469L210.225 217.801H210.22Z" fill="#280C61"/>
</g>
</g>
<g id="Group_4">
<path id="Vector_6" d="M104.234 97.9185L127.585 169.497C134.586 162.136 150.35 168.303 149.947 158.788C149.616 150.914 140.427 134.47 132.088 114.451C123.435 93.6693 104.234 97.9185 104.234 97.9185Z" fill="#E1DCE6"/>
<path id="Vector_7" d="M130.619 163.557C126.27 166.098 123.684 120.159 128.447 121.209C133.696 122.369 128.674 149.461 135.663 154.649C138.31 156.616 140.504 153.826 143.886 149.991C148.582 144.659 136.304 146.234 137.266 144.532C138.211 142.863 142.217 143.388 144.526 142.327C141.084 134.503 136.47 124.977 132.088 114.451C123.435 93.6693 104.234 97.9185 104.234 97.9185L127.585 169.497C134.227 162.512 148.759 167.701 149.875 160.109C140.653 164.678 140.233 157.943 130.619 163.562V163.557Z" fill="#B4AAC0"/>
<g id="Group_5">
<path id="Vector_8" d="M149.505 154.677C149.207 153.561 148.848 152.467 148.466 151.384C147.698 149.218 146.858 147.079 145.969 144.963C144.212 140.725 142.388 136.52 140.565 132.315L135.128 119.706L132.426 113.385C131.47 111.257 130.32 109.202 128.922 107.312C127.525 105.428 125.889 103.709 124.032 102.267C122.17 100.83 120.104 99.6701 117.91 98.8523C115.716 98.0346 113.418 97.5428 111.103 97.3825C108.793 97.2278 106.461 97.3162 104.207 97.8356C104.207 97.8356 104.207 97.8356 104.201 97.8356C104.157 97.8467 104.135 97.8964 104.146 97.9406C105.002 100.963 105.909 103.963 106.787 106.975L109.517 115.982C111.351 121.982 113.241 127.966 115.109 133.956L117.976 142.919L120.91 151.859L126.884 169.707V169.729C126.928 169.839 126.994 169.944 127.088 170.027C127.381 170.298 127.839 170.276 128.11 169.983C129.552 168.414 131.558 167.413 133.685 166.806C135.824 166.198 138.078 165.888 140.344 165.596C141.482 165.446 142.626 165.297 143.77 165.082C144.913 164.866 146.063 164.595 147.162 164.093C148.245 163.601 149.29 162.766 149.792 161.612C150.306 160.473 150.317 159.214 150.19 158.07C150.063 156.904 149.804 155.777 149.5 154.66L149.505 154.677ZM149.179 161.335C148.721 162.291 147.842 162.96 146.842 163.38C145.836 163.805 144.737 164.026 143.626 164.198C142.51 164.363 141.377 164.463 140.239 164.573C137.962 164.789 135.642 164.982 133.354 165.584C131.448 166.076 129.53 166.889 127.944 168.193L128.287 169.27L127.066 168.994C127.342 168.706 127.641 168.441 127.95 168.193L122.59 151.329L119.684 142.377L116.711 133.448C114.689 127.508 112.683 121.562 110.627 115.633L107.516 106.748C106.461 103.831 105.433 100.902 104.356 97.9903C108.843 97.4157 113.456 98.0511 117.562 99.7696C121.712 101.499 125.248 104.477 127.817 108.124C129.11 109.948 130.204 111.915 131.094 113.976C131.962 116.059 132.862 118.203 133.785 120.291C135.63 124.491 137.631 128.624 139.625 132.746C141.615 136.874 143.643 140.979 145.472 145.173C146.372 147.273 147.251 149.389 147.997 151.544C148.732 153.699 149.406 155.898 149.61 158.136C149.721 159.252 149.654 160.374 149.185 161.33L149.179 161.335Z" fill="#280C61"/>
</g>
</g>
<g id="Group_6">
<path id="Vector_9" d="M143.538 199.87C144.179 197.787 134.879 187.836 134.879 177.105C134.879 166.375 131.415 153.273 130.613 144.626C129.812 135.978 110.252 109.378 105.455 104.632C94.1778 93.487 73.8438 93.393 87.5085 103.488C91.2106 106.223 97.9407 125.519 105.085 137.388C112.23 149.256 113.462 164.833 114.998 179.255C116.529 193.671 122.933 208.026 121.888 221.276L150.699 221.967C150.699 221.967 146.654 207.91 140.41 199.428C140.41 199.428 142.902 201.948 143.543 199.87H143.538Z" fill="url(#paint0_linear_997_19037)"/>
<g id="Vector_10" style="mix-blend-mode:multiply">
<path d="M87.5027 103.494C89.7793 105.179 93.2051 113.136 97.1725 121.772C102.51 116.589 103.648 111.959 105.251 104.444C93.9013 93.498 73.9154 93.4538 87.5027 103.494Z" fill="#B4AAC0"/>
</g>
<g id="Vector_11" style="mix-blend-mode:multiply">
<path d="M128.37 183.437C128.967 182.785 133.161 183.52 137.929 188.759C136.465 185.681 135.222 182.2 134.945 178.591C133.431 178.658 124.894 176.022 124.894 173.386C124.894 170.292 136.277 171.104 129.558 162.833C125.176 157.434 130.442 147.61 128.094 141.128C127.082 138.338 124.375 139.89 122.192 138.189C117.634 134.636 125.303 159.539 120.91 157.18C116.717 154.926 114.385 142.266 106.229 139.415C111.976 150.251 113.379 163.772 114.716 176.619C118.778 183.946 134.929 197.13 140.25 203.55C143.416 207.374 140.758 208.678 137.57 204.832C135.398 202.213 122.568 212.596 121.888 221.276L150.699 221.967C150.699 221.967 146.759 208.297 141.012 200.257C138.973 197.185 126.491 185.493 128.37 183.432V183.437Z" fill="#B4AAC0"/>
</g>
<path id="Vector_12" d="M149.179 215.906C148.444 213.955 147.654 212.032 146.803 210.126C145.952 208.225 145.035 206.352 144.029 204.523C143.322 203.241 142.565 201.987 141.747 200.771C141.134 200.495 140.642 200.097 140.167 199.66L140.664 199.235C141.04 199.738 141.394 200.252 141.747 200.771C141.88 200.832 142.013 200.893 142.156 200.937C142.366 200.992 142.598 201.025 142.841 200.976C143.09 200.931 143.328 200.788 143.482 200.6C143.637 200.412 143.737 200.207 143.803 200.009L143.814 199.97L143.83 199.909L143.847 199.843C143.858 199.793 143.864 199.705 143.864 199.644C143.864 199.528 143.847 199.417 143.83 199.312C143.648 198.5 143.272 197.859 142.924 197.196C142.565 196.539 142.184 195.903 141.808 195.268C140.289 192.731 138.802 190.179 137.609 187.488C136.426 184.797 135.548 181.962 135.26 179.056C135.188 178.326 135.166 177.608 135.172 176.868C135.172 176.127 135.155 175.381 135.128 174.635C135.072 173.149 134.956 171.668 134.818 170.187C134.282 164.269 133.227 158.423 132.299 152.588C132.067 151.13 131.846 149.671 131.652 148.212C131.558 147.483 131.464 146.753 131.392 146.024L131.287 144.93L131.238 144.372C131.216 144.167 131.188 143.963 131.155 143.775C130.879 142.222 130.337 140.802 129.757 139.415C129.171 138.028 128.514 136.686 127.823 135.36C125.033 130.077 121.783 125.099 118.391 120.231C114.965 115.385 111.401 110.638 107.483 106.157C105.538 103.875 103.157 101.952 100.615 100.405C98.0567 98.8578 95.305 97.6477 92.4373 96.8409C91.0006 96.4486 89.5419 96.1337 88.05 96.0066C87.304 95.9458 86.5581 95.9292 85.8066 96.001C85.0662 96.0784 84.3036 96.2221 83.6461 96.6475C83.3256 96.8575 83.0383 97.1669 82.9223 97.5482C82.7952 97.9295 82.8394 98.3384 82.9499 98.703C83.1819 99.4379 83.6406 100.051 84.1213 100.62C85.1048 101.742 86.2652 102.681 87.4587 103.566C87.9616 103.952 88.3594 104.466 88.7351 104.986C89.1053 105.511 89.4479 106.058 89.7739 106.616C90.426 107.732 91.0172 108.881 91.5918 110.041C92.7356 112.362 93.7855 114.733 94.8464 117.098C96.9406 121.839 98.9795 126.607 101.267 131.276C102.4 133.608 103.61 135.929 104.919 138.172C106.168 140.399 107.207 142.753 108.091 145.151C109.87 149.958 110.992 154.997 111.804 160.075C112.65 165.153 113.191 170.298 113.716 175.447L114.12 179.315C114.258 180.614 114.434 181.923 114.644 183.211C115.059 185.797 115.589 188.355 116.164 190.891C117.335 195.964 118.706 200.959 119.756 205.998C120.794 211.027 121.524 216.143 121.154 221.216V221.227V221.265C121.148 221.674 121.474 222.017 121.883 222.022C131.486 222.188 141.095 222.387 150.699 222.509H150.715C150.771 222.509 150.826 222.503 150.881 222.487C151.163 222.398 151.323 222.1 151.235 221.812C150.616 219.807 149.931 217.851 149.196 215.895L149.179 215.906ZM150.174 222.122C150.107 221.884 150.03 221.641 149.958 221.404C140.863 221.089 131.768 220.834 122.673 220.558C122.657 220.818 122.651 221.083 122.629 221.343L121.9 220.536C122.159 220.542 122.413 220.553 122.673 220.558C122.977 215.535 122.297 210.54 121.336 205.683C120.319 200.567 118.988 195.544 117.866 190.51C117.297 187.996 116.777 185.471 116.374 182.94C116.17 181.669 116.004 180.409 115.866 179.133L115.457 175.271C114.899 170.115 114.318 164.943 113.418 159.805C112.484 154.677 111.246 149.566 109.323 144.681C108.356 142.239 107.202 139.879 105.837 137.625C104.461 135.437 103.19 133.199 101.98 130.912C99.5707 126.336 97.366 121.645 95.1503 116.959C94.0507 114.611 92.9401 112.268 91.7742 109.953C91.1885 108.793 90.5862 107.643 89.9231 106.527C89.5916 105.969 89.2435 105.417 88.8622 104.886C88.4754 104.361 88.0665 103.842 87.5361 103.438C86.3591 102.554 85.2043 101.615 84.2429 100.504C83.7732 99.9463 83.3311 99.3385 83.1212 98.6533C83.0217 98.3163 82.9886 97.9516 83.0991 97.62C83.2041 97.294 83.4472 97.0233 83.7456 96.8354C84.3478 96.4597 85.0883 96.3271 85.8121 96.2663C86.5415 96.211 87.2764 96.2386 88.0002 96.3105C89.459 96.4652 90.9011 96.7857 92.3046 97.2222C95.1116 98.1008 97.786 99.3827 100.239 100.974C102.693 102.576 104.919 104.494 106.743 106.781C108.611 109.047 110.379 111.417 112.108 113.804C113.849 116.186 115.545 118.606 117.203 121.043C118.872 123.474 120.485 125.944 122.054 128.436C123.629 130.928 125.132 133.459 126.519 136.045C127.21 137.338 127.873 138.642 128.453 139.973C129.027 141.305 129.558 142.664 129.84 144.024C129.873 144.195 129.901 144.361 129.923 144.521L129.983 145.068L130.122 146.179C130.215 146.919 130.326 147.654 130.442 148.389C130.674 149.859 130.928 151.317 131.199 152.776C132.265 158.606 133.465 164.391 134.139 170.253C134.299 171.718 134.42 173.188 134.492 174.657C134.525 175.392 134.553 176.127 134.559 176.862C134.559 177.602 134.592 178.359 134.675 179.105C134.995 182.095 135.94 184.962 137.139 187.687C138.327 190.416 139.808 193.002 141.305 195.549C141.675 196.19 142.051 196.826 142.399 197.472C142.736 198.113 143.096 198.782 143.228 199.417C143.239 199.495 143.25 199.567 143.25 199.638C143.25 199.666 143.25 199.672 143.25 199.71L143.234 199.776C143.228 199.81 143.234 199.776 143.234 199.788L143.223 199.815C143.173 199.964 143.101 200.102 143.018 200.196C142.858 200.384 142.615 200.423 142.311 200.335C141.709 200.152 141.117 199.666 140.626 199.191C140.515 199.08 140.338 199.064 140.206 199.158C140.056 199.263 140.023 199.467 140.134 199.616C141.333 201.279 142.388 203.059 143.355 204.877C144.322 206.7 145.195 208.568 146.008 210.463C146.82 212.358 147.566 214.287 148.262 216.232C148.87 217.939 149.439 219.663 149.953 221.392C150.201 221.404 150.456 221.409 150.704 221.415L150.168 222.111L150.174 222.122Z" fill="#280C61"/>
</g>
<path id="Vector_13" d="M137.62 114.584C135.271 98.996 115.109 104.411 121.17 95.8574C132.078 80.4577 124.038 80.4964 127.337 71.5892C128.558 68.296 124.137 64.4115 124.137 64.4115C124.137 64.4115 97.8303 97.1007 98.0127 100.897C98.1895 104.693 108.401 113.23 122.259 115.982C136.122 118.733 144.494 141.322 144.494 141.322C153.826 122.181 139.974 130.177 137.625 114.589L137.62 114.584Z" fill="#FFD38A"/>
<path id="Vector_14" d="M134.15 115.584C135.719 112.512 125.735 110.34 122.944 109.367C118.258 107.726 113.263 107.533 114.23 101.245C114.667 98.3937 120.717 92.3101 121.872 89.7407C127.21 77.9105 123.745 73.5287 121.972 67.108C115.689 75.0206 97.8581 97.7583 98.0073 100.886C98.1841 104.682 108.395 113.219 122.253 115.971C130.702 117.645 137.112 126.696 140.83 133.503C140.753 132.779 142.764 131.856 141.477 128.464C140.383 125.579 132.746 118.324 134.15 115.578V115.584Z" fill="#D6A76F"/>
<path id="Vector_15" d="M144.88 141.173C144.77 140.88 144.648 140.587 144.532 140.294C144.394 140.576 144.256 140.858 144.118 141.134L144.88 141.173Z" fill="#280C61"/>
<path id="Vector_16" d="M146.599 127.453C145.952 126.679 145.179 126.055 144.427 125.436C143.67 124.822 142.919 124.22 142.234 123.552C141.543 122.888 140.93 122.154 140.405 121.363C139.344 119.783 138.697 117.96 138.321 116.092C138.228 115.622 138.15 115.158 138.084 114.683C138.023 114.202 137.946 113.7 137.841 113.213C137.636 112.235 137.338 111.268 136.935 110.34C136.133 108.483 134.857 106.815 133.288 105.516C131.729 104.207 129.917 103.267 128.088 102.51C126.27 101.731 124.358 101.195 122.679 100.433C121.861 100.057 121.082 99.5596 120.866 99.007C120.623 98.4821 120.899 97.6533 121.352 96.8908C121.573 96.515 121.85 96.1338 122.132 95.7193L122.955 94.4982C123.496 93.6804 124.021 92.8461 124.513 91.9896C125.497 90.2767 126.392 88.4974 127.016 86.5801C127.652 84.6793 127.878 82.563 127.569 80.5738C127.431 79.5792 127.215 78.6288 127.071 77.695C126.928 76.7612 126.872 75.8273 126.955 74.8935C127.038 73.9597 127.243 73.0369 127.519 72.1252C127.657 71.6998 127.851 71.1472 127.856 70.6223C127.878 70.0918 127.79 69.5724 127.641 69.0862C127.342 68.1081 126.817 67.2462 126.22 66.4615C125.618 65.6769 124.939 64.9696 124.187 64.3342L124.121 64.2789L124.066 64.3452C118.153 71.313 112.418 78.4244 106.859 85.6905C104.118 89.3539 101.378 93.0118 98.9242 96.9405C98.6203 97.4378 98.3275 97.9406 98.0457 98.4655C97.7694 98.996 97.4931 99.5154 97.2942 100.19C97.25 100.355 97.1947 100.56 97.1892 100.819C97.1892 101.052 97.2113 101.212 97.2445 101.405C97.3108 101.764 97.4213 102.09 97.5484 102.394C97.8136 102.997 98.1396 103.532 98.4988 104.03C99.952 105.997 101.742 107.539 103.621 108.936C107.411 111.683 111.644 113.727 116.053 115.164C117.159 115.523 118.275 115.843 119.396 116.125C120.507 116.413 121.706 116.628 122.75 116.86C124.861 117.374 126.85 118.369 128.663 119.639C132.293 122.203 135.211 125.74 137.736 129.469C140.239 133.227 142.394 137.272 144.09 141.454L144.455 142.35L144.853 141.488C145.676 139.714 146.45 137.912 147.052 136.039C147.35 135.105 147.626 134.155 147.792 133.172C147.958 132.194 148.03 131.182 147.859 130.177C147.698 129.171 147.24 128.21 146.588 127.442L146.599 127.453ZM147.223 133.083C147.052 134.017 146.781 134.94 146.466 135.846C145.919 137.365 145.25 138.841 144.532 140.294C144.648 140.587 144.77 140.88 144.88 141.173L144.118 141.134C144.261 140.858 144.394 140.576 144.532 140.294C142.946 136.305 141.018 132.475 138.725 128.834C137.493 126.889 136.128 125.01 134.603 123.259C133.083 121.507 131.398 119.872 129.497 118.485C127.596 117.103 125.458 115.976 123.126 115.39C121.944 115.12 120.899 114.91 119.8 114.606C118.717 114.313 117.639 113.987 116.578 113.617C114.457 112.882 112.384 112.003 110.395 110.975C108.401 109.959 106.467 108.815 104.671 107.5C102.881 106.196 101.151 104.743 99.8691 103.041C99.5542 102.615 99.2779 102.173 99.0789 101.737C98.8911 101.295 98.7529 100.853 98.8635 100.621C98.974 100.195 99.2171 99.6812 99.4602 99.2004C99.7089 98.7142 99.9796 98.2224 100.261 97.7417C102.566 93.8738 105.234 90.1496 107.887 86.4475C110.544 82.7398 113.241 79.0598 115.982 75.4074L124.148 64.5276C124.806 65.1851 125.403 65.9145 125.922 66.6825C126.453 67.4782 126.9 68.3347 127.121 69.2354C127.232 69.6829 127.276 70.1415 127.232 70.5836C127.199 71.0422 127.038 71.4124 126.85 71.8987C126.502 72.827 126.243 73.805 126.121 74.8051C125.994 75.8052 126.022 76.833 126.138 77.8221C126.254 78.8111 126.436 79.7671 126.524 80.7064C126.745 82.5796 126.458 84.4196 125.828 86.1878C125.209 87.9615 124.314 89.6578 123.331 91.2934C122.833 92.1112 122.314 92.9179 121.778 93.7191L120.96 94.9071C120.689 95.2939 120.385 95.6972 120.109 96.1559C119.838 96.609 119.59 97.0952 119.435 97.6643C119.275 98.2224 119.242 98.9242 119.496 99.5596C119.75 100.195 120.209 100.654 120.662 100.991C121.12 101.328 121.59 101.571 122.06 101.786C123.933 102.615 125.778 103.14 127.558 103.842C129.326 104.538 131.022 105.378 132.498 106.511C133.973 107.638 135.177 109.097 135.984 110.782C136.393 111.622 136.702 112.512 136.935 113.429C137.051 113.887 137.139 114.346 137.222 114.827C137.31 115.307 137.41 115.799 137.531 116.28C138.001 118.203 138.763 120.076 139.907 121.712C141.046 123.353 142.582 124.651 144.112 125.839C144.869 126.441 145.621 127.049 146.206 127.779C146.803 128.502 147.195 129.359 147.334 130.282C147.477 131.199 147.4 132.155 147.229 133.089L147.223 133.083Z" fill="#280C61"/>
<g id="Group_7">
<path id="Vector_17" d="M74.9933 78.8166C65.749 76.2251 57.8254 79.3747 62.2569 96.7802C64.2682 104.676 69.9153 119.098 82.6185 123.121C91.6031 125.966 90.2327 116.44 89.3486 111.058C88.6469 106.798 94.5316 106.544 94.5316 106.544C94.5316 106.544 84.232 81.4081 74.9877 78.8166H74.9933Z" fill="#FFB9B2"/>
<g id="Vector_18" style="mix-blend-mode:multiply">
<path d="M74.9933 78.8166C65.749 76.2251 57.8254 79.3747 62.2569 96.7802C64.2682 104.676 69.9153 119.098 82.6185 123.121C83.7734 123.485 84.7569 123.645 85.5968 123.634C85.8786 119.833 86.8898 115.589 88.7353 112.296C88.9287 111.948 89.1608 111.677 89.415 111.467C89.3929 111.329 89.3708 111.191 89.3486 111.058C88.6469 106.798 94.5371 106.544 94.5371 106.544C94.5371 106.544 84.2375 81.4081 74.9933 78.8166Z" fill="#D9CAC8"/>
</g>
<path id="Vector_19" d="M88.0777 91.8459C86.7405 89.5141 85.3039 87.2265 83.6794 85.0549C82.0438 82.8889 80.2369 80.7947 77.8554 79.1979C77.2587 78.8055 76.6177 78.4574 75.916 78.1977C75.5734 78.0651 75.1811 77.9601 74.8772 77.8828C74.5456 77.7999 74.1975 77.717 73.866 77.6452C72.5122 77.3578 71.1253 77.1755 69.7108 77.1976C68.3017 77.2363 66.854 77.4573 65.5224 78.0706C64.1907 78.6674 63.0193 79.6675 62.2623 80.8942C61.4887 82.1154 61.0743 83.4857 60.8754 84.8394C60.6765 86.1987 60.6765 87.5635 60.7704 88.9063C60.9749 91.5917 61.5164 94.2218 62.1849 96.8023C62.8038 99.2556 63.5663 101.67 64.4394 104.057C65.3235 106.439 66.3291 108.787 67.5834 111.02C68.8211 113.257 70.3075 115.39 72.0978 117.263C73.8715 119.148 75.9546 120.772 78.2588 121.988C79.4136 122.59 80.6237 123.082 81.8615 123.474C83.0826 123.855 84.4087 124.176 85.768 124.093C86.4477 124.049 87.1439 123.894 87.7627 123.551C88.3816 123.214 88.8955 122.701 89.2436 122.115C89.9619 120.943 90.1498 119.612 90.2327 118.335C90.3653 115.766 89.9509 113.224 89.6028 110.749C89.5475 110.169 89.6414 109.577 89.9067 109.08C90.1774 108.583 90.6195 108.185 91.1223 107.892C92.139 107.306 93.3878 107.047 94.5592 106.986L95.1725 106.953L94.946 106.378C92.9899 101.383 90.741 96.5205 88.0777 91.8459ZM94.1282 106.715C94.0508 106.544 93.9679 106.367 93.8906 106.196C93.443 106.268 93.0065 106.356 92.57 106.483C91.9401 106.671 91.3157 106.931 90.7466 107.301C90.1829 107.671 89.6691 108.174 89.3596 108.804C89.0447 109.434 88.9563 110.146 89.0391 110.821C89.4646 113.329 89.8735 115.816 89.6967 118.308C89.5972 119.534 89.3375 120.783 88.68 121.756C88.3485 122.236 87.9119 122.618 87.3981 122.85C86.8897 123.087 86.3151 123.181 85.7349 123.181C84.5579 123.176 83.392 122.828 82.2372 122.386C81.0879 121.944 79.9828 121.402 78.9219 120.783C74.6617 118.319 71.2579 114.6 68.4675 110.472C65.6992 106.317 63.5774 101.654 62.3397 96.7581C61.7098 94.1776 61.2401 91.5309 61.2511 88.8842C61.2511 87.5636 61.3782 86.2485 61.6766 84.9886C61.975 83.7343 62.4668 82.5298 63.2238 81.5573C63.9752 80.5792 64.9643 79.8443 66.097 79.4189C67.2243 78.9879 68.4675 78.8166 69.7218 78.8442C70.9761 78.8553 72.247 79.0376 73.4958 79.3305C73.8107 79.4023 74.1146 79.4797 74.4241 79.5681C74.7666 79.662 75.0098 79.7338 75.2916 79.8443C75.8386 80.0598 76.3746 80.3472 76.894 80.6842C77.9328 81.3584 78.8887 82.2148 79.7838 83.1376C80.679 84.0659 81.5299 85.0494 82.3367 86.0827C83.9446 88.1493 85.3978 90.3595 86.7626 92.6194C88.1164 94.8904 89.4204 97.2001 90.636 99.5595C91.7632 101.748 92.8794 103.952 93.9016 106.19C94.1116 106.157 94.3161 106.124 94.5316 106.102L94.1448 106.71L94.1282 106.715Z" fill="#280C61"/>
<path id="Vector_20" d="M94.1281 106.715L94.5149 106.107C94.2994 106.124 94.095 106.163 93.885 106.196C93.9624 106.367 94.0452 106.544 94.1226 106.715H94.1281Z" fill="#280C61"/>
<path id="Vector_21" d="M89.0944 108.986C88.8236 109.262 88.6468 109.616 88.4423 109.942C88.0334 110.6 87.6632 111.279 87.387 112.003L87.4367 112.025C87.8511 111.384 88.3208 110.787 88.8015 110.202C89.0446 109.909 89.3264 109.649 89.5309 109.329C89.7353 109.008 89.9287 108.682 90.0669 108.295L90.0282 108.257C89.6635 108.445 89.3706 108.704 89.0999 108.986H89.0944Z" fill="#280C61"/>
</g>
<g id="Group_8">
<path id="Vector_22" d="M89.1001 53.8633C84.0718 58.3335 77.7285 68.5115 76.5239 78.7835C75.3193 89.05 85.3648 103.306 94.9903 107.141C104.4 110.893 108.196 106.406 110.28 101.82C111.694 98.7032 115.512 96.6477 118.004 93.5865C120.491 90.5253 123.226 87.3868 123.662 82.9719C123.817 81.364 124.209 80.1097 124.933 79.104C125.657 78.0984 126.773 76.7336 127.265 74.3244C127.757 71.9208 129.287 70.451 130.426 64.511C131.558 58.5711 128.658 55.7254 128.658 55.7254C107.776 38.9885 94.1228 49.3931 89.1001 53.8633Z" fill="#FFB9B2"/>
<g id="Vector_23" style="mix-blend-mode:multiply">
<path d="M89.1001 53.8632C84.0718 58.3334 77.7285 68.5114 76.5239 78.7835C75.3193 89.0499 85.3648 103.306 94.9903 107.141C97.8525 108.284 100.195 108.66 102.129 108.505C84.1657 102.25 91.36 89.0002 92.0949 87.5746C95.1892 81.5849 91.5037 79.7725 93.9957 76.4406C95.0345 75.0537 96.8966 75.4294 97.6868 76.8219C98.9853 79.1095 100.776 79.2752 102.687 80.7063C103.367 81.2147 103.793 81.9717 104.428 82.4966C105.329 83.2371 106.489 83.4139 107.578 83.7178C109.959 84.3919 106.887 86.9613 107.285 89.398C107.528 90.8844 109.02 90.1937 110.086 90.6081C109.429 89.4478 109.777 87.6685 111.495 87.3867C111.782 87.3425 112.042 87.3536 112.28 87.4033C114.783 87.2541 115.352 91.2104 112.716 91.6359C112.429 91.6801 112.169 91.6691 111.932 91.6193C111.55 91.6414 111.224 91.5641 110.937 91.4259C113.015 94.6142 115.595 95.3546 117.888 92.5366C119.049 91.1054 119.612 90.5032 120.701 88.746C120.115 88.8344 117.391 89.5362 116.761 88.2266C115.86 86.3479 113.407 75.2968 115.186 75.2305C116.711 75.1753 116.214 76.6395 117.745 76.518C119.419 76.3854 124.331 74.9929 127.575 70.8819C127.945 70.4122 128.398 70.1691 128.862 70.0862C129.381 68.7601 129.934 67.0416 130.42 64.5054C131.553 58.5654 128.652 55.7198 128.652 55.7198C107.771 38.9829 94.1173 49.3875 89.0945 53.8577L89.1001 53.8632ZM111.606 79.5515C110.948 84.3974 107.566 82.5077 105.644 81.933C103.433 81.2755 101.339 80.0101 100.394 77.8275C100.162 77.2971 98.5046 71.44 101.129 72.1915C102.439 72.5672 103.831 72.7219 105.074 73.3021C106.229 73.8436 107.135 74.6614 108.031 75.551C109.224 76.739 111.854 77.7115 111.606 79.546V79.5515Z" fill="#D9CAC8"/>
</g>
<g id="Vector_24" style="mix-blend-mode:multiply">
<path d="M110.092 90.6193C110.29 90.9674 110.578 91.2547 110.948 91.437C110.898 91.3597 110.843 91.2823 110.793 91.1994C110.605 90.9011 110.362 90.7242 110.097 90.6193H110.092Z" fill="#D9CAC8"/>
</g>
<path id="Vector_25" d="M128.718 55.6701V55.6645C125.817 53.3107 122.717 51.1944 119.397 49.4372C116.07 47.7077 112.44 46.4203 108.627 45.9948C104.826 45.5694 100.875 46.1109 97.3055 47.5807C95.5152 48.3045 93.8188 49.2273 92.222 50.2992C90.6251 51.3767 89.1663 52.5868 87.7628 53.9185C85.0111 56.6315 82.8561 59.7977 81.0161 63.113C79.1927 66.4394 77.7229 69.9647 76.7615 73.6502C76.2807 75.4958 75.9381 77.3579 75.7834 79.2918C75.6563 81.2479 75.9105 83.1818 76.3581 85.0439C77.303 88.7626 79.0546 92.1774 81.1653 95.2994C82.2262 96.8576 83.3976 98.3384 84.663 99.7253C85.9173 101.123 87.2821 102.427 88.7409 103.615C90.1996 104.803 91.7689 105.864 93.4486 106.726C94.294 107.157 95.1671 107.516 96.0567 107.826C96.9463 108.135 97.8525 108.411 98.7863 108.599C100.637 108.97 102.627 109.041 104.5 108.434C106.378 107.837 107.975 106.516 109.114 104.958C109.694 104.179 110.18 103.345 110.611 102.488C110.832 102.041 110.998 101.681 111.246 101.317C111.484 100.958 111.755 100.62 112.053 100.294C113.252 99.0015 114.788 97.9406 116.225 96.6973C116.949 96.0729 117.662 95.4264 118.308 94.6639C118.916 93.929 119.496 93.2107 120.082 92.4592C121.242 90.9673 122.32 89.3539 123.121 87.5802C123.519 86.6905 123.85 85.7622 124.06 84.8008C124.165 84.3256 124.248 83.8283 124.298 83.3421C124.348 82.8503 124.375 82.4414 124.458 81.9993C124.607 81.1429 124.861 80.303 125.292 79.6068C125.784 78.8719 126.375 78.0541 126.795 77.1755C127.226 76.297 127.519 75.3521 127.69 74.4017C127.84 73.5342 128.182 72.6888 128.536 71.8213C129.26 70.0918 129.845 68.2794 130.232 66.4449C130.42 65.5221 130.614 64.6104 130.73 63.6711C130.84 62.7373 130.862 61.7869 130.774 60.853C130.597 58.9909 130.006 57.1012 128.735 55.6701H128.718ZM129.823 66.3454C129.348 68.1412 128.696 69.8652 127.889 71.5395C127.497 72.3793 127.083 73.2579 126.862 74.2249C126.657 75.1034 126.342 75.9378 125.911 76.7114C125.48 77.5015 124.933 78.1701 124.348 78.9548C123.745 79.8167 123.397 80.7837 123.193 81.7562C123.093 82.2314 123.032 82.7508 122.972 83.1873C122.911 83.6239 122.822 84.0493 122.712 84.4803C122.485 85.3368 122.182 86.1711 121.806 86.9779C121.049 88.5969 120.01 90.0943 118.899 91.553C118.341 92.2769 117.756 93.0118 117.175 93.719C116.612 94.3821 115.971 95.0231 115.286 95.6254C113.926 96.841 112.396 97.9627 111.108 99.4711C110.788 99.8469 110.489 100.25 110.23 100.681C109.965 101.101 109.755 101.598 109.578 101.996C109.202 102.825 108.777 103.621 108.268 104.361C107.268 105.842 105.898 107.074 104.223 107.682C102.555 108.312 100.676 108.334 98.8858 108.008C97.0845 107.688 95.3163 107.074 93.6641 106.268C92.012 105.45 90.4814 104.389 89.0558 103.212C86.2102 100.841 83.7955 97.9682 81.8339 94.8463C79.8723 91.7243 78.3362 88.3151 77.5682 84.7566C77.1869 82.9829 77.0046 81.1705 77.1703 79.3968C77.3582 77.6121 77.7395 75.7997 78.2147 74.0425C79.1816 70.5117 80.6459 67.119 82.4528 63.9253C84.2652 60.7481 86.4201 57.7256 88.984 55.1838C91.6197 52.7028 94.6145 50.5368 97.9354 49.1333C101.256 47.7243 104.881 47.0723 108.517 47.2547C112.158 47.4094 115.772 48.4095 119.154 49.918C122.552 51.4099 125.685 53.482 128.602 55.7861C129.812 57.173 130.398 59.0407 130.536 60.8641C130.674 62.7152 130.304 64.5496 129.818 66.3454H129.823Z" fill="#280C61"/>
<g id="Group_9">
<path id="Vector_26" d="M117.297 84.497C117.297 84.497 119.369 86.5249 122.126 85.6187C122.126 85.6187 123.298 81.9884 122.342 80.5684L117.297 84.497Z" fill="#FFB9B2"/>
<path id="Vector_27" d="M122.392 80.5352L122.298 80.5959C122.502 80.9661 122.541 81.3916 122.552 81.806C122.552 82.226 122.502 82.6459 122.43 83.0603C122.287 83.8118 122.082 84.5633 121.833 85.2816C121.894 85.2706 121.949 85.265 122.01 85.254L121.762 85.5026C121.789 85.4308 121.806 85.3534 121.833 85.2871C121.502 85.3534 121.165 85.3866 120.839 85.3645C120.452 85.3369 120.082 85.2374 119.706 85.16C119.33 85.0772 118.949 84.9888 118.562 84.8672C118.17 84.7512 117.772 84.6075 117.336 84.4638L117.258 84.5412C117.463 84.9832 117.789 85.3258 118.153 85.6242C118.529 85.9115 118.96 86.1436 119.424 86.2762C119.894 86.4088 120.391 86.4033 120.866 86.348C121.347 86.2928 121.811 86.1712 122.242 85.9944L122.447 85.9115L122.491 85.7458C122.607 85.3037 122.69 84.8782 122.762 84.4417C122.834 84.0052 122.889 83.5687 122.905 83.1266C122.928 82.6846 122.916 82.237 122.856 81.795C122.789 81.3585 122.668 80.9054 122.392 80.5462V80.5352Z" fill="#280C61"/>
<path id="Vector_28" d="M122.01 85.2539C121.949 85.265 121.894 85.2705 121.833 85.2816C121.811 85.3534 121.789 85.4308 121.761 85.4971L122.01 85.2484V85.2539Z" fill="#280C61"/>
</g>
<g id="Group_10">
<path id="Vector_29" d="M118.341 80.4411C118.314 80.5406 118.292 80.6511 118.275 80.7671L119.844 78.3856C119.844 78.3856 118.817 78.8442 118.341 80.4411Z" fill="#FFB9B2"/>
<path id="Vector_30" d="M118.275 80.7672L111.534 90.9784C116.899 90.9177 116.899 94.2606 119.563 92.5035C121.9 90.9619 117.805 83.8505 118.275 80.7672Z" fill="#FFB9B2"/>
<path id="Vector_31" d="M119.596 86.5138C119.275 85.5799 119.032 84.613 118.905 83.6405C118.794 82.6735 118.673 81.6899 118.75 80.8611C118.761 80.6953 118.833 80.4522 118.894 80.2478C118.949 80.0323 119.038 79.8278 119.12 79.6179C119.303 79.209 119.529 78.8111 119.861 78.4354L119.817 78.3359C119.27 78.4243 118.811 78.7835 118.463 79.209C118.281 79.4189 118.153 79.6621 118.026 79.9052C117.91 80.1594 117.822 80.3914 117.772 80.7175C117.612 81.8668 117.96 82.8503 118.303 83.7897C118.662 84.729 119.004 85.6573 119.247 86.6132C119.496 87.5691 119.656 88.5527 119.734 89.5086C119.778 89.9838 119.806 90.4535 119.767 90.89C119.734 91.3265 119.601 91.7078 119.391 91.9012C119.336 91.9564 119.286 91.9896 119.209 92.0338C119.093 92.1056 119.021 92.1388 118.921 92.194C118.734 92.288 118.557 92.3653 118.386 92.3929C118.06 92.4537 117.767 92.393 117.352 92.1885C116.96 91.9841 116.512 91.7188 116.043 91.4978C115.573 91.2713 115.07 91.0944 114.562 90.9729C113.54 90.7353 112.501 90.7463 111.512 90.9176V91.0281C112.501 91.1773 113.451 91.3928 114.319 91.7465C114.755 91.9178 115.164 92.1388 115.562 92.3874C115.965 92.6306 116.341 92.9179 116.816 93.1886C117.054 93.3212 117.319 93.4539 117.64 93.5367C117.955 93.6196 118.314 93.6141 118.629 93.5478C118.944 93.4815 119.225 93.3599 119.474 93.2218C119.59 93.1555 119.734 93.0671 119.822 93.0008C119.955 92.9124 120.098 92.7908 120.209 92.6637C120.684 92.1222 120.761 91.4702 120.767 90.9287C120.767 90.3761 120.673 89.8567 120.546 89.3594C120.281 88.3703 119.888 87.4476 119.579 86.5082L119.596 86.5138Z" fill="#280C61"/>
</g>
<path id="Vector_32" d="M110.782 87.3481C110.462 87.5415 110.208 87.8067 110.009 88.094C109.661 88.6245 109.379 89.3649 109.539 90.0888C109.694 90.8292 110.302 91.3541 110.92 91.437C110.534 90.9452 110.351 90.4369 110.401 90.0003C110.423 89.7793 110.484 89.5638 110.578 89.3483C110.622 89.2378 110.677 89.1273 110.727 89.0334C110.799 88.8952 110.854 88.8068 110.92 88.7074C111.186 88.3206 111.49 88.0388 111.943 87.8951C112.396 87.7459 112.959 87.7404 113.573 87.8012C113.158 87.3315 112.534 87.0331 111.821 87.0386C111.467 87.0442 111.097 87.1492 110.777 87.3426L110.782 87.3481Z" fill="#280C61"/>
<g id="Group_11">
<path id="Vector_33" d="M113.49 76.6451C113.982 76.4406 114.849 75.772 114.849 75.772C113.728 74.9211 104.401 71.0477 102.284 70.5504C100.168 70.0586 96.0127 71.009 101.571 71.7328C107.13 72.4567 109.274 77.6341 112.33 77.7833C115.385 77.9325 116.148 76.3964 116.148 76.3964C114.446 76.855 113.485 76.6451 113.485 76.6451H113.49Z" fill="#FFD38A"/>
<path id="Vector_34" d="M113.556 76.3688L113.606 76.9103C113.899 76.7998 114.142 76.6672 114.385 76.5235C114.418 76.5014 114.451 76.4793 114.484 76.4627C114.379 76.4627 114.269 76.4627 114.164 76.4517C113.954 76.4351 113.727 76.413 113.556 76.3633V76.3688Z" fill="#280C61"/>
<path id="Vector_35" d="M99.0353 70.8708C99.0353 70.8708 99.0685 70.926 99.0464 70.9702C99.0298 71.0089 99.0298 70.9978 99.0519 70.9868C99.0685 70.9757 99.1016 70.9647 99.1292 70.9481C99.0795 70.915 99.0353 70.8873 99.0298 70.8652L99.0353 70.8708Z" fill="#280C61"/>
<path id="Vector_36" d="M114.617 75.4681C114.468 75.5952 114.313 75.7223 114.153 75.8439C114.324 75.9268 114.485 76.0041 114.617 76.087V75.4681Z" fill="#280C61"/>
<path id="Vector_37" d="M114.811 76.4738C114.7 76.4738 114.59 76.4682 114.479 76.4627C114.446 76.4848 114.413 76.5069 114.38 76.5235C114.136 76.6616 113.893 76.7998 113.6 76.9103L113.551 76.3688C113.716 76.413 113.949 76.4406 114.159 76.4572C114.264 76.4682 114.374 76.4627 114.479 76.4682C114.683 76.3467 114.882 76.2251 115.087 76.087L115.512 75.8052L115.087 75.4681C114.722 75.1808 114.391 75.0095 114.043 74.8106C113.7 74.6227 113.357 74.4348 113.009 74.258C112.313 73.9099 111.617 73.5673 110.91 73.2524C109.5 72.6114 108.069 72.0091 106.611 71.4842C105.881 71.219 105.152 70.9537 104.411 70.7051C104.041 70.578 103.671 70.4564 103.295 70.3515C102.914 70.2409 102.538 70.1304 102.102 70.0752C101.267 69.9757 100.466 70.042 99.6705 70.2078C99.4716 70.252 99.2727 70.3017 99.0683 70.3846C98.9633 70.4288 98.8638 70.473 98.7422 70.5614C98.687 70.6112 98.6152 70.6664 98.5654 70.799C98.5157 70.9372 98.5709 71.1029 98.6317 71.1692C98.7533 71.3129 98.8583 71.3516 98.9633 71.4013C99.0682 71.4455 99.1677 71.4787 99.2616 71.5063C99.4606 71.5615 99.654 71.6002 99.8473 71.6444C100.615 71.8047 101.406 71.8599 102.14 71.9981C102.881 72.1473 103.605 72.407 104.268 72.7716C104.931 73.1363 105.544 73.5673 106.13 74.048C106.71 74.5343 107.257 75.0482 107.826 75.5676C108.395 76.0815 108.976 76.6009 109.622 77.0816C110.257 77.5568 111.009 77.9988 111.882 78.1425C112.341 78.2033 112.716 78.1646 113.131 78.1425C113.534 78.1038 113.938 78.0209 114.324 77.8938C115.087 77.6397 115.855 77.181 116.203 76.424L116.247 76.3301L116.142 76.3467C115.7 76.413 115.258 76.4627 114.816 76.4738H114.811ZM114.186 77.3579C113.827 77.4242 113.462 77.4407 113.092 77.4407C112.733 77.4352 112.33 77.4186 112.031 77.3413C111.379 77.1976 110.782 76.7777 110.202 76.3246C109.622 75.8604 109.07 75.3355 108.478 74.8327C107.307 73.816 105.953 72.9153 104.478 72.3241C103.737 72.0367 102.98 71.8102 102.212 71.6665C101.428 71.5339 100.676 71.4566 99.9413 71.2576C99.7589 71.2134 99.5766 71.1527 99.4108 71.0864C99.3169 71.0532 99.2174 71.0035 99.1401 70.9537C99.1069 70.9648 99.0793 70.9814 99.0627 70.9924C99.0406 71.0035 99.0406 71.0145 99.0572 70.9758C99.0738 70.9316 99.0461 70.8653 99.0461 70.8764C99.0517 70.893 99.0959 70.9261 99.1456 70.9593C99.1788 70.9482 99.2174 70.9316 99.2616 70.9206C99.4219 70.8764 99.5987 70.8432 99.781 70.8266C100.505 70.7548 101.273 70.799 101.964 70.9427C102.627 71.1085 103.367 71.4068 104.074 71.6721C104.787 71.9483 105.5 72.2412 106.207 72.534C107.622 73.1363 109.047 73.7165 110.473 74.2967L112.606 75.1697L113.661 75.6173C113.827 75.6891 114.004 75.772 114.17 75.8494C114.324 75.7278 114.485 75.6007 114.634 75.4736V76.0925C114.501 76.0151 114.341 75.9323 114.17 75.8494C114.12 75.8881 114.076 75.9323 114.026 75.9709C113.821 76.1257 113.6 76.2859 113.402 76.3909L112.573 76.8274L113.446 76.9379C113.722 76.9711 113.938 76.9655 114.181 76.949C114.413 76.9269 114.645 76.8937 114.871 76.8495C115.242 76.7777 115.601 76.6727 115.954 76.5456C115.479 77.0097 114.838 77.2584 114.203 77.3689L114.186 77.3579Z" fill="#280C61"/>
</g>
<path id="Vector_38" d="M109.882 82.5464C109.821 82.5409 109.754 82.5243 109.688 82.5188C109.638 82.5796 109.589 82.6404 109.533 82.6956L109.876 82.5464H109.882Z" fill="#280C61"/>
<path id="Vector_39" d="M108.13 84.0991C108.058 84.2041 107.981 84.3036 107.904 84.4086C108.02 84.4362 108.136 84.4693 108.252 84.4914L108.13 84.0991Z" fill="#280C61"/>
<path id="Vector_40" d="M110.661 80.9496C110.396 81.5243 110.075 82.0713 109.688 82.5189C109.749 82.5244 109.815 82.541 109.882 82.5465L109.539 82.6957C109.594 82.6404 109.639 82.5797 109.694 82.5189C109.014 82.436 108.307 82.3089 107.627 82.1376C106.881 81.9442 106.141 81.7121 105.423 81.4414C103.986 80.8833 102.616 80.165 101.378 79.2533H101.372C101.179 79.1041 100.903 79.1041 100.715 79.2698C100.494 79.4577 100.466 79.7948 100.654 80.0158C101.151 80.596 101.709 81.1043 102.295 81.574C102.881 82.0437 103.494 82.4636 104.141 82.8394C104.787 83.2096 105.445 83.5522 106.135 83.8284C106.716 84.0605 107.301 84.2594 107.909 84.4086C107.986 84.3036 108.064 84.2042 108.136 84.0992L108.257 84.4915C108.141 84.4694 108.025 84.4362 107.909 84.4086C107.76 84.6131 107.605 84.812 107.445 85.0054C107.323 85.1546 107.196 85.2927 107.064 85.4253C106.931 85.5414 106.787 85.7182 106.594 85.6905C106.787 85.7734 106.986 85.6298 107.152 85.5414C107.323 85.4419 107.478 85.3203 107.633 85.1988C107.942 84.9556 108.224 84.6904 108.506 84.4086C108.528 84.3865 108.55 84.3534 108.561 84.3202C108.6 84.1986 108.539 84.0716 108.417 84.0329L108.379 84.0218C107.279 83.6461 106.235 83.1212 105.24 82.5133C105.174 82.4912 105.102 82.4747 105.036 82.447C103.494 81.8945 102.035 81.1043 100.731 80.0987L101.455 79.3306C102.323 80.3971 103.422 81.3032 104.588 82.0989C104.798 82.2426 105.019 82.3752 105.235 82.5078C105.942 82.7565 106.66 82.9609 107.39 83.1101C108.196 83.2703 108.987 83.3974 109.837 83.414H109.871C109.987 83.414 110.108 83.3643 110.186 83.2648C110.694 82.6128 110.976 81.8669 111.169 81.132C111.346 80.386 111.445 79.6345 111.418 78.8831C111.313 79.2422 111.191 79.5959 111.064 79.9384C110.937 80.281 110.804 80.6236 110.65 80.9496H110.661Z" fill="#280C61"/>
<path id="Vector_41" d="M101.461 79.3361L100.737 80.1041C102.041 81.1042 103.5 81.8999 105.041 82.4525C105.108 82.4801 105.179 82.4967 105.246 82.5188C105.03 82.3862 104.809 82.2536 104.599 82.1099C103.433 81.3142 102.334 80.408 101.466 79.3416L101.461 79.3361Z" fill="#280C61"/>
<g id="Group_12">
<g id="Group_13">
<path id="Vector_42" d="M109.832 103.09C113.026 102.759 113.042 99.5651 113.042 99.5651L102.754 95.9956C102.798 99.2004 106.638 103.427 109.832 103.09Z" fill="#FF8B80"/>
<path id="Vector_43" d="M110.838 102.438C110.274 102.632 109.644 102.687 109.075 102.593C108.495 102.488 107.92 102.267 107.379 101.958C106.301 101.339 105.334 100.466 104.527 99.4657C103.732 98.4545 103.041 97.3328 102.754 95.9956C102.632 96.6752 102.732 97.388 102.92 98.0622C103.118 98.7363 103.417 99.3828 103.793 99.9795C104.55 101.168 105.572 102.212 106.848 102.908C107.489 103.251 108.196 103.516 108.953 103.571C109.721 103.637 110.467 103.477 111.147 103.157C111.827 102.831 112.385 102.256 112.689 101.604C112.998 100.952 113.109 100.239 113.042 99.5596C112.788 100.886 111.992 102.068 110.838 102.433V102.438Z" fill="#280C61"/>
</g>
<g id="Group_14">
<path id="Vector_44" d="M114.562 94.1114L107.114 97.935C111.849 100.09 114.894 97.3825 114.894 97.3825C114.894 97.3825 113.822 96.1558 114.556 94.1058L114.562 94.1114Z" fill="#FFB9B2"/>
<path id="Vector_45" d="M114.728 97.2001C114.672 97.2443 114.612 97.283 114.551 97.3217C114.595 97.399 114.645 97.4764 114.705 97.5537L114.728 97.1946V97.2001Z" fill="#280C61"/>
<path id="Vector_46" d="M115.087 97.2223C114.938 97.051 114.805 96.8024 114.7 96.5648C114.595 96.3216 114.529 96.0564 114.485 95.7857C114.402 95.2442 114.44 94.6806 114.562 94.1169C114.297 94.6253 114.136 95.211 114.142 95.8188C114.142 96.1227 114.197 96.4211 114.28 96.714C114.346 96.9294 114.429 97.1284 114.545 97.3273C114.606 97.2886 114.667 97.2444 114.722 97.2057L114.7 97.5649C114.639 97.4875 114.59 97.4102 114.545 97.3328C114.087 97.6533 113.551 97.9296 113.004 98.1174C112.385 98.344 111.733 98.4711 111.075 98.5263C109.755 98.6313 108.406 98.3882 107.108 97.9517C108.29 98.6424 109.683 99.0623 111.103 99.0181C111.81 99.0015 112.517 98.8689 113.186 98.6368C113.855 98.3882 114.49 98.0732 115.054 97.587C115.159 97.4931 115.164 97.3383 115.076 97.2334L115.087 97.2223Z" fill="#280C61"/>
</g>
<g id="Group_15">
<path id="Vector_47" d="M113.772 97.5648C112.744 97.9626 112.827 97.1559 111.843 96.9736C110.921 96.8023 103.644 96.3105 101.914 95.7358C101.914 95.7358 106.091 98.8301 109.042 99.438C112.545 100.162 113.645 99.6977 114.192 98.7086C114.38 98.366 115.662 96.8299 113.772 97.5593V97.5648Z" fill="#D6695E"/>
<path id="Vector_48" d="M115.015 97.0179C114.904 96.935 114.794 96.9018 114.711 96.8852C114.545 96.8521 114.429 96.8631 114.324 96.8687C114.12 96.8908 113.954 96.9294 113.794 96.9737L113.573 97.04C113.49 97.0676 113.451 97.0731 113.413 97.0786C113.319 97.0897 113.269 97.0786 113.252 97.0786C113.241 97.0786 113.203 97.0565 113.098 96.9792C112.993 96.9073 112.849 96.7913 112.672 96.6918C112.33 96.4763 111.876 96.4487 111.6 96.4156L110.711 96.3437L108.942 96.2332L105.423 96.0288C104.251 95.9459 103.069 95.9072 101.925 95.6807C101.908 95.6807 101.886 95.6807 101.875 95.6972C101.853 95.7194 101.853 95.758 101.875 95.7801C102.726 96.6145 103.671 97.3439 104.671 97.9959C105.671 98.6424 106.732 99.2281 107.893 99.6314C109.092 100.062 110.302 100.013 111.512 99.9851C112.114 99.9574 112.727 99.9464 113.33 99.7309C113.628 99.6204 113.926 99.4491 114.159 99.206C114.275 99.0899 114.38 98.9407 114.462 98.8247L114.761 98.5098C114.866 98.3937 114.971 98.2722 115.065 98.1174C115.114 98.0401 115.164 97.9572 115.203 97.8522C115.236 97.7417 115.297 97.6146 115.236 97.366C115.208 97.2444 115.114 97.0952 115.004 97.0123L115.015 97.0179ZM114.468 97.8964C114.391 97.9185 114.291 97.9517 114.186 97.9959C114.17 98.0346 114.159 98.0677 114.142 98.1064L113.954 98.5263C113.893 98.67 113.844 98.7695 113.772 98.88C113.634 99.0955 113.44 99.2723 113.192 99.3883C112.7 99.6204 112.103 99.6535 111.534 99.5817C110.959 99.5099 110.401 99.3496 109.843 99.1783C109.572 99.101 109.274 99.0126 109.014 98.9463C108.749 98.8689 108.484 98.7916 108.219 98.6976C106.296 98.0125 104.439 96.9902 102.549 96.0067C102.328 95.9459 102.107 95.8741 101.892 95.7912L101.942 95.6917C102.146 95.7967 102.345 95.9017 102.549 96.0067C102.903 96.1061 103.257 96.1835 103.616 96.2664C104.196 96.3879 104.776 96.504 105.362 96.5979C106.528 96.7968 107.699 96.9571 108.865 97.1063L110.617 97.3273C111.186 97.4157 111.86 97.4267 112.086 97.6588C112.164 97.7141 112.241 97.7914 112.368 97.9019C112.49 98.0014 112.705 98.1561 112.982 98.2224C113.545 98.3495 113.932 98.0788 114.147 98.0069C114.159 98.0014 114.175 97.9959 114.186 97.9904C114.225 97.9019 114.258 97.808 114.286 97.7306C114.302 97.6864 114.308 97.6478 114.313 97.6146C114.313 97.5428 114.324 97.5594 114.319 97.587C114.319 97.5925 114.319 97.6036 114.313 97.6146C114.313 97.6257 114.313 97.6312 114.313 97.6422C114.324 97.692 114.374 97.7749 114.424 97.8191C114.479 97.8577 114.512 97.8688 114.523 97.8743C114.545 97.8854 114.512 97.8798 114.468 97.8964Z" fill="#280C61"/>
<path id="Vector_49" d="M101.897 95.7911C102.113 95.8795 102.334 95.9458 102.555 96.0066C102.351 95.9016 102.152 95.7966 101.947 95.6917L101.897 95.7911Z" fill="#280C61"/>
<path id="Vector_50" d="M114.313 97.6423C114.313 97.6423 114.313 97.6257 114.313 97.6146C114.313 97.6478 114.302 97.6865 114.286 97.7307C114.258 97.808 114.219 97.902 114.186 97.9904C114.291 97.9462 114.391 97.913 114.468 97.8909C114.512 97.8799 114.54 97.8799 114.523 97.8688C114.512 97.8688 114.479 97.8577 114.424 97.8135C114.374 97.7749 114.319 97.692 114.313 97.6367V97.6423Z" fill="#280C61"/>
</g>
</g>
<g id="Group_16">
<path id="Vector_51" d="M122.618 76.9545C122.906 76.634 123.138 76.3577 123.138 76.3577C120.706 76.6119 119.391 78.9216 119.391 78.9216C121.093 79.3692 122.784 79.0266 124.9 78.7227C127.017 78.4243 126.834 76.098 126.834 76.098C123.723 77.2252 122.618 76.9545 122.618 76.9545Z" fill="#FFD38A"/>
<path id="Vector_52" d="M119.568 79.0211C119.623 78.9437 119.69 78.8774 119.756 78.8056C119.651 78.7779 119.546 78.7558 119.441 78.7172L119.568 79.0211Z" fill="#280C61"/>
<path id="Vector_53" d="M126.873 76.0373H126.812C126.072 76.1146 125.364 76.2362 124.663 76.3135C124.392 76.3467 124.121 76.3688 123.856 76.3854L123.585 76.728C123.414 76.9435 123.242 77.1479 123.055 77.3358L122.939 76.9656C122.496 77.0263 122.06 77.159 121.646 77.3634L122.48 77.5126C122.679 77.5457 122.745 77.5402 122.867 77.5457C122.977 77.5457 123.077 77.5402 123.176 77.5292C123.375 77.5126 123.568 77.4794 123.762 77.4408C124.143 77.3689 124.502 77.2584 124.856 77.1313C125.524 76.8882 126.154 76.5788 126.746 76.1975C126.591 76.8993 126.287 77.5457 125.817 77.8939C125.569 78.0762 125.287 78.1812 124.972 78.2254C124.651 78.2751 124.226 78.3027 123.861 78.3635C123.11 78.4851 122.386 78.7282 121.646 78.8664C121.016 78.9824 120.364 78.9603 119.75 78.8C119.69 78.8719 119.618 78.9437 119.562 79.0155L119.435 78.7116C119.535 78.7503 119.645 78.7724 119.75 78.8C119.933 78.5901 120.132 78.3856 120.342 78.2143C120.629 77.9767 120.933 77.7668 121.242 77.5844C121.369 77.5071 121.502 77.4352 121.635 77.3689L121.546 77.3523L122.17 76.5622C122.331 76.3577 122.508 76.1644 122.679 75.9765L122.905 76.402C122.977 76.4075 123.049 76.413 123.126 76.413C123.287 76.413 123.452 76.413 123.618 76.4075C123.69 76.4075 123.767 76.3909 123.845 76.3854L124.486 75.5731L123.066 75.772C122.176 75.8936 121.347 76.2859 120.695 76.8274C120.364 77.0982 120.087 77.4187 119.844 77.7557C119.601 78.0928 119.391 78.4354 119.203 78.8166L119.076 79.0708L119.33 79.115C120.109 79.2587 120.883 79.3029 121.668 79.3637C122.452 79.4244 123.248 79.4465 124.005 79.3471C124.397 79.2918 124.729 79.2255 125.16 79.1426C125.591 79.0266 126.033 78.8166 126.342 78.4685C126.983 77.7723 127.077 76.844 126.878 76.0815L126.862 76.0262L126.873 76.0373Z" fill="#280C61"/>
<path id="Vector_54" d="M122.917 76.4075C122.917 76.4075 122.911 76.4075 122.905 76.4075C122.845 76.4075 122.734 76.3854 122.756 76.3854L122.939 76.9711C123.027 76.96 123.11 76.9435 123.198 76.9379L122.917 76.4075Z" fill="#280C61"/>
<path id="Vector_55" d="M122.905 76.4075C122.905 76.4075 122.911 76.4075 122.916 76.4075L122.69 75.9821C122.519 76.1699 122.342 76.3688 122.182 76.5678L121.557 77.3579L121.646 77.3745C122.06 77.1701 122.496 77.0319 122.939 76.9767L122.756 76.3909C122.756 76.3909 122.85 76.4075 122.905 76.413V76.4075Z" fill="#280C61"/>
<path id="Vector_56" d="M123.132 76.4185C123.055 76.4185 122.983 76.4185 122.911 76.4074L123.193 76.9379C123.104 76.9379 123.021 76.96 122.933 76.9711L123.049 77.3413C123.242 77.1479 123.414 76.9434 123.579 76.7335L123.85 76.3909C123.773 76.3909 123.696 76.4074 123.624 76.413C123.458 76.424 123.287 76.4185 123.132 76.4185Z" fill="#280C61"/>
</g>
<g id="Group_17">
<path id="Vector_57" d="M122.811 64.5C127.287 67.2075 121.662 71.4345 121.662 71.4345C134.294 66.1853 129.332 56.4271 129.332 56.4271L122.811 64.5Z" fill="#FFD38A"/>
<path id="Vector_58" d="M121.463 70.9538L121.977 71.8489C122.601 71.3848 123.171 70.9096 123.668 70.3239C123.8 70.1692 123.933 70.0034 124.055 69.8376C123.911 69.904 123.773 69.9813 123.624 70.0476C122.911 70.3736 122.193 70.6775 121.469 70.9593L121.463 70.9538Z" fill="#280C61"/>
<path id="Vector_59" d="M129.282 56.4492C129.702 57.9853 129.895 59.538 129.823 61.0575C129.79 61.82 129.663 62.566 129.492 63.3009C129.315 64.0303 129.099 64.7707 128.773 65.4724C128.144 66.898 127.016 68.0916 125.69 68.9314C125.165 69.2685 124.613 69.5614 124.049 69.8321C123.928 70.0034 123.8 70.1636 123.662 70.3184C123.159 70.9041 122.596 71.3793 121.971 71.8434L121.458 70.9483C122.187 70.6665 122.905 70.3626 123.613 70.0365C123.756 69.9702 123.9 69.8984 124.044 69.8266C124.375 69.368 124.651 68.8541 124.834 68.2849C125.088 67.5224 125.077 66.5665 124.629 65.8482C124.198 65.1243 123.513 64.7044 122.828 64.4447L122.773 64.5386C123.309 65.0193 123.773 65.5719 123.966 66.1576C124.16 66.7488 124.077 67.3456 123.823 67.9147C123.579 68.4894 123.176 69.0254 122.756 69.5448C122.325 70.0531 121.844 70.5781 121.342 71.0035L118.468 73.4127L121.855 71.8987C122.596 71.5671 123.32 71.1914 124.01 70.7549C124.696 70.3128 125.348 69.8211 125.966 69.3017C127.199 68.2463 128.337 67.108 129.298 65.7653C129.762 65.0857 130.171 64.3452 130.415 63.5385C130.663 62.7373 130.757 61.8919 130.757 61.063C130.724 59.3999 130.282 57.7477 129.376 56.3884L129.276 56.4382L129.282 56.4492Z" fill="#280C61"/>
</g>
</g>
<g id="Group_18">
<path id="Vector_60" d="M71.2856 134.376C64.0913 122.214 62.4944 98.5097 62.4944 98.5097C60.2732 88.8178 29.0372 108.34 24.4731 113.523C19.909 118.706 23.4674 139.261 20.8096 153.605C18.1519 167.944 22.8044 212.8 17.8148 226.835C12.8252 240.87 21.0141 239.478 21.0141 239.478C19.0194 242.528 19.815 257.043 19.815 257.043C40.0938 268.636 88.4811 260.248 88.4811 260.248C88.4811 260.248 86.7572 252.109 86.7572 232.162C86.7572 212.215 92.9955 202.992 92.9955 187.361C92.9955 171.729 84.4033 156.545 71.2911 134.382L71.2856 134.376Z" fill="url(#paint1_linear_997_19037)"/>
<g id="Vector_61" style="mix-blend-mode:multiply">
<path d="M79.8282 217.889C71.5619 215.43 66.2353 204.954 63.3731 197.036C62.3785 194.279 76.8554 187.101 77.4301 184.25C79.1154 175.901 63.4725 158.014 63.4725 144.538C63.4725 141.344 73.5235 137.608 71.2857 134.376C69.523 131.829 68.4179 128.524 67.3349 125.143C64.7544 116.534 62.1464 95.1501 56.9082 96.4597C55.908 96.7083 56.3059 111.859 54.3111 113.086C51.471 114.827 41.8565 121.474 39.4474 122.358C34.176 124.292 28.004 119.385 22.8376 117.164C20.8981 125.204 23.0365 141.587 20.8097 153.61C18.2514 167.408 20.7213 224.763 24.3571 231.189C26.3684 234.742 43.8402 232.538 37.9445 234.974C31.684 237.56 21.8596 236.831 16.8147 232.145C16.6876 232.024 16.5716 231.902 16.4611 231.781C14.9305 240.511 21.0142 239.478 21.0142 239.478C19.5609 241.704 19.5886 250.015 19.7101 254.358C30.9712 254.977 42.2654 254.916 53.532 254.435C55.897 254.336 63.3841 246.788 66.9039 246.49C71.0978 246.136 82.4915 242.174 82.4639 241.622C81.4527 241.588 68.976 239.997 67.1802 239.665C63.6935 239.03 49.8907 240.058 50.7472 237.063C51.681 233.786 84.1547 226.686 86.9119 226.99C87.0556 224.409 87.3098 222.017 87.6247 219.757C84.9283 219.961 82.1102 219.26 79.8392 217.884L79.8282 217.889Z" fill="#B4AAC0"/>
</g>
<path id="Vector_62" d="M84.6353 156.788C81.3753 150.533 77.7726 144.488 74.1478 138.465L71.4237 133.956C70.5396 132.459 69.7826 130.884 69.1085 129.27C67.7714 126.044 66.7325 122.684 65.8871 119.28C64.2074 112.467 63.163 105.494 62.5829 98.5042V98.4931C62.4005 97.587 61.8203 96.7416 60.986 96.3106C60.1571 95.8685 59.2123 95.7525 58.3061 95.7469C56.4661 95.7635 54.6758 96.2 52.9408 96.725C49.4652 97.808 46.1498 99.333 42.9174 100.98C39.6849 102.637 36.5188 104.422 33.4411 106.362C31.8994 107.329 30.3854 108.329 28.8991 109.384C27.4182 110.445 25.9484 111.522 24.5947 112.804C24.2576 113.125 23.9261 113.495 23.6553 113.909C23.3901 114.318 23.1691 114.749 22.9867 115.186C22.622 116.064 22.3789 116.971 22.191 117.877C21.8153 119.695 21.644 121.524 21.5224 123.342C21.3014 126.988 21.2848 130.624 21.2627 134.249C21.2406 137.874 21.2075 141.487 20.992 145.085C20.8815 146.88 20.7268 148.671 20.4947 150.444C20.3787 151.329 20.2405 152.218 20.0803 153.086C19.9035 153.97 19.7543 154.915 19.6493 155.821C19.2349 159.484 19.152 163.131 19.0967 166.767C19.0525 170.403 19.0857 174.039 19.1299 177.663C19.2238 184.918 19.3841 192.168 19.3841 199.406C19.3951 203.026 19.362 206.639 19.2293 210.248C19.0857 213.85 18.8647 217.453 18.3453 220.995C18.08 222.757 17.743 224.52 17.2125 226.167C16.6158 227.863 16.0521 229.664 15.7206 231.504C15.5548 232.427 15.4443 233.377 15.4443 234.344C15.4443 235.311 15.5548 236.317 15.9361 237.29C16.3063 238.262 17.0412 239.19 18.0248 239.693C18.5055 239.947 19.0249 240.108 19.5443 240.19C19.6603 240.207 19.7708 240.218 19.8869 240.229C20.0084 239.853 20.1632 239.472 20.4063 239.08L21.1467 240.207C20.6881 240.273 20.2958 240.273 19.8924 240.235C19.7653 240.633 19.6769 241.025 19.5885 241.423C19.4338 242.185 19.3343 242.937 19.257 243.688C19.1078 245.191 19.0415 246.683 19.0083 248.169C18.9531 251.153 19.0194 254.115 19.1796 257.088C19.1907 257.303 19.3067 257.497 19.5001 257.607C22.0971 259.071 24.8875 260.088 27.7166 260.873C30.5512 261.652 33.4355 262.193 36.3254 262.591C42.1217 263.37 47.9567 263.602 53.7806 263.558C56.6926 263.536 59.599 263.431 62.5055 263.276C65.4119 263.127 68.3129 262.923 71.2082 262.663C77.0046 262.149 82.7732 261.425 88.5253 260.508C88.6635 260.48 88.7574 260.348 88.7353 260.21V260.199C88.1275 256.773 87.8402 253.258 87.597 249.766C87.3705 246.269 87.2324 242.76 87.1771 239.251C87.155 237.5 87.144 235.742 87.1495 233.985C87.1495 232.228 87.1716 230.482 87.2545 228.736C87.4147 225.244 87.7904 221.763 88.3596 218.32C88.9287 214.872 89.7078 211.463 90.5311 208.048C91.3489 204.639 92.2109 201.213 92.7911 197.71C93.3878 194.218 93.7194 190.659 93.7083 187.101C93.6973 183.526 93.2497 179.962 92.4209 176.497C90.7466 169.563 87.8402 163.054 84.6353 156.788ZM91.4263 197.478C90.288 204.346 88.3209 211.143 87.3097 218.144C86.7903 221.636 86.4754 225.167 86.3759 228.692C86.3206 230.454 86.3372 232.223 86.3648 233.98C86.3925 235.737 86.4312 237.5 86.4864 239.257C86.5969 242.771 86.7406 246.285 86.9948 249.799C87.26 253.22 87.5584 256.629 88.1717 260.033C88.2546 260.016 88.343 260.005 88.4259 259.989L88.2159 260.298C88.1993 260.21 88.1883 260.121 88.1717 260.027C85.4034 260.497 82.6075 260.867 79.8115 261.204C76.9327 261.547 74.0429 261.84 71.153 262.083C65.3733 262.575 59.5714 262.851 53.7696 262.807C47.9733 262.768 42.1714 262.458 36.4636 261.585C33.6124 261.143 30.7778 260.563 28.026 259.757C25.3903 258.977 22.8099 257.983 20.4339 256.657C20.4339 256.773 20.4394 256.889 20.445 257.005L20.1245 256.485C20.2239 256.546 20.3289 256.596 20.4339 256.657C20.3234 253.839 20.2847 251.004 20.3731 248.192C20.4229 246.727 20.5002 245.263 20.6605 243.826C20.7433 243.108 20.8428 242.395 20.992 241.705C21.1357 241.03 21.3346 240.323 21.6274 239.876C21.7214 239.737 21.7656 239.561 21.7379 239.378C21.6882 238.975 21.318 238.693 20.9146 238.743H20.887C20.5776 238.787 20.1355 238.776 19.7764 238.715C19.4006 238.649 19.0415 238.533 18.7265 238.362C18.0856 238.024 17.6214 237.444 17.3451 236.726C16.7981 235.267 16.9307 233.466 17.2401 231.77C17.5606 230.04 18.0966 228.371 18.7099 226.653C19.3012 224.852 19.6548 223.039 19.9421 221.221C20.4947 217.585 20.7433 213.939 20.9091 210.303C21.0694 206.661 21.1191 203.026 21.1357 199.395C21.1357 192.129 20.9478 184.874 20.8428 177.63C20.7875 174.005 20.7489 170.386 20.782 166.772C20.8262 163.164 20.9091 159.545 21.2959 155.998C21.4009 155.108 21.5169 154.252 21.6827 153.356C21.8374 152.439 21.9645 151.533 22.0695 150.621C22.2794 148.798 22.4121 146.969 22.4949 145.145C22.6607 141.499 22.6441 137.857 22.611 134.227C22.5889 130.602 22.4839 126.977 22.622 123.38C22.6939 121.584 22.821 119.789 23.1359 118.043C23.473 116.319 23.9371 114.556 25.1748 113.379C26.4236 112.13 27.8658 111.025 29.3024 109.942C30.7501 108.865 32.2365 107.837 33.745 106.842C36.7675 104.853 39.8673 102.98 43.0666 101.289C46.2714 99.6148 49.5591 98.0677 53.0015 96.9626C54.72 96.4266 56.4937 95.979 58.2895 95.9459C59.1791 95.9459 60.0963 96.0509 60.881 96.4653C61.6711 96.8686 62.2182 97.6477 62.406 98.5152C62.6713 102.018 63.0857 105.505 63.6106 108.981C64.1355 112.456 64.7544 115.921 65.5611 119.347C66.3679 122.767 67.3127 126.171 68.6002 129.464C69.2467 131.105 69.976 132.724 70.8491 134.271L73.4737 138.841C76.9548 144.941 80.4083 151.058 83.5081 157.34C86.6245 163.595 89.426 170.055 90.9787 176.818C91.7523 180.194 92.2385 183.636 92.2606 187.095C92.2882 190.565 91.9843 194.03 91.4207 197.467L91.4263 197.478Z" fill="#280C61"/>
</g>
<g id="Group_19">
<path id="Vector_63" d="M76.8718 61.3449C70.4677 63.0026 54.9685 84.7457 46.31 90.9122C37.6514 97.0787 29.9985 108.638 29.9985 108.638C29.9985 108.638 48.0505 95.957 54.8083 96.5869C62.9806 97.3439 54.8912 106.992 66.3291 114.103C78.0267 121.375 82.5355 106.538 86.4531 81.0159C89.0336 64.1961 100.615 61.0465 100.615 61.0465C91.5035 51.4873 83.2759 59.6873 76.8718 61.3449Z" fill="#FFD38A"/>
<path id="Vector_64" d="M76.8718 61.3449C70.4677 63.0026 54.9685 84.7456 46.31 90.9121C37.6514 97.0787 29.9985 108.638 29.9985 108.638C29.9985 108.638 48.7302 92.5145 55.4934 93.1445C57.4771 93.3268 59.5271 95.0066 60.2731 97.3605C64.0912 106.732 66.6551 98.8468 71.1308 106.185C72.9155 109.108 77.5625 102.72 81.1652 87.0719C82.8063 79.9439 84.801 72.4955 88.9949 66.3842C90.1387 64.7155 92.1721 64.837 93.4043 65.7874C97.029 62.0301 100.61 61.052 100.61 61.052C91.498 51.4928 83.2704 59.6928 76.8663 61.3504L76.8718 61.3449ZM67.0695 94.4043C65.4837 91.4481 70.1417 94.6032 71.722 91.8294C76.3137 83.7952 80.4358 77.9658 80.4358 77.9658C80.4358 77.9658 75.0871 109.356 67.064 94.4043H67.0695Z" fill="#D6A76F"/>
<path id="Vector_65" d="M30.6394 109.064C31.4406 107.909 32.2805 106.771 33.1425 105.643C31.9379 106.417 30.7444 107.202 29.5564 108.008L30.6394 109.064Z" fill="#280C61"/>
<path id="Vector_66" d="M96.1283 57.3167C95.2442 56.8636 94.2994 56.5155 93.3214 56.3056C92.3378 56.1011 91.3266 56.0348 90.3265 56.0901C88.3207 56.2006 86.3813 56.7752 84.5523 57.4825C82.7123 58.1842 80.9717 59.0628 79.2146 59.7922C78.325 60.1569 77.4851 60.4663 76.5458 60.6984C75.4683 61.0299 74.6063 61.588 73.7775 62.1571C72.1419 63.323 70.6997 64.6602 69.2907 66.014C66.4948 68.7436 63.8757 71.6169 61.2731 74.4902C58.6761 77.369 56.1067 80.2588 53.46 83.0603C52.1339 84.4583 50.7911 85.8341 49.4042 87.1437C48.708 87.7957 48.0007 88.4367 47.2769 89.0389C46.553 89.6578 45.8237 90.1662 45.0004 90.774C41.8397 93.1721 39.0604 95.968 36.4965 98.9131C33.9327 101.869 31.5512 104.947 29.363 108.213L27.092 111.589L30.4461 109.268C34.5902 106.395 38.8615 103.637 43.2874 101.223C45.5087 100.029 47.7631 98.891 50.1005 98.0235C51.2663 97.598 52.4654 97.2333 53.6589 97.1007C54.2557 97.0289 54.8248 97.0565 55.4271 97.1394C56.0183 97.2223 56.5819 97.3881 57.0627 97.6754C58.0517 98.239 58.4938 99.427 58.7258 100.643C58.9469 101.869 59.0463 103.146 59.2839 104.411C59.5105 105.676 59.8696 106.931 60.4001 108.119C60.9361 109.301 61.6544 110.401 62.5053 111.384C63.3673 112.357 64.3343 113.235 65.3897 113.998C66.434 114.76 67.5723 115.423 68.8155 115.91C70.0532 116.385 71.4346 116.656 72.8215 116.468C74.214 116.291 75.5125 115.622 76.5513 114.744C77.6011 113.865 78.4189 112.782 79.1207 111.672C79.8279 110.555 80.4081 109.384 80.9109 108.191C81.9332 105.803 82.6847 103.339 83.3311 100.858C83.9832 98.3771 84.5247 95.8796 84.9943 93.371C85.4751 90.8624 85.8895 88.3482 86.2542 85.8286L86.7901 82.0491C86.9504 80.7782 87.1493 79.5571 87.4256 78.3249C87.9726 75.8771 88.7849 73.4845 89.9176 71.2467C91.0504 69.0088 92.5312 66.9422 94.3381 65.1906C95.2442 64.3176 96.2278 63.5275 97.2776 62.8312C98.3275 62.1461 99.4547 61.5327 100.643 61.1294L100.764 61.0907L100.681 60.9968C99.3995 59.538 97.8965 58.234 96.1283 57.3223V57.3167ZM94.0286 64.8591C92.1278 66.5886 90.542 68.6607 89.3098 70.9206C88.0665 73.1751 87.1769 75.6229 86.5746 78.1204C86.2652 79.3637 86.0497 80.6512 85.8342 81.8944L85.1601 85.6407C84.2208 90.6248 83.2483 95.6088 81.9332 100.477C81.2646 102.903 80.5076 105.306 79.5517 107.605C78.5736 109.876 77.4243 112.13 75.6783 113.738C74.8107 114.528 73.7775 115.109 72.6392 115.302C71.5065 115.506 70.3019 115.335 69.1581 114.943C68.0088 114.556 66.9202 113.954 65.8593 113.296C64.8095 112.633 63.8094 111.871 62.9584 110.964C61.2123 109.18 60.1735 106.798 59.8199 104.317C59.6155 103.079 59.5381 101.814 59.3392 100.532C59.2453 99.8911 59.1126 99.2391 58.8364 98.6037C58.5656 97.9738 58.107 97.377 57.5157 96.9792C56.9245 96.5758 56.2504 96.3548 55.5929 96.2166C55.2668 96.1503 54.9243 96.0951 54.5927 96.0785C54.2391 96.0564 53.9076 96.0674 53.5705 96.0951C52.2333 96.2111 50.968 96.5648 49.7413 96.9736C47.2879 97.808 44.9617 98.9021 42.6852 100.079C39.4196 101.792 36.2479 103.66 33.1536 105.643C32.2916 106.77 31.4517 107.903 30.6505 109.064L29.5675 108.008C30.75 107.201 31.949 106.417 33.1536 105.643C34.6234 103.72 36.165 101.836 37.7729 100.035C40.3368 97.1891 43.0609 94.4761 46.0779 92.1885C46.8127 91.647 47.6747 91.0447 48.4207 90.4038C49.1832 89.7683 49.9126 89.1053 50.6254 88.4311C52.0454 87.0774 53.3992 85.6739 54.7309 84.2538C57.3887 81.4082 59.947 78.4962 62.5219 75.6063C65.0968 72.722 67.6551 69.8211 70.3682 67.1135C71.7275 65.7653 73.1254 64.4502 74.6284 63.3506C75.3743 62.8147 76.1755 62.3118 76.9491 62.0687C77.8829 61.8201 78.861 61.4333 79.7506 61.0354C81.5519 60.2287 83.2483 59.3225 84.9943 58.5489C86.7349 57.7809 88.5362 57.162 90.3983 56.9741C92.2549 56.7808 94.1557 57.0681 95.8907 57.8306C97.5871 58.571 99.1066 59.7259 100.471 61.0244C98.0678 61.7924 95.9073 63.1793 94.0341 64.8646L94.0286 64.8591Z" fill="#280C61"/>
</g>
<g id="Group_20">
<path id="Vector_67" d="M83.3864 36.9992C81.4691 35.4631 72.0093 45.2931 69.1637 55.9298C66.318 66.5665 63.5939 59.7092 56.9577 66.7046C50.3215 73.7055 52.3328 81.8225 48.6638 86.4419C44.9893 91.0612 35.0323 92.4592 29.5841 101.836L24.1304 111.213C24.1304 111.213 33.3746 104.914 39.4196 101.278C45.4645 97.6367 55.6537 83.2205 59.5658 87.8398C63.4779 92.4592 63.1187 103.516 68.0972 100.858C73.0757 98.2003 86.0166 60.8641 99.9023 60.8641C106.063 60.8641 88.8015 41.3257 83.3864 36.9937V36.9992Z" fill="#FFD38A"/>
<path id="Vector_68" d="M83.3865 36.9992C82.0272 35.9107 79.1484 44.5803 78.8279 47.0668C78.1151 52.6752 72.0204 66.0636 66.9424 67.4947C57.4772 70.1636 50.1448 84.7676 55.8195 82.1596C57.6208 81.3307 61.1185 75.6449 64.4007 77.4131C65.5942 78.0541 67.5889 81.5849 68.8211 81.5794C71.5618 81.5628 77.9217 63.7539 78.7008 61.5658C80.1209 57.5708 82.3532 58.3113 89.2049 59.5214C94.0619 60.3833 82.9002 69.39 73.1808 88.0995C71.6999 90.9562 69.661 95.9348 67.81 95.7801C65.9478 95.6253 63.6713 87.0386 62.6215 85.1213C60.9969 82.154 58.1071 82.0712 53.2501 86.6684C51.2499 88.5582 46.9786 94.2661 45.5254 96.0619C50.8907 90.8292 56.803 84.5687 59.5658 87.8343C63.4779 92.4537 63.1188 103.51 68.0973 100.853C73.0758 98.1947 86.0167 60.8585 99.9024 60.8585C106.063 60.8585 88.8015 41.3202 83.3865 36.9881V36.9992Z" fill="#D6A76F"/>
<path id="Vector_69" d="M24.7769 111.589L26.4014 108.831C25.5063 109.423 24.6056 110.008 23.7104 110.6L24.7714 111.589H24.7769Z" fill="#280C61"/>
<path id="Vector_70" d="M83.3369 37.0599L83.3429 37.0659L83.3369 37.0599Z" fill="#280C61"/>
<path id="Vector_71" d="M101.157 57.5653C100.482 56.1452 99.6315 54.8744 98.7475 53.6366C97.8634 52.3989 96.924 51.2054 95.9626 50.034C94.0397 47.6911 92.0063 45.4533 89.9452 43.2431C87.8511 41.066 85.7845 38.8613 83.4417 36.9384L83.4306 36.9274C83.2096 36.7505 82.8891 36.7284 82.6294 36.7726C82.3642 36.8169 82.11 36.9163 81.8724 37.0268C81.3917 37.2534 80.9552 37.5462 80.5407 37.8557C79.7064 38.4856 78.9439 39.1984 78.22 39.9443C76.7778 41.4473 75.4849 43.0773 74.2913 44.7847C73.1089 46.4921 72.048 48.2934 71.1252 50.1611C70.1969 52.0232 69.4178 53.9737 68.8542 55.9905C68.5613 56.9796 68.2409 57.9521 67.832 58.8804C67.4231 59.8032 66.9313 60.6983 66.2351 61.3282C65.5444 61.9692 64.6271 62.1957 63.6104 62.3836C62.5937 62.5715 61.5107 62.8201 60.5106 63.2843C58.4993 64.2126 56.8803 65.6989 55.4879 67.3179C54.0899 68.9535 52.9848 70.8488 52.2168 72.8545C51.4321 74.8548 50.9459 76.9324 50.5149 78.9603C50.0728 80.9771 49.6639 82.9829 48.7743 84.6682C48.3323 85.508 47.7687 86.2208 47.0504 86.8563C46.3376 87.4862 45.5198 88.0553 44.6633 88.5803C42.9449 89.6356 41.0883 90.575 39.2759 91.6359C37.458 92.6857 35.6732 93.8682 34.0487 95.2607C32.4187 96.6476 30.9544 98.2555 29.7498 100.04C29.4515 100.488 29.1641 100.941 28.8989 101.411L28.1253 102.759L26.5782 105.455L23.4839 110.848L21.8428 113.71L24.5503 111.837C29.5067 108.411 34.5073 105.024 39.5853 101.797C40.9225 100.969 42.0718 99.9408 43.188 98.913C44.3042 97.8742 45.3706 96.8023 46.437 95.7303C48.5699 93.5975 50.6475 91.4038 52.9903 89.5417C54.1617 88.63 55.3995 87.7348 56.7809 87.337C57.466 87.1491 58.1899 87.1491 58.7701 87.4972C59.0629 87.6685 59.295 87.9061 59.5271 88.2045C59.7536 88.4863 59.9636 88.7902 60.157 89.1052C60.925 90.3705 61.4444 91.7851 61.9196 93.2051C62.3948 94.6307 62.7927 96.084 63.2789 97.5317C63.5276 98.25 63.7983 98.9738 64.163 99.6645C64.5332 100.339 65.0084 101.068 65.8372 101.444C66.2461 101.626 66.7213 101.665 67.1468 101.593C67.5778 101.521 67.9591 101.372 68.3348 101.173C69.0973 100.72 69.5725 100.096 70.0588 99.4932C70.9981 98.261 71.7827 96.9625 72.5618 95.6585C73.3354 94.3545 74.0759 93.0339 74.8107 91.7132C77.7448 86.4308 80.6126 81.1263 83.8229 76.0593C85.4198 73.5231 87.1327 71.0642 89.0059 68.7601C89.9452 67.6108 90.9398 66.5112 92.0118 65.5C93.0838 64.4944 94.2165 63.5605 95.4598 62.8422C96.6975 62.1184 98.0512 61.61 99.4437 61.494C99.626 61.4774 99.7697 61.4774 99.9852 61.4664C100.195 61.4553 100.466 61.4221 100.715 61.3337C100.969 61.2453 101.245 61.0796 101.433 60.8254C101.626 60.5767 101.715 60.2894 101.748 60.0352C101.809 59.5214 101.704 59.0959 101.593 58.6981C101.477 58.3002 101.322 57.93 101.157 57.5708V57.5653ZM100.648 59.8695C100.593 60.1126 100.538 60.1568 100.339 60.2286C100.223 60.2563 100.118 60.2728 99.952 60.2728C99.7918 60.2728 99.5597 60.2728 99.3608 60.2839C97.7308 60.3502 96.1781 60.9249 94.7967 61.6819C92.0229 63.229 89.8347 65.4834 87.8621 67.8207C85.8895 70.1691 84.1821 72.7053 82.5631 75.2747C79.3417 80.4301 76.6176 85.8451 73.8382 91.1938C73.142 92.531 72.4403 93.8627 71.7109 95.1778C70.9815 96.4873 70.2356 97.7914 69.3736 98.9904C68.9426 99.5706 68.4729 100.173 67.9314 100.51C67.3457 100.847 66.6606 101.04 66.0914 100.803C65.5057 100.576 65.0581 99.9795 64.71 99.3551C64.3564 98.7197 64.0801 98.029 63.8204 97.3272C62.7927 94.5202 62.1628 91.5033 60.5769 88.84C60.378 88.5084 60.1625 88.1879 59.9194 87.8785C59.6928 87.5801 59.3889 87.2596 59.0353 87.0497C58.3059 86.5966 57.3942 86.6021 56.6372 86.8066C55.0956 87.2375 53.8302 88.1548 52.6201 89.072C50.2276 90.9673 48.0615 93.0836 45.8789 95.1667C44.7849 96.2055 43.6963 97.2443 42.5691 98.2334C41.4419 99.2114 40.2926 100.167 39.0328 100.897C34.7284 103.416 30.551 106.107 26.3958 108.837L24.7713 111.594L23.7104 110.605C24.6056 110.014 25.5007 109.428 26.4014 108.837L27.9319 106.24L29.5122 103.56L30.3024 102.223C30.5566 101.792 30.8273 101.372 31.1091 100.963C32.2419 99.3219 33.6122 97.8521 35.1538 96.5702C36.6955 95.2827 38.3973 94.1887 40.1655 93.1665C41.9337 92.1387 43.7792 91.2049 45.6027 90.0943C46.5089 89.5307 47.415 88.9284 48.2439 88.1714C49.0782 87.4254 49.8131 86.4805 50.3215 85.4804C51.3492 83.4581 51.7305 81.3363 52.1615 79.3139C52.5814 77.286 52.9959 75.3023 53.6866 73.4181C54.3772 71.5394 55.3276 69.7713 56.5654 68.2075C57.8141 66.6549 59.2618 65.2016 60.9969 64.3065C61.8644 63.8534 62.8037 63.5826 63.8149 63.3506C64.3177 63.229 64.8482 63.1019 65.3731 62.8809C65.898 62.6654 66.4009 62.3449 66.8042 61.9416C67.6165 61.1293 68.0861 60.1347 68.4785 59.1511C68.8597 58.1621 69.1471 57.1509 69.4012 56.1397C70.3958 52.1447 72.2303 48.3763 74.5179 44.9449C75.6672 43.2265 76.9381 41.5854 78.3637 40.0935C79.0765 39.3476 79.828 38.6348 80.6457 38.0104C81.0546 37.7009 81.4856 37.4136 81.9442 37.1926C82.3863 36.9881 82.9388 36.7837 83.3367 37.071H83.3422C84.5026 38.0214 85.5856 39.0768 86.6465 40.1432C87.7129 41.2097 88.7351 42.3148 89.7463 43.4365C91.7687 45.6743 93.675 48.0172 95.4874 50.4152C96.388 51.6198 97.2666 52.841 98.0844 54.0953C98.8911 55.3496 99.6758 56.637 100.234 57.9742C100.372 58.3057 100.488 58.6428 100.571 58.9743C100.654 59.3003 100.692 59.6374 100.648 59.8695Z" fill="#280C61"/>
<path id="Vector_72" d="M68.6555 83.4194C68.6555 83.4194 68.6389 83.4691 68.6444 83.4581C68.6555 83.4581 68.6776 83.3917 68.8378 83.3254C69.0202 83.2536 69.2191 83.3254 69.2522 83.3531C69.2688 83.3641 69.2688 83.3641 69.2744 83.3696C69.2025 83.3033 69.081 83.1155 68.987 82.9387C68.9262 82.8281 68.8655 82.7121 68.8047 82.5961C68.7936 82.6955 68.7826 82.7895 68.7715 82.8889C68.7439 83.0878 68.7052 83.3033 68.661 83.4194H68.6555Z" fill="#280C61"/>
<path id="Vector_73" d="M75.1203 68.3015C73.3411 71.451 71.2138 74.4846 69.86 78.0596C69.5285 78.9492 69.2522 79.872 69.0588 80.8113C68.9649 81.281 68.8875 81.7617 68.8323 82.2425C68.8212 82.364 68.8102 82.4801 68.7991 82.5961C68.8599 82.7121 68.9207 82.8282 68.9814 82.9387C69.0809 83.1155 69.2025 83.2978 69.2688 83.3697C69.2798 83.3807 69.2798 83.3807 69.2688 83.3697C69.2688 83.3697 69.2633 83.3641 69.2467 83.3531C69.219 83.3199 69.0146 83.2481 68.8323 83.3255C68.672 83.3918 68.6499 83.4526 68.6389 83.4581C68.6278 83.4691 68.6389 83.4415 68.6499 83.4194C68.6886 83.2978 68.7328 83.0879 68.7604 82.8889C68.777 82.7895 68.7825 82.6956 68.7936 82.5961C68.6499 82.3198 68.5062 82.0325 68.3626 81.7452C67.9537 80.9218 67.5393 80.082 67.0475 79.2752C66.5557 78.4685 66.0032 77.6728 65.2462 77.0208C64.8704 76.7003 64.4284 76.4185 63.9311 76.2583C63.4338 76.098 62.8868 76.0815 62.3895 76.2085C61.3893 76.4683 60.6379 77.1258 60.0024 77.7999C59.3615 78.4851 58.8421 79.2587 58.3613 80.0433L58.4995 80.1372C59.0465 79.4023 59.6377 78.7061 60.2953 78.0928C60.9473 77.4905 61.7098 76.96 62.5221 76.8274C63.3343 76.6782 64.0969 77.054 64.6881 77.6507C65.2904 78.242 65.76 78.999 66.1745 79.7781C66.5889 80.5682 66.937 81.397 67.2962 82.2425C67.473 82.6679 67.6498 83.0934 67.8653 83.5354C67.9813 83.762 68.0753 83.9775 68.3073 84.2593C68.3736 84.3311 68.4455 84.414 68.5891 84.5024C68.6665 84.5466 68.7549 84.5963 68.893 84.6184C69.0256 84.6461 69.1969 84.6295 69.3296 84.5742C69.6003 84.4637 69.6998 84.309 69.7716 84.2151C69.8434 84.1101 69.8821 84.0272 69.9208 83.9443C70.0479 83.6349 70.1031 83.3973 70.1584 83.1486C70.2136 82.9055 70.2523 82.6569 70.291 82.4358C70.3518 82.0049 70.4402 81.5794 70.5507 81.1594C70.7662 80.314 71.0591 79.4852 71.4016 78.6729C72.0758 77.0374 72.9543 75.4681 73.8274 73.8712C74.7059 72.2744 75.5955 70.6609 76.4188 68.9977C78.0599 65.6824 79.3142 62.0576 79.5408 58.361L79.3805 58.3334C78.4688 61.8974 76.9438 65.1795 75.1314 68.3181L75.1203 68.3015Z" fill="#280C61"/>
</g>
<g id="Group_21">
<path id="Vector_74" d="M113.225 33.3854C96.2502 25.6939 85.6467 32.529 83.6907 37.1207C81.7346 41.7124 81.1434 54.471 92.8244 57.5597C104.505 60.6485 111.191 71.3239 119.463 70.4453C129.381 69.39 132.128 64.5606 132.979 59.5987C134.377 51.4374 130.205 41.077 113.225 33.3854Z" fill="#FFD38A"/>
<path id="Vector_75" d="M120.839 44.1825C118.662 41.3866 116.844 38.3309 113.617 36.4136C110.324 34.4575 98.6427 27.65 87.9397 32.4628C85.4145 34.358 84.3536 35.5571 83.685 37.1153C81.729 41.707 81.1378 54.4655 92.8188 57.5543C96.0568 58.4108 98.9135 59.8474 101.522 61.4664C101.256 60.3668 100.87 59.3059 100.262 58.3776C99.245 56.8305 97.3774 55.3828 95.8744 54.2224C92.537 51.6475 88.7022 49.7909 87.017 45.8788C85.7903 43.0276 95.3163 40.392 96.5541 43.2763C98.2173 47.1552 109.699 53.9738 108.683 66.3676C110.202 60.5547 105.726 52.4763 104.505 50.5977C103.428 48.94 101.417 46.1164 100.483 44.3869C99.5489 42.6574 97.0956 38.0381 103.03 38.237C113.645 38.5906 120.679 43.5084 125.867 57.7809C125.79 56.0514 125.602 54.3274 125.436 52.6808C125.099 49.2826 122.933 46.879 120.833 44.1825H120.839Z" fill="#D6A76F"/>
<path id="Vector_76" d="M125.431 52.9681C125.138 51.8629 124.745 50.7855 124.287 49.7411C123.834 48.6913 123.292 47.6856 122.673 46.7297C121.43 44.8179 119.889 43.1381 118.375 41.486C116.849 39.8338 115.275 38.2369 113.567 36.745C111.865 35.2476 109.954 33.9601 107.876 32.9821C105.815 31.9875 103.605 31.2526 101.334 30.8658C96.7806 30.1254 92.0784 30.7001 87.9121 32.3854L87.9563 32.5456C90.1721 32.2307 92.3768 32.0262 94.5594 32.0152C96.7419 32.0152 98.908 32.1864 101.024 32.6009C103.146 32.9932 105.229 33.5844 107.235 34.4077C109.23 35.2531 111.169 36.2643 113.015 37.4634C114.86 38.6624 116.551 40.1322 117.966 41.8341C119.391 43.5304 120.469 45.4865 121.474 47.4204C122.491 49.3543 123.458 51.3049 124.198 53.3493C124.569 54.3716 124.884 55.4104 125.116 56.4713C125.337 57.5322 125.486 58.6152 125.381 59.7203L125.541 59.759C125.972 58.6925 126.044 57.5045 125.989 56.3608C125.933 55.2114 125.723 54.0732 125.425 52.9681H125.431Z" fill="#280C61"/>
<path id="Vector_77" d="M128.044 42.9337C126.11 40.6074 123.784 38.6293 121.286 36.955C118.789 35.2697 116.109 33.8883 113.363 32.7003C110.594 31.54 107.71 30.6227 104.748 30.0978C103.273 29.8326 101.776 29.6723 100.273 29.6226C98.7753 29.5618 97.2723 29.6226 95.7859 29.816C92.8187 30.1973 89.8846 31.109 87.3429 32.7445C86.0831 33.5678 84.9116 34.568 83.9999 35.8223C83.5413 36.4522 83.2098 37.1871 82.9666 37.8999C82.718 38.6237 82.5357 39.3642 82.3975 40.1101C82.1157 41.602 82.0052 43.1271 82.066 44.6466C82.1268 46.1716 82.3588 47.6967 82.834 49.172C83.2982 50.6418 83.9889 52.0674 84.9282 53.3217C85.8565 54.5871 87.0445 55.6701 88.3706 56.5044C89.6968 57.3443 91.161 57.9521 92.6474 58.3555C94.0288 58.7367 95.377 59.2451 96.6866 59.8474C99.3002 61.063 101.776 62.6046 104.179 64.2955C106.616 65.9421 108.981 67.7655 111.666 69.2243C113.009 69.9481 114.446 70.5725 115.993 70.8985C116.761 71.0587 117.557 71.1527 118.347 71.1361C119.17 71.1195 119.905 70.9869 120.645 70.8598C122.132 70.5946 123.602 70.2078 125.016 69.6553C126.425 69.1027 127.779 68.3678 128.934 67.3898C130.089 66.4118 131.056 65.2182 131.719 63.87C132.398 62.5328 132.813 61.0796 133.045 59.6153C133.564 56.6812 133.316 53.6256 132.426 50.7634C131.542 47.8901 129.967 45.2489 128.028 42.9337H128.044ZM132.896 59.5822C132.63 61.0299 132.216 62.461 131.509 63.754C130.801 65.0359 129.834 66.1686 128.652 67.0196C126.287 68.7325 123.375 69.4563 120.496 69.7602C119.772 69.8321 119.032 69.9039 118.374 69.8597C117.684 69.821 116.999 69.7105 116.33 69.5282C114.993 69.1579 113.705 68.5501 112.462 67.8263C109.981 66.3731 107.638 64.5607 105.201 62.8422C102.748 61.1459 100.195 59.4993 97.3939 58.2892C96.0014 57.6814 94.5537 57.1675 93.0729 56.7918C91.697 56.4436 90.3819 55.9298 89.1884 55.2004C86.7959 53.7638 84.9945 51.4541 84.0662 48.7686C83.1379 46.0888 82.8838 43.1271 83.2816 40.2648C83.3866 39.552 83.5303 38.8392 83.7292 38.1541C83.9336 37.4578 84.1878 36.8169 84.5801 36.2256C85.3537 35.0321 86.4477 34.0375 87.6468 33.2197C90.0615 31.5786 92.9403 30.678 95.8412 30.352C98.7587 30.0315 101.715 30.3188 104.561 30.9874C107.406 31.656 110.163 32.6838 112.794 33.9491C118.076 36.4632 123.165 39.4857 127.248 43.6465C129.271 45.7351 130.962 48.1719 132.017 50.9126C132.559 52.2774 132.885 53.7195 133.045 55.1838C133.194 56.6481 133.128 58.1345 132.89 59.5877L132.896 59.5822Z" fill="#280C61"/>
<path id="Vector_78" d="M108.318 66.3509L109.572 65.7321C109.169 65.5055 108.766 65.2735 108.368 65.0414C108.368 65.4945 108.362 65.942 108.324 66.3509H108.318Z" fill="#280C61"/>
<path id="Vector_79" d="M109.666 60.9029C109.29 59.0684 108.727 57.2781 107.97 55.5762C107.224 53.8744 106.301 52.2554 105.246 50.7524C104.721 49.9954 104.152 49.2716 103.555 48.5753C102.958 47.8791 102.339 47.205 101.682 46.5751L101.555 46.6856C102.08 47.426 102.599 48.1665 103.085 48.929C103.566 49.6915 104.03 50.4596 104.461 51.2442C105.323 52.8134 106.069 54.4324 106.677 56.1012C107.274 57.7699 107.743 59.4773 108.025 61.2068C108.169 62.0688 108.268 62.9418 108.329 63.8093C108.351 64.2127 108.368 64.6326 108.373 65.047C108.771 65.2791 109.174 65.5112 109.578 65.7377L108.323 66.3566C108.362 65.9477 108.373 65.5056 108.368 65.047C107.252 64.3895 106.168 63.6988 105.179 62.9086C104.511 62.3727 103.897 61.787 103.356 61.1349C102.809 60.4884 102.334 59.7591 101.82 59.0076C101.306 58.2561 100.72 57.5046 100.074 56.8361C99.4273 56.1619 98.7311 55.5541 98.0073 54.9905C96.5596 53.8688 95.0179 52.9019 93.4542 52.0012L92.2772 51.3381C91.8905 51.1226 91.5258 50.9071 91.1721 50.6585C90.4593 50.1722 89.8073 49.5976 89.2327 48.9566C88.0723 47.6747 87.2656 46.0833 86.8014 44.3925C86.3428 42.6962 86.1991 40.9114 86.282 39.1377C86.3704 37.364 86.6522 35.5848 87.1551 33.8829L87.0003 33.8276C86.4202 35.535 86.0665 37.3143 85.9118 39.1156C85.7571 40.9169 85.8289 42.7514 86.2433 44.5362C86.6578 46.3154 87.4424 48.0449 88.6359 49.4705C89.2271 50.1888 89.9178 50.8242 90.6638 51.3713C91.034 51.6476 91.4318 51.8962 91.8242 52.1338L92.9679 52.8245C95.9683 54.7087 98.9411 56.7587 100.742 59.7259C101.218 60.4608 101.693 61.262 102.273 62.008C102.853 62.7539 103.516 63.4391 104.224 64.0524C105.633 65.2791 107.174 66.2903 108.743 67.2075L109.849 67.8485L109.998 66.5887C110.119 65.5609 110.114 64.6547 110.047 63.6988C109.987 62.7594 109.854 61.8256 109.672 60.9084L109.666 60.9029Z" fill="#280C61"/>
</g>
<g id="Group_22">
<path id="Vector_80" d="M71.6282 189.317C71.4734 189.372 71.374 189.4 71.374 189.4C71.4624 189.366 71.5397 189.344 71.6282 189.317C72.4017 189.051 74.7335 188.09 75.0319 186.145C75.3911 183.813 71.1585 165.004 65.9921 147.698C60.8312 130.392 50.1558 120.385 43.1715 115.495C39.4418 112.882 30.5733 109.323 30.5733 109.323C30.5733 109.323 16.3229 111.318 15.7482 134.47C15.1736 157.622 17.8258 180.084 17.6158 193.975C17.4059 207.86 23.3458 212.878 32.4022 211.612C32.4022 211.612 27.5508 218.757 35.1042 217.701C35.1042 217.701 64.7599 207.391 75.8497 189.825C75.8497 189.825 74.4959 188.388 71.6337 189.322L71.6282 189.317Z" fill="#E1DCE6"/>
<path id="Vector_81" d="M33.7889 205.241C30.6725 201.241 50.4153 194.29 50.5203 191.765C50.6143 189.455 45.8126 189.079 42.7569 184.742C39.2592 179.774 67.3733 162.092 64.5608 162.612C49.6362 165.347 48.2327 158.606 44.6522 154.578C39.845 149.174 29.5564 154.473 24.8818 151.03C22.7047 149.428 18.4942 145.455 17.0244 124.635C16.3061 127.392 15.8364 130.641 15.7425 134.47C15.3115 151.815 16.6929 168.778 17.3228 182.034C20.931 176.713 31.6616 161.816 35.6897 169.458C38.5796 174.95 27.2467 192.831 18.3063 201.755C20.1132 209.734 25.2962 212.607 32.402 211.612C32.402 211.612 49.8462 204.02 50.7579 204.551C54.333 206.628 37.469 216.403 35.9329 217.398C58.8639 208.457 73.8161 188.604 71.6335 189.317C72.4071 189.052 74.7333 188.09 75.0317 186.151C75.0814 185.819 37.2093 209.634 33.7945 205.247L33.7889 205.241Z" fill="#B4AAC0"/>
<path id="Vector_82" d="M76.0872 188.991C75.9822 188.913 75.8773 188.847 75.7723 188.786C75.5568 188.659 75.3358 188.56 75.1092 188.477C74.9932 188.433 74.8716 188.41 74.75 188.377C74.7114 188.416 74.6727 188.46 74.634 188.499C74.192 188.919 73.7002 189.25 73.1974 189.521C72.7001 189.781 72.2249 189.985 71.6613 190.162C72.3243 189.919 73.004 189.775 73.6505 189.803C73.9709 189.814 74.2859 189.875 74.5732 189.974C74.634 189.996 74.6893 190.029 74.75 190.057C74.8937 189.842 75.0429 189.626 75.181 189.405L75.2694 190.367C75.2694 190.367 75.2031 190.306 75.1534 190.278C75.0982 190.239 75.0374 190.201 74.9766 190.162C74.9048 190.123 74.8274 190.09 74.75 190.057C72.6503 193.251 70.0091 196.102 67.1469 198.694C64.0802 201.462 60.7262 203.921 57.2451 206.175C53.764 208.441 50.1337 210.491 46.4205 212.364C42.7073 214.22 38.9058 215.939 35.0268 217.398C35.0379 217.398 35.0489 217.398 35.06 217.398L34.9992 217.414C34.9992 217.414 35.0158 217.409 35.0268 217.403C34.2477 217.514 33.452 217.563 32.7116 217.425C31.9601 217.298 31.3302 216.862 31.2031 216.143C31.0595 215.436 31.2639 214.635 31.5347 213.9C31.8165 213.159 32.1977 212.436 32.6232 211.773C32.6564 211.712 32.6729 211.651 32.6619 211.585C32.6398 211.435 32.5016 211.336 32.358 211.353C29.9654 211.69 27.4513 211.657 25.2134 210.739C22.9701 209.855 21.1632 208.07 20.0802 205.915C18.9806 203.766 18.4281 201.357 18.1849 198.937C18.0634 197.727 18.0136 196.505 18.0081 195.29L18.0689 191.599C18.102 186.659 17.9031 181.73 17.7042 176.807C17.4942 171.884 17.229 166.971 16.9859 162.054C16.4886 152.235 16.1184 142.383 16.4112 132.591C16.6488 127.745 17.544 122.85 19.8039 118.545C20.9201 116.401 22.3788 114.418 24.2078 112.815C25.1195 112.014 26.1196 111.307 27.1861 110.727C28.247 110.147 29.3797 109.666 30.5622 109.412C34.314 111.08 38.0825 112.782 41.5801 114.882C42.4532 115.407 43.2599 116.009 44.0832 116.634C44.8955 117.252 45.6911 117.899 46.4702 118.562C48.0285 119.888 49.5093 121.303 50.9183 122.783C56.5323 128.729 60.9196 135.791 63.7376 143.438C64.4504 145.35 65.0472 147.289 65.5997 149.267C66.1689 151.246 66.7269 153.224 67.2684 155.207C68.3625 159.175 69.3737 163.164 70.3738 167.154C71.3684 171.143 72.3022 175.155 73.1366 179.172C73.5455 181.172 73.9599 183.211 74.1699 185.173C74.192 185.41 74.2085 185.653 74.203 185.852C74.203 185.996 74.1643 186.178 74.1091 186.349C73.993 186.687 73.772 187.013 73.4681 187.305C72.8769 187.886 71.9762 188.35 71.1474 188.615C71.9431 188.339 72.805 188.156 73.7112 188.201C74.0538 188.217 74.3964 188.283 74.7335 188.377C75.1258 187.98 75.4739 187.488 75.6783 186.913C75.7888 186.593 75.8662 186.267 75.8717 185.896C75.8773 185.581 75.8607 185.305 75.8386 185.034C75.6286 182.89 75.2252 180.879 74.8329 178.835C74.0262 174.768 73.0648 170.751 72.0812 166.734C71.0921 162.722 70.0091 158.733 68.893 154.754C68.3293 152.765 67.7602 150.781 67.1635 148.803C66.5722 146.825 65.9257 144.83 65.1632 142.891C62.1352 135.117 57.56 127.922 51.6477 122.06C50.1779 120.59 48.6252 119.197 47.0118 117.893C46.205 117.241 45.3762 116.611 44.5363 116.004C43.7019 115.401 42.8289 114.805 41.9117 114.302C40.0938 113.285 38.2151 112.418 36.3253 111.583C34.4356 110.749 32.5237 109.975 30.5898 109.246C30.5898 109.246 30.5622 109.24 30.5511 109.246C28.0867 109.666 25.8157 110.87 23.8763 112.429C21.9313 114.003 20.3288 115.987 19.0966 118.164C16.6488 122.562 15.6045 127.574 15.2343 132.52C15.0575 135.012 15.0519 137.465 15.0133 139.935C14.9912 142.405 14.9967 144.869 15.0298 147.339C15.1017 152.273 15.2453 157.202 15.4995 162.125C15.7426 167.049 16.0631 171.966 16.4002 176.873C16.7317 181.785 17.0577 186.692 17.1627 191.599L17.2014 195.295C17.2345 196.539 17.3229 197.782 17.4832 199.014C17.8092 201.478 18.3894 203.948 19.5774 206.175C20.1741 207.28 20.9201 208.314 21.8428 209.181C22.7656 210.049 23.8486 210.739 25.02 211.203C27.2082 212.065 29.5842 212.192 31.8828 211.944C31.9767 211.784 32.0651 211.618 32.1701 211.463L32.4298 211.883C32.2475 211.905 32.0651 211.927 31.8828 211.944C31.5457 212.507 31.2418 213.082 31.0042 213.695C30.7114 214.48 30.4572 215.337 30.6285 216.254C30.7114 216.707 30.9655 217.16 31.3413 217.458C31.7115 217.762 32.1535 217.917 32.5845 218.005C33.452 218.177 34.303 218.11 35.1373 218.005C35.1539 218.005 35.176 218 35.1926 217.994C39.1599 216.602 43.0113 214.961 46.8018 213.171C50.5923 211.375 54.3 209.402 57.8805 207.203C61.4556 204.993 64.898 202.539 68.0862 199.766C71.2689 196.992 74.192 193.853 76.5016 190.245L76.5127 190.234C76.7006 189.941 76.6674 189.543 76.4132 189.289C76.264 189.14 76.1867 189.085 76.0762 189.002L76.0872 188.991Z" fill="#280C61"/>
<path id="Vector_83" d="M44.5694 153.08C43.6688 152.279 42.5194 151.71 41.3315 151.445C40.1435 151.152 38.9278 151.218 37.8117 151.461C36.6955 151.688 35.6015 152.008 34.535 152.146C33.452 152.268 32.3635 152.041 31.3247 151.87C30.2748 151.704 29.2305 151.61 28.1696 151.445L24.9261 150.953L24.8542 151.102C25.7439 151.854 26.7937 152.329 27.8712 152.699C28.9542 153.047 30.0925 153.29 31.2473 153.252C33.5736 153.135 35.712 152.124 37.878 152.362C38.9555 152.45 39.9722 152.633 40.906 152.948C41.8453 153.274 42.6576 153.81 43.4367 154.434C45.017 155.672 46.3321 157.396 47.8129 159.092L47.9621 159.015C47.7079 157.904 47.2825 156.849 46.7354 155.837C46.1829 154.832 45.4811 153.876 44.575 153.075L44.5694 153.08Z" fill="#280C61"/>
</g>
</g>
</g>
</g>
<defs>
<filter id="filter0_dddd_997_19037" x="0" y="0" width="190" height="207" filterUnits="userSpaceOnUse" color-interpolation-filters="sRGB">
<feFlood flood-opacity="0" result="BackgroundImageFix"/>
<feColorMatrix in="SourceAlpha" type="matrix" values="0 0 0 0 0 0 0 0 0 0 0 0 0 0 0 0 0 0 127 0" result="hardAlpha"/>
<feOffset dy="2"/>
<feGaussianBlur stdDeviation="2.5"/>
<feColorMatrix type="matrix" values="0 0 0 0 0.192157 0 0 0 0 0.262745 0 0 0 0 0.384314 0 0 0 0.1 0"/>
<feBlend mode="normal" in2="BackgroundImageFix" result="effect1_dropShadow_997_19037"/>
<feColorMatrix in="SourceAlpha" type="matrix" values="0 0 0 0 0 0 0 0 0 0 0 0 0 0 0 0 0 0 127 0" result="hardAlpha"/>
<feOffset dy="6"/>
<feGaussianBlur stdDeviation="5"/>
<feColorMatrix type="matrix" values="0 0 0 0 0.192157 0 0 0 0 0.262745 0 0 0 0 0.384314 0 0 0 0.09 0"/>
<feBlend mode="normal" in2="effect1_dropShadow_997_19037" result="effect2_dropShadow_997_19037"/>
<feColorMatrix in="SourceAlpha" type="matrix" values="0 0 0 0 0 0 0 0 0 0 0 0 0 0 0 0 0 0 127 0" result="hardAlpha"/>
<feOffset dy="11"/>
<feGaussianBlur stdDeviation="6.5"/>
<feColorMatrix type="matrix" values="0 0 0 0 0.192157 0 0 0 0 0.262745 0 0 0 0 0.384314 0 0 0 0.05 0"/>
<feBlend mode="normal" in2="effect2_dropShadow_997_19037" result="effect3_dropShadow_997_19037"/>
<feColorMatrix in="SourceAlpha" type="matrix" values="0 0 0 0 0 0 0 0 0 0 0 0 0 0 0 0 0 0 127 0" result="hardAlpha"/>
<feOffset dy="28"/>
<feGaussianBlur stdDeviation="7.5"/>
<feColorMatrix type="matrix" values="0 0 0 0 0.192157 0 0 0 0 0.262745 0 0 0 0 0.384314 0 0 0 0.01 0"/>
<feBlend mode="normal" in2="effect3_dropShadow_997_19037" result="effect4_dropShadow_997_19037"/>
<feBlend mode="normal" in="SourceGraphic" in2="effect4_dropShadow_997_19037" result="shape"/>
</filter>
<linearGradient id="paint0_linear_997_19037" x1="82.9444" y1="159.031" x2="150.699" y2="159.031" gradientUnits="userSpaceOnUse">
<stop stop-color="#B0F9FF"/>
<stop offset="0.99" stop-color="#348BDF"/>
</linearGradient>
<linearGradient id="paint1_linear_997_19037" x1="67.8266" y1="150.29" x2="44.7132" y2="223.116" gradientUnits="userSpaceOnUse">
<stop stop-color="#B0F9FF"/>
<stop offset="0.99" stop-color="#348BDF"/>
</linearGradient>
<clipPath id="clip0_997_19037">
<rect x="15" y="4" width="160" height="160" rx="80" fill="white"/>
</clipPath>
</defs>
</svg>
