<svg width="170" height="187" viewBox="0 0 170 187" fill="none" xmlns="http://www.w3.org/2000/svg">
<g id="image" filter="url(#filter0_dddd_997_18735)">
<g clip-path="url(#clip0_997_18735)">
<rect x="15" y="4" width="140" height="140" rx="70" fill="#FFB632"/>
<g id="Group">
<g id="Layer 1">
<g id="Group_2">
<g id="Group_3">
<path id="Vector" d="M97.5681 95.7657C90.043 88.9102 90.1301 78.338 90.1301 72.961C90.1301 67.584 57.4789 45.9063 60.2949 61.7141C61.4395 68.1374 65.0476 88.3002 58.2472 91.5037C45.1218 97.6887 36.1946 108.233 36.1946 108.233C36.1946 108.233 56.5798 150.182 94.0076 149.996C131.431 149.81 113.086 100.521 113.086 100.521C113.086 100.521 101.509 99.3571 97.5721 95.7698L97.5681 95.7657Z" fill="#E9B590"/>
<g id="Group_4">
<path id="Vector_2" d="M36.4917 108.495C36.5511 108.427 36.6145 108.362 36.6739 108.293C36.6343 108.212 36.5868 108.132 36.5471 108.051L36.4917 108.495Z" fill="#280C61"/>
<path id="Vector_3" d="M112.816 100.622C112.836 100.674 112.852 100.731 112.872 100.787C112.931 100.795 112.991 100.803 113.054 100.808L112.816 100.622Z" fill="#280C61"/>
<path id="Vector_4" d="M115.751 108.875C115.09 106.019 114.314 103.195 113.343 100.412L113.288 100.246L113.11 100.226C111.454 100.032 109.795 99.7612 108.159 99.434C106.519 99.0987 104.891 98.7189 103.299 98.222C101.715 97.717 100.143 97.1232 98.7643 96.2385C98.4237 96.0163 98.0989 95.7739 97.8019 95.5032C97.4929 95.2164 97.1959 94.9336 96.9068 94.6306C96.3285 94.0287 95.7899 93.3904 95.2948 92.7198C93.2907 90.0373 92.0035 86.8418 91.2946 83.5332C90.5698 80.2165 90.4114 76.7948 90.3916 73.3771C90.3836 73.163 90.4034 72.957 90.3638 72.6984C90.3242 72.448 90.249 72.2298 90.1579 72.0198C89.9757 71.6037 89.7381 71.2279 89.4846 70.8724C88.9737 70.1614 88.3954 69.5272 87.7934 68.9172C86.5854 67.7052 85.2863 66.6024 83.9477 65.5601C81.2624 63.4796 78.4226 61.6172 75.464 59.9811C73.9828 59.165 72.4659 58.4177 70.9133 57.7511C69.3607 57.0967 67.7607 56.519 66.1012 56.1958C65.2734 56.0382 64.4258 55.9413 63.5783 55.9978C62.7386 56.0584 61.8712 56.2847 61.2138 56.8583C60.5484 57.4279 60.2197 58.2965 60.1206 59.1489C60.0216 60.0094 60.1048 60.8739 60.2553 61.7182C61.1187 66.5902 61.8514 71.4946 62.1049 76.4393C62.2237 78.9076 62.2118 81.3921 61.9069 83.8362C61.7524 85.0562 61.5187 86.2682 61.1266 87.4276C60.7345 88.5749 60.18 89.6899 59.3246 90.51C59.1107 90.712 58.881 90.8938 58.6354 91.0513C58.3938 91.2089 58.1285 91.326 57.8473 91.4553C57.2967 91.7098 56.7422 91.9845 56.1996 92.2592C55.1065 92.8127 54.0332 93.3985 52.9757 94.0166C50.8607 95.2568 48.8092 96.6061 46.8368 98.0685C44.8644 99.5309 42.9593 101.09 41.1295 102.734C39.3037 104.387 37.5333 106.092 35.8897 107.962L35.7114 108.164L35.8342 108.406C37.165 111.04 38.67 113.541 40.2582 115.993C41.8504 118.441 43.5495 120.821 45.3436 123.119C48.928 127.721 52.9242 132.003 57.3482 135.784C61.7683 139.566 66.624 142.842 71.8678 145.318C77.1116 147.783 82.7476 149.407 88.4944 149.98C89.9282 150.13 91.3698 150.206 92.8115 150.227C94.2532 150.247 95.6988 150.206 97.1365 150.073C100.008 149.81 102.875 149.192 105.533 148.013C108.187 146.845 110.603 145.072 112.452 142.801C114.314 140.535 115.597 137.824 116.401 135.009C117.205 132.181 117.589 129.248 117.688 126.315C117.787 123.378 117.609 120.441 117.264 117.528C116.924 114.616 116.405 111.723 115.747 108.867L115.751 108.875ZM117.419 126.315C117.332 129.228 116.987 132.148 116.171 134.948C115.363 137.74 114.084 140.406 112.242 142.628C111.323 143.739 110.274 144.732 109.121 145.581C107.965 146.425 106.709 147.132 105.398 147.694C102.772 148.825 99.9406 149.398 97.1008 149.629C95.679 149.746 94.2492 149.77 92.8234 149.734C91.3976 149.697 89.9717 149.604 88.5499 149.443C82.8704 148.813 77.3255 147.148 72.1688 144.664C67.0002 142.191 62.2158 138.931 57.8631 135.17C55.6848 133.288 53.6094 131.28 51.637 129.175C49.6567 127.074 47.7754 124.881 45.9892 122.602C44.2069 120.324 42.5197 117.969 40.9315 115.541C39.4027 113.194 37.9452 110.774 36.6739 108.293C36.6144 108.362 36.5511 108.427 36.4917 108.495L36.5471 108.051C36.5867 108.132 36.6342 108.212 36.6739 108.293C38.2185 106.548 39.8859 104.876 41.6127 103.292C43.4108 101.644 45.2802 100.076 47.2209 98.6058C49.1616 97.1353 51.1618 95.7456 53.2411 94.4811C54.2787 93.8469 55.3362 93.245 56.4056 92.6753C56.9442 92.3926 57.4789 92.1138 58.0294 91.8472C58.2948 91.7139 58.5919 91.5806 58.8572 91.4028C59.1226 91.2291 59.3721 91.0231 59.5978 90.8009C60.5088 89.9 61.0633 88.7244 61.4474 87.5367C61.8277 86.3409 62.0455 85.1088 62.1841 83.8726C62.4574 81.3962 62.4138 78.9076 62.2792 76.4312C61.994 71.4784 61.2296 66.5741 60.3345 61.7061C60.1919 60.8658 60.1127 60.0053 60.2157 59.161C60.3147 58.3248 60.6434 57.4845 61.2851 56.9391C61.9188 56.3897 62.7663 56.1675 63.5901 56.115C64.4219 56.0625 65.2575 56.1635 66.0774 56.3251C67.721 56.6563 69.3092 57.234 70.8499 57.8965C72.3946 58.5591 73.8917 59.3428 75.3571 60.171C78.284 61.8434 81.0841 63.7422 83.7219 65.8509C85.0368 66.9094 86.3121 68.0203 87.4805 69.2323C88.0588 69.8382 88.6212 70.4725 89.0925 71.1552C89.3262 71.4946 89.54 71.8501 89.6985 72.2177C89.7737 72.3995 89.8331 72.5894 89.8569 72.7671C89.8806 72.9327 89.8648 73.159 89.8688 73.3731C89.8529 75.086 89.8608 76.811 89.9797 78.5319C90.0985 80.2529 90.3163 81.9698 90.6688 83.6665C91.3698 87.0479 92.657 90.3605 94.7284 93.152C95.2473 93.8469 95.8057 94.5094 96.4077 95.1275C96.7048 95.4386 97.0256 95.7375 97.3385 96.0284C97.6712 96.3273 98.0276 96.5899 98.392 96.8283C99.8693 97.7655 101.481 98.3634 103.101 98.8724C106.297 99.846 109.569 100.412 112.872 100.783C112.852 100.731 112.836 100.674 112.817 100.618L113.054 100.803C112.995 100.795 112.935 100.787 112.872 100.783C113.834 103.458 114.63 106.213 115.316 108.984C116.009 111.816 116.563 114.684 116.943 117.581C117.316 120.473 117.502 123.398 117.419 126.315Z" fill="#280C61"/>
</g>
</g>
<g id="Group_5">
<path id="Vector_5" d="M53.0074 93.2168C63.3525 92.5947 61.7723 82.6648 61.7723 82.6648C51.3757 82.7173 53.0074 93.2168 53.0074 93.2168Z" fill="#292F4D"/>
<path id="Vector_6" d="M62.2751 82.0547H61.7682C58.5244 82.0749 56.057 83.0727 54.4331 85.0199C51.6845 88.3205 52.3895 93.1036 52.4212 93.3056L52.5043 93.8469L53.043 93.8146C56.358 93.6167 58.8532 92.4734 60.4691 90.4171C63.0514 87.1287 62.39 82.7455 62.3583 82.5597L62.2751 82.0466V82.0547ZM59.5384 89.6657C58.2353 91.3261 56.2194 92.2997 53.538 92.5663C53.4509 91.2857 53.4509 88.066 55.3401 85.8037C56.6432 84.2443 58.6235 83.3959 61.2335 83.2869C61.3167 84.4665 61.3088 87.4156 59.5344 89.6698L59.5384 89.6657Z" fill="#3A0075"/>
</g>
<path id="Vector_7" d="M115.862 108.851C115.209 105.986 114.44 103.159 113.478 100.363L113.395 100.117L113.125 100.084C111.478 99.8864 109.822 99.6076 108.191 99.2763C106.559 98.933 104.931 98.5613 103.351 98.0604C101.774 97.5594 100.214 96.9615 98.8593 96.0889C98.5227 95.8708 98.2058 95.6324 97.9207 95.3698C97.6157 95.083 97.3186 94.8043 97.0374 94.5053C96.4671 93.9115 95.9324 93.2732 95.4413 92.6106C93.457 89.9524 92.1896 86.7812 91.4688 83.4968C90.7361 80.2003 90.5579 76.7947 90.5262 73.3811C90.5183 73.167 90.5341 72.965 90.4945 72.6863C90.4509 72.4196 90.3717 72.1934 90.2767 71.9752C90.0866 71.543 89.845 71.1673 89.5875 70.8077C89.0687 70.0927 88.4825 69.4544 87.8766 68.8444C86.6606 67.6284 85.3497 66.5336 84.007 65.4913C81.3099 63.4189 78.4622 61.5646 75.4917 59.9366C74.0065 59.1246 72.4856 58.3813 70.9291 57.7228C69.3726 57.0724 67.7686 56.5027 66.1091 56.1836C65.2773 56.0301 64.4298 55.9331 63.5822 55.9897C62.7425 56.0462 61.8672 56.2765 61.2058 56.8542C60.5365 57.4279 60.2038 58.3005 60.1048 59.1529C60.0058 60.0174 60.0889 60.8859 60.2355 61.7303C61.1028 66.5982 61.8395 71.5066 62.0653 76.4473C62.1762 78.9156 62.1524 81.3961 61.8395 83.8321C61.6771 85.0481 61.4435 86.256 61.0514 87.4033C60.6593 88.5425 60.1008 89.6414 59.2612 90.4413C59.0513 90.6392 58.8255 90.817 58.5839 90.9664C58.3463 91.1199 58.0888 91.229 57.8037 91.3623C57.2492 91.6168 56.6947 91.8875 56.1481 92.1582C55.051 92.7076 53.9738 93.2893 52.9123 93.9074C50.7894 95.1396 48.726 96.4808 46.7457 97.9432C44.7654 99.4016 42.8524 100.961 41.0147 102.601C39.1769 104.253 37.4026 105.95 35.7471 107.837L35.4817 108.14L35.6639 108.503C37.0026 111.153 38.5036 113.654 40.0958 116.114C41.6919 118.571 43.391 120.954 45.1891 123.261C46.9873 125.563 48.8844 127.793 50.8845 129.918C52.8965 132.035 55.0075 134.055 57.2254 135.95C61.6613 139.735 66.5328 143.015 71.8004 145.492C77.0641 147.956 82.7198 149.588 88.4865 150.146C89.9281 150.287 91.3738 150.36 92.8194 150.376C94.265 150.392 95.7146 150.344 97.1562 150.206C100.036 149.932 102.911 149.305 105.576 148.114C108.238 146.93 110.658 145.144 112.515 142.866C114.385 140.592 115.668 137.869 116.468 135.041C117.268 132.209 117.664 129.272 117.763 126.331C117.866 123.39 117.688 120.449 117.355 117.532C117.023 114.611 116.512 111.719 115.866 108.855L115.862 108.851ZM117.347 126.315C117.26 129.224 116.928 132.14 116.112 134.932C115.304 137.715 114.024 140.373 112.187 142.583C111.272 143.686 110.226 144.68 109.074 145.52C107.921 146.36 106.67 147.055 105.363 147.613C102.745 148.728 99.9208 149.297 97.0929 149.516C94.2571 149.722 91.3936 149.612 88.5697 149.289C82.9139 148.639 77.3849 146.983 72.252 144.498C67.1032 142.03 62.3346 138.77 57.9977 135.013C55.8273 133.134 53.7599 131.13 51.7915 129.026C49.8151 126.929 47.9378 124.739 46.1555 122.469C44.3733 120.199 42.69 117.847 41.1058 115.428C39.6047 113.125 38.1749 110.749 36.9194 108.326C36.8283 108.427 36.7332 108.528 36.6461 108.629L36.7293 107.962C36.7927 108.083 36.86 108.204 36.9233 108.326C38.4284 106.629 40.0602 104.985 41.7394 103.429C43.5257 101.777 45.3872 100.21 47.3199 98.735C49.2527 97.2645 51.2409 95.8627 53.3084 94.5942C54.3421 93.9559 55.3917 93.3499 56.461 92.7763C56.9957 92.4894 57.5304 92.2107 58.0769 91.9441C58.3423 91.8108 58.6433 91.6734 58.9126 91.4876C59.1859 91.3058 59.4394 91.0998 59.6691 90.8695C60.5919 89.9444 61.1464 88.7567 61.5306 87.5609C61.9108 86.357 62.1247 85.1168 62.2593 83.8765C62.5207 81.3921 62.4693 78.8995 62.3267 76.4271C62.0138 71.4743 61.2494 66.57 60.3622 61.702C60.2196 60.8617 60.1404 60.0053 60.2394 59.165C60.3385 58.3287 60.6632 57.4965 61.3009 56.9552C61.9306 56.4058 62.7742 56.1876 63.598 56.1351C64.4298 56.0826 65.2655 56.1796 66.0813 56.3452C67.721 56.6805 69.3053 57.2663 70.8459 57.9328C72.3866 58.6034 73.8798 59.3872 75.3412 60.2234C78.2562 61.908 81.0524 63.8148 83.6743 65.9276C84.9813 66.9901 86.2487 68.1051 87.4092 69.317C87.9835 69.923 88.538 70.5573 89.0014 71.2319C89.2311 71.5672 89.441 71.9187 89.5875 72.2742C89.6588 72.4479 89.7143 72.6337 89.7341 72.7913C89.7578 72.9327 89.742 73.163 89.742 73.3771C89.7182 75.094 89.7182 76.823 89.8331 78.548C89.9479 80.2771 90.1539 82.0021 90.5064 83.7069C91.1995 87.1084 92.5065 90.4493 94.5977 93.2651C95.1205 93.964 95.6869 94.6346 96.2928 95.2567C96.5938 95.5718 96.9186 95.8748 97.2315 96.1657C97.5721 96.4727 97.9365 96.7393 98.3088 96.9817C99.8099 97.9311 101.434 98.529 103.062 99.038C106.246 100.008 109.494 100.561 112.777 100.917C112.745 100.836 112.721 100.751 112.69 100.67L113.046 100.949C112.955 100.941 112.868 100.929 112.777 100.917C113.731 103.55 114.527 106.273 115.213 109.008C115.914 111.836 116.48 114.7 116.868 117.589C117.248 120.477 117.435 123.398 117.359 126.311L117.347 126.315Z" fill="#280C61"/>
<path id="Vector_8" d="M36.6421 108.629C36.7332 108.528 36.8283 108.427 36.9154 108.326C36.8521 108.204 36.7847 108.083 36.7214 107.962L36.6382 108.629H36.6421Z" fill="#280C61"/>
<path id="Vector_9" d="M112.682 100.67C112.714 100.751 112.737 100.836 112.769 100.917C112.86 100.925 112.947 100.937 113.038 100.949L112.682 100.67Z" fill="#280C61"/>
<g id="Vector_10" style="mix-blend-mode:multiply">
<path d="M97.5682 95.7658C97.4613 95.6689 97.3583 95.5679 97.2553 95.4709C96.9187 95.8103 96.5424 96.1375 96.1226 96.4526C92.7877 98.9613 88.1736 99.9551 84.0942 100.202C80.4227 100.424 75.4126 98.8684 76.9968 93.9964C78.5335 89.2738 84.8942 89.0274 87.1082 84.8785C87.7934 83.5939 89.0529 83.4242 90.0668 83.8847C89.0331 80.4913 88.7558 77.2958 88.7558 74.8153C88.7558 69.4424 58.6354 51.9823 61.4514 67.786C62.596 74.2094 63.9664 88.4416 58.4612 92.0209C46.2665 99.943 36.1907 108.233 36.1907 108.233C36.1907 108.233 56.5759 150.182 94.0036 149.996C131.427 149.811 113.082 100.521 113.082 100.521C113.082 100.521 101.505 99.3572 97.5682 95.7699V95.7658Z" fill="#D9C3B4"/>
</g>
<path id="Vector_11" d="M97.5681 95.7658C96.5027 94.7922 95.5641 93.7863 94.7363 92.7521C93.0966 97.616 88.6053 101.971 83.6822 102.726C74.1689 104.189 62.6673 100.666 58.2472 91.4998C57.9145 91.6896 57.5739 91.8714 57.2096 92.029C43.9059 97.7978 36.1946 108.225 36.1946 108.225C36.1946 108.225 56.1679 189.873 93.5956 189.688C131.019 189.502 113.082 100.513 113.082 100.513C113.082 100.513 101.505 99.3491 97.5681 95.7618V95.7658Z" fill="#B4AAC0"/>
<g id="Vector_12" style="mix-blend-mode:multiply" opacity="0.7">
<path d="M58.2475 91.5038C57.9148 91.6937 57.5742 91.8755 57.2098 92.033C51.9818 94.2993 47.6251 97.2848 44.2546 100.072C46.2191 103.805 48.1519 107.554 50.1243 111.283C51.8946 114.628 53.7482 117.783 54.7899 121.245H74.2998C75.0167 119.778 75.7335 118.336 76.3474 116.926C78.6089 111.723 81.0566 106.471 85.0687 102.407C84.6093 102.541 84.1498 102.654 83.6825 102.726C74.1691 104.189 62.6675 100.666 58.2475 91.4998V91.5038Z" fill="#616A91"/>
</g>
<path id="Vector_13" d="M58.1997 91.5239C58.1997 91.5239 58.2155 91.5562 58.2235 91.5724C58.2393 91.5643 58.2552 91.5562 58.271 91.5482L58.1997 91.528V91.5239Z" fill="#280C61"/>
<path id="Vector_14" d="M94.4592 92.9824C94.5899 93.144 94.7286 93.2975 94.8632 93.455C94.9345 93.2611 95.0098 93.0672 95.0731 92.8693L94.4592 92.9824Z" fill="#280C61"/>
<path id="Vector_15" d="M36.3611 108.358C36.3809 108.33 36.4046 108.301 36.4284 108.273C36.4165 108.237 36.4047 108.204 36.3967 108.168L36.3611 108.358Z" fill="#280C61"/>
<path id="Vector_16" d="M116.92 123.798C116.151 115.957 114.955 108.168 113.296 100.464L113.264 100.311L113.102 100.29C111.418 100.092 109.731 99.8177 108.068 99.4824C106.4 99.143 104.749 98.7391 103.133 98.2179C101.529 97.6887 99.9327 97.0666 98.5584 96.1253C98.2138 95.8869 97.9088 95.6365 97.5999 95.3375C97.287 95.0467 96.99 94.7477 96.6929 94.4407C96.1028 93.8266 95.5404 93.1884 95.0057 92.5218L94.6057 92.0249L94.3958 92.6349C93.7898 94.3922 92.8274 96.0203 91.6392 97.4342C90.447 98.8481 89.0173 100.06 87.4212 100.941C86.6211 101.381 85.7815 101.737 84.9141 101.979C84.4745 102.1 84.0467 102.193 83.5952 102.262C83.1397 102.326 82.6803 102.383 82.2209 102.427C80.3871 102.601 78.5335 102.593 76.6958 102.407C73.0283 102.056 69.4123 101.005 66.1844 99.2036C64.5724 98.3108 63.0238 97.2686 61.6614 95.9799C60.9801 95.3375 60.3504 94.6386 59.7722 93.8913C59.2097 93.1358 58.6988 92.3319 58.283 91.4795L58.2592 91.431L58.2117 91.4593C57.875 91.6573 57.5384 91.839 57.1859 91.9966C55.1422 92.8773 53.1579 93.8994 51.245 95.0386C49.328 96.1778 47.4864 97.4463 45.708 98.7997C43.9258 100.149 42.2227 101.603 40.5989 103.151C38.9829 104.706 37.4264 106.322 36.0204 108.099L35.957 108.18L35.9887 108.285C38.2027 115.844 40.9672 123.216 44.0921 130.431C45.6566 134.039 47.3596 137.582 49.1775 141.064C50.9915 144.547 52.948 147.96 55.063 151.269C57.174 154.577 59.4474 157.789 61.9267 160.827C64.4061 163.865 67.0914 166.741 70.042 169.323C72.9887 171.9 76.2126 174.183 79.7178 175.92C83.215 177.661 87.0132 178.841 90.9025 179.2C92.8432 179.378 94.8037 179.39 96.7484 179.16C98.6891 178.929 100.61 178.441 102.412 177.661C104.218 176.881 105.893 175.807 107.367 174.494C108.84 173.181 110.107 171.646 111.177 169.985C113.316 166.656 114.69 162.895 115.64 159.078C116.587 155.248 117.114 151.325 117.415 147.399C117.712 143.468 117.759 139.525 117.652 135.586C117.557 131.647 117.3 127.717 116.924 123.798H116.92ZM117.138 147.378C116.833 151.293 116.274 155.196 115.3 158.993C114.322 162.778 112.927 166.487 110.793 169.735C109.727 171.351 108.476 172.845 107.026 174.106C105.581 175.37 103.945 176.401 102.186 177.136C98.6614 178.631 94.7483 178.913 90.9619 178.521C87.1637 178.121 83.4605 176.97 80.0346 175.249C76.6008 173.532 73.4402 171.278 70.541 168.725C64.7388 163.598 59.9583 157.361 55.764 150.804C51.5856 144.219 47.9854 137.255 44.7773 130.116C43.1693 126.549 41.6682 122.929 40.2662 119.269C38.8839 115.642 37.565 111.982 36.4204 108.273C36.3967 108.301 36.3729 108.33 36.3531 108.358L36.3887 108.168C36.4006 108.204 36.4125 108.237 36.4204 108.273C37.7393 106.532 39.2364 104.904 40.7929 103.357C42.3811 101.785 44.0525 100.307 45.8031 98.9249C47.5576 97.5473 49.3954 96.2869 51.3004 95.1355C53.2055 93.9882 55.1818 92.9581 57.2176 92.0693C57.5582 91.9239 57.8948 91.7542 58.2156 91.5724C58.2077 91.5563 58.1998 91.5401 58.1919 91.5239L58.2632 91.5441C58.2632 91.5441 58.2315 91.5603 58.2156 91.5684C59.0315 93.2732 60.0613 94.8891 61.3247 96.3152C62.6 97.7533 64.0892 99.0097 65.7368 100.004C67.3844 101.001 69.1667 101.741 70.9926 102.302C72.8224 102.86 74.6997 103.239 76.6008 103.413C78.4979 103.587 80.4148 103.579 82.308 103.381C82.7833 103.328 83.2546 103.268 83.7259 103.195C84.2012 103.118 84.6923 103.009 85.1557 102.868C86.0904 102.589 86.9894 102.197 87.8331 101.716C89.5242 100.751 91.0055 99.4541 92.2372 97.9513C93.3343 96.606 94.2334 95.0871 94.8552 93.4509C94.7205 93.2934 94.5819 93.1399 94.4512 92.9783L95.0651 92.8652C95.0017 93.0631 94.9265 93.257 94.8552 93.4509C95.2869 93.96 95.7305 94.4568 96.2018 94.9295C96.5107 95.2365 96.8236 95.5436 97.1444 95.8344C97.4573 96.1334 97.8217 96.4242 98.19 96.6707C99.6753 97.6524 101.315 98.2624 102.955 98.7795C104.602 99.2885 106.278 99.6723 107.965 99.9914C109.597 100.298 111.236 100.545 112.892 100.719C112.88 100.666 112.868 100.614 112.856 100.561L113.05 100.735C112.995 100.731 112.943 100.723 112.888 100.715C113.755 104.484 114.456 108.301 115.074 112.127C115.696 116.009 116.215 119.904 116.615 123.818C117.011 127.729 117.292 131.656 117.403 135.582C117.502 139.513 117.439 143.448 117.13 147.366L117.138 147.378Z" fill="#280C61"/>
<path id="Vector_17" d="M112.864 100.569C112.876 100.622 112.888 100.674 112.9 100.727C112.955 100.731 113.007 100.739 113.062 100.747L112.868 100.573L112.864 100.569Z" fill="#280C61"/>
<path id="Vector_18" d="M192.338 131.425C187.407 126.727 188.163 121.475 187.767 107.784C187.371 94.0933 182.171 86.9227 175.866 88.1225C169.56 89.3223 168.071 86.1349 156.181 84.8664C144.292 83.5938 150.906 102.621 148.708 106.386C146.506 110.152 149.702 113.105 149.702 113.105C149.329 113.876 149.967 115.153 149.967 115.153C148.323 113.695 146.605 114.507 146.605 114.507C146.605 114.507 145.777 108.907 143.143 109.186C140.509 109.465 136.549 99.6238 132.972 99.2158C129.4 98.8118 123.93 100.294 120.556 99.4825C117.181 98.6704 105.248 92.5703 105.248 92.5703C95.992 81.8608 101.244 152.683 101.897 164.847C102.677 179.37 102.464 210.59 102.464 210.59H134.002C134.002 193.849 131.451 164.18 131.451 164.18C142.826 164.047 168.808 160.916 181.585 156.46C199.304 150.279 197.273 136.124 192.346 131.429L192.338 131.425Z" fill="#656E99"/>
<g id="Vector_19" style="mix-blend-mode:multiply" opacity="0.7">
<path d="M189.221 134.613C185.925 134.887 182.733 133.276 179.838 131.874C178.258 131.11 183.525 130.128 184.096 128.884C183.585 127.139 178.986 124.428 181.268 124.558C182.492 124.626 186.979 123.18 187.783 122.311C187.93 122.158 188.076 122.025 188.231 121.911C187.89 118.441 187.945 113.977 187.763 107.78C187.367 94.0893 182.167 86.9186 175.862 88.1184C169.556 89.3182 168.067 86.1308 156.177 84.8623C144.577 83.6221 157.199 110.499 177.093 110.499C182.206 110.499 177.533 125.204 172.412 125.107C169.909 125.059 156.625 113.606 155.781 114.466C155.088 115.173 173.885 132.621 171.624 134.576C168.297 137.453 163.703 133.372 161.049 130.488C158.657 127.886 156.126 125.531 154.506 122.311C154.177 121.657 149.92 115.173 149.377 114.725C148.137 113.993 146.977 114.357 146.672 114.474C146.537 119.96 146.149 127.854 145.741 133.393C145.357 138.596 141.994 144.821 139.404 140.313C134.893 132.459 137.004 116.405 136.608 115.856C132.873 110.624 126.881 131.748 125.712 128.266C123.712 122.303 121.324 117.54 120.615 112.042C120.397 110.354 120.873 108.661 122.164 107.712C122.033 107.639 121.902 107.562 121.772 107.493C120.476 106.794 119.146 106.176 117.799 105.587C117.625 105.51 116.306 104.952 116.334 104.964C115.502 104.617 114.67 104.282 113.842 103.926C112.698 103.433 111.557 102.92 110.468 102.306C107.89 100.856 105.525 98.9169 103.656 96.594C102.757 95.479 102.163 94.1862 101.953 92.8652C97.4733 102.072 101.331 154.545 101.885 164.859C102.666 179.382 102.452 210.602 102.452 210.602C102.452 210.602 111.046 209.87 108.076 201.464C107.874 200.89 107.406 186.44 107.502 185.821C108.25 180.921 117.684 180.448 117.74 180.295C121.205 171.06 116.872 165.845 117.391 163.744C117.898 161.684 125.3 147.189 128.825 146.247L131.911 163.615C131.911 163.615 138.557 150.408 141.028 149.091C144.383 147.306 146.256 153.111 148.411 155.22C151.207 157.959 152.736 148.966 151.753 143.403C150.633 137.061 145.151 124.529 152.3 126.388C156.387 127.45 167.457 149.003 184.63 149.003C196.572 149.003 196.758 137.42 193.47 132.779C192.35 133.801 190.951 134.483 189.213 134.629L189.221 134.613ZM114.817 139.965C114.817 139.965 114.817 139.949 114.817 139.945C114.528 140.018 114.231 140.062 113.941 140.062C111.628 140.062 110.175 138.196 109.973 136.01C109.537 131.296 108.876 126.606 108.448 121.887C108.25 119.706 110.413 117.835 112.421 117.835C112.955 117.835 113.438 117.94 113.878 118.118C114.888 114.692 116.718 104.843 118.282 108.972C121.958 118.659 127.17 135.15 127.629 142.418C127.958 147.593 114.401 145.169 114.821 139.965H114.817Z" fill="#616A91"/>
</g>
<g id="Group_6">
<path id="Vector_20" d="M149.694 115.294L150.169 114.919C149.927 114.708 149.654 114.523 149.365 114.373C149.397 114.506 149.428 114.64 149.472 114.765C149.535 114.947 149.603 115.112 149.694 115.294Z" fill="#280C61"/>
<path id="Vector_21" d="M192.698 131.51C192.338 131.155 192.001 130.831 191.676 130.464C191.031 129.745 190.472 128.949 190.029 128.088C189.134 126.367 188.73 124.424 188.508 122.477C188.286 120.526 188.242 118.546 188.199 116.575L188.116 110.64C188.08 108.665 188.072 106.677 187.902 104.69C187.735 102.706 187.454 100.727 186.991 98.7795C186.527 96.8363 185.882 94.9214 184.935 93.1399C183.989 91.3704 182.709 89.698 180.943 88.6153C180.068 88.078 179.07 87.7144 178.044 87.5932C177.529 87.5286 177.01 87.5286 176.499 87.573C175.953 87.6215 175.509 87.7346 175.042 87.7952C174.107 87.9285 173.172 87.9649 172.242 87.876C171.311 87.7912 170.392 87.5811 169.473 87.3225C167.635 86.7893 165.77 86.155 163.865 85.6864C161.964 85.2057 160.035 84.8461 158.094 84.5795C157.611 84.5108 157.124 84.4502 156.641 84.3977C156.169 84.3412 155.643 84.2927 155.14 84.2927C154.122 84.2886 153.06 84.4502 152.094 84.9188C151.124 85.3794 150.308 86.1752 149.769 87.0923C149.222 88.0093 148.906 89.0152 148.696 90.0171C148.292 92.033 148.292 94.0569 148.355 96.0485C148.43 98.0442 148.624 100.02 148.727 101.975C148.775 102.953 148.807 103.934 148.708 104.867C148.656 105.328 148.565 105.793 148.379 106.136C148.133 106.564 147.9 107.065 147.757 107.574C147.452 108.596 147.484 109.727 147.824 110.725C148.141 111.662 148.648 112.478 149.325 113.189C149.345 113.113 149.365 113.036 149.401 112.955L149.476 113.355C149.421 113.303 149.377 113.242 149.325 113.189C149.226 113.549 149.258 113.896 149.318 114.212C149.329 114.268 149.349 114.321 149.365 114.377C149.654 114.523 149.927 114.708 150.169 114.923L149.694 115.298C149.603 115.116 149.535 114.951 149.472 114.769C149.428 114.644 149.397 114.511 149.365 114.377C149.068 114.228 148.755 114.119 148.426 114.062C148.106 114.001 147.777 113.993 147.452 114.03C147.226 114.058 147.009 114.098 146.791 114.171C146.81 114.272 146.83 114.373 146.85 114.474L146.498 114.28C146.597 114.236 146.696 114.199 146.791 114.171C146.608 113.194 146.347 112.244 145.955 111.327C145.733 110.826 145.472 110.333 145.111 109.893C144.759 109.461 144.268 109.065 143.662 108.96C143.515 108.936 143.357 108.927 143.21 108.936L143.032 108.948C142.981 108.948 142.929 108.948 142.878 108.932C142.668 108.899 142.45 108.79 142.248 108.661C141.84 108.39 141.472 108.019 141.123 107.635C140.43 106.855 139.808 105.991 139.19 105.13C138.572 104.266 137.959 103.389 137.309 102.541C136.655 101.692 135.978 100.852 135.162 100.125C134.754 99.7652 134.307 99.4299 133.788 99.2036C133.657 99.1471 133.523 99.0986 133.384 99.0582L133.166 99.0097C133.095 99.0017 133.047 98.9895 132.96 98.9815C132.691 98.9532 132.426 98.933 132.156 98.9249C131.087 98.8845 130.029 98.9572 128.976 99.0501C126.877 99.2279 124.79 99.5309 122.71 99.4986C121.669 99.4824 120.663 99.3491 119.684 98.9855C118.698 98.6462 117.728 98.2422 116.761 97.8261C112.916 96.1495 109.137 94.2872 105.387 92.3966C105.185 92.1622 104.967 91.936 104.713 91.7381C104.448 91.532 104.147 91.3422 103.782 91.2694C103.418 91.1886 103.006 91.2896 102.709 91.4997C102.408 91.7098 102.186 91.9845 102.008 92.2673C101.652 92.8409 101.422 93.455 101.224 94.0731C101.03 94.6912 100.879 95.3214 100.749 95.9516C100.242 98.4765 100.008 101.026 99.8258 103.575C99.4812 108.677 99.4377 113.787 99.4614 118.89C99.5327 129.098 99.9605 139.295 100.483 149.483L101.331 164.754C101.576 169.832 101.683 174.926 101.759 180.02C101.897 190.209 101.889 200.405 101.866 210.598V211.208H102.46L133.994 211.151H134.537V210.602C134.525 206.715 134.394 202.837 134.228 198.959C134.057 195.085 133.824 191.215 133.574 187.344C133.071 179.725 132.481 172.118 131.808 164.515C131.689 164.515 131.57 164.523 131.451 164.528L131.78 164.16C131.792 164.277 131.8 164.398 131.812 164.515C135.586 164.435 139.345 164.14 143.091 163.784C146.957 163.413 150.815 162.948 154.664 162.411C158.51 161.869 162.348 161.255 166.166 160.532C169.984 159.805 173.786 158.985 177.541 157.943C179.414 157.413 181.28 156.844 183.102 156.121C184.915 155.393 186.678 154.513 188.318 153.418C189.949 152.323 191.462 151.014 192.702 149.459C193.942 147.912 194.9 146.114 195.439 144.183C196.512 140.333 195.934 135.986 193.657 132.678C193.367 132.27 193.055 131.878 192.706 131.518L192.698 131.51ZM195.098 144.078C194.571 145.956 193.629 147.706 192.413 149.213C191.197 150.727 189.712 152.008 188.104 153.079C186.492 154.149 184.749 155.014 182.951 155.725C181.153 156.432 179.295 156.997 177.43 157.514C173.691 158.536 169.893 159.332 166.079 160.039C162.265 160.738 158.431 161.336 154.589 161.853C150.747 162.37 146.894 162.811 143.036 163.162C139.178 163.505 135.309 163.788 131.443 163.837H131.087L131.115 164.204C131.721 171.924 132.239 179.657 132.663 187.389C132.877 191.255 133.055 195.121 133.202 198.991C133.344 202.676 133.447 206.36 133.451 210.036H133.994L133.455 210.585C133.455 210.4 133.455 210.218 133.455 210.036L103.058 209.984C103.058 210.186 103.058 210.388 103.058 210.594L102.464 209.984H103.062C103.137 199.985 103.093 189.986 102.931 179.988C102.836 174.886 102.733 169.783 102.444 164.677L101.477 149.411C100.875 139.238 100.372 129.054 100.222 118.869C100.155 113.779 100.17 108.681 100.448 103.603C100.602 101.07 100.804 98.529 101.275 96.0485C101.398 95.4305 101.537 94.8164 101.715 94.2185C101.897 93.6247 102.111 93.0348 102.424 92.5299C102.729 92.0249 103.184 91.6209 103.691 91.734C104.206 91.8391 104.678 92.2754 105.074 92.7238L105.105 92.7601L105.145 92.7803C108.915 94.6871 112.702 96.5576 116.579 98.2543C117.55 98.6704 118.528 99.0824 119.534 99.4299C120.536 99.8056 121.641 99.9591 122.702 99.9712C124.837 100.004 126.928 99.7005 129.015 99.5268C130.057 99.438 131.103 99.3693 132.136 99.4056C132.394 99.4137 132.651 99.4339 132.905 99.4622C132.948 99.4622 133.028 99.4784 133.091 99.4905L133.257 99.5309C133.372 99.5632 133.487 99.6036 133.598 99.6521C134.045 99.85 134.461 100.153 134.845 100.492C135.614 101.183 136.283 102.003 136.925 102.839C137.566 103.68 138.176 104.552 138.794 105.421C139.416 106.285 140.042 107.158 140.759 107.97C141.123 108.37 141.507 108.766 141.983 109.081C142.224 109.235 142.486 109.376 142.798 109.424C142.874 109.441 142.957 109.445 143.036 109.445L143.25 109.432C143.365 109.428 143.468 109.432 143.583 109.453C144.03 109.529 144.426 109.828 144.735 110.212C145.052 110.596 145.298 111.052 145.503 111.529C145.911 112.483 146.185 113.521 146.359 114.547L146.403 114.866L146.711 114.741C146.941 114.648 147.234 114.587 147.504 114.567C147.781 114.547 148.058 114.567 148.323 114.624C148.862 114.737 149.353 115.015 149.769 115.391L150.89 116.413L150.24 115.015C150.177 114.878 150.114 114.717 150.066 114.563C150.015 114.405 149.975 114.248 149.947 114.09C149.892 113.779 149.896 113.464 149.999 113.258L150.106 113.048L149.924 112.858C149.302 112.216 148.787 111.372 148.525 110.499C148.256 109.618 148.252 108.681 148.518 107.808C148.652 107.368 148.838 106.968 149.088 106.544C149.373 106.019 149.464 105.486 149.535 104.973C149.658 103.938 149.634 102.936 149.603 101.939C149.524 99.9429 149.365 97.9755 149.31 96.0162C149.25 94.061 149.27 92.0936 149.654 90.2272C149.852 89.298 150.145 88.3971 150.613 87.6215C151.076 86.8458 151.73 86.2197 152.522 85.844C153.314 85.4642 154.221 85.3188 155.136 85.3269C155.603 85.3269 156.043 85.3713 156.534 85.4319L157.968 85.6056C159.877 85.8561 161.77 86.1995 163.639 86.66C165.512 87.1084 167.334 87.7184 169.231 88.2557C170.182 88.5183 171.164 88.7365 172.17 88.8213C173.176 88.9102 174.19 88.8617 175.176 88.7163C175.671 88.6516 176.17 88.5264 176.594 88.49C177.046 88.4456 177.505 88.4456 177.953 88.4981C178.856 88.5951 179.731 88.8981 180.523 89.3707C182.115 90.316 183.343 91.8512 184.266 93.5277C185.189 95.2163 185.842 97.0666 186.318 98.9572C186.797 100.852 187.098 102.795 187.284 104.75C187.474 106.706 187.506 108.677 187.565 110.657L187.72 116.591C187.783 118.571 187.862 120.554 188.088 122.534C188.318 124.505 188.741 126.505 189.68 128.286C190.147 129.175 190.73 129.999 191.399 130.734C191.728 131.102 192.096 131.458 192.433 131.789C192.765 132.132 193.07 132.504 193.352 132.9C195.562 136.083 196.183 140.341 195.106 144.082L195.098 144.078Z" fill="#280C61"/>
<path id="Vector_22" d="M146.846 114.466C146.83 114.365 146.807 114.264 146.787 114.163C146.692 114.195 146.593 114.228 146.494 114.272L146.846 114.466Z" fill="#280C61"/>
<path id="Vector_23" d="M149.401 112.955C149.365 113.032 149.345 113.113 149.325 113.19C149.377 113.242 149.42 113.303 149.476 113.355L149.401 112.955Z" fill="#280C61"/>
</g>
<g id="Group_7">
<path id="Vector_24" d="M51.3403 93.0227C51.3403 93.0227 29.0223 96.4 17.7821 119.734C7.49638 141.088 29.4579 162.867 29.8897 177.402C30.3214 191.938 32.4799 203.387 30.1075 205.37C27.7311 207.354 27.2994 210.545 27.2994 210.545L103.545 210.646C104.947 189.041 104.298 182.226 102.61 172.963C98.1467 148.502 62.2914 107.219 51.3403 93.0308V93.0227Z" fill="#656E99"/>
<g id="Vector_25" style="mix-blend-mode:multiply" opacity="0.7">
<path d="M101.497 198.664C101.596 193.703 101.331 188.738 100.777 183.81C100.388 180.352 99.8894 176.93 99.5765 173.46C99.3309 170.729 99.2398 166.79 97.1843 164.738C95.6159 163.17 96.5506 161.041 98.0833 160.294C90.2691 144.345 74.7395 125.152 63.3449 110.681C62.7428 111.917 44.532 95.3175 55.586 122.768C57.7208 128.068 57.4871 129.171 55.6058 130.815C65.9985 130.832 74.4385 128.545 74.5138 129.018C74.5771 129.422 60.2516 135.825 64.8657 137.206C69.6462 138.64 73.987 153.499 71.7215 159.66C73.7454 159.433 75.8802 159.627 77.8842 159.223C81.2943 158.533 70.573 165.364 66.2519 165.663C63.7092 172.753 67.5827 188.08 61.6141 196.992C55.3167 206.396 28.6222 208.784 27.3548 210.214C27.3113 210.416 27.2954 210.537 27.2954 210.537L65.8083 210.582C73.183 207.406 80.2408 203.69 85.5718 197.291C87.8333 194.576 82.233 208.133 78.0347 210.602L87.2352 210.614C88.9819 206.821 88.5739 204.372 88.5739 204.372C88.5739 204.372 90.0354 205.908 89.7898 210.622L101.695 210.634C101.343 206.651 101.414 202.68 101.493 198.66L101.497 198.664Z" fill="#616A91"/>
</g>
<path id="Vector_26" d="M103.24 172.951C102.987 171.561 102.65 170.171 102.254 168.818C101.462 166.103 100.448 163.477 99.319 160.912C97.0456 155.785 94.3484 150.881 91.4453 146.126C88.5342 141.375 85.4252 136.758 82.2171 132.221C79.005 127.688 75.686 123.233 72.2799 118.853C68.8778 114.47 65.4162 110.14 61.911 105.845C58.4059 101.551 54.8414 97.3131 51.3877 92.9784L51.364 92.9501L51.3323 92.9582C40.0366 95.0952 29.6083 101.716 22.5426 111.04C20.7683 113.367 19.2236 115.872 17.881 118.482C16.5106 121.079 15.4848 123.919 14.9779 126.848C14.4551 129.777 14.4234 132.783 14.7561 135.728C15.0967 138.673 15.77 141.565 16.6849 144.361C18.5028 149.964 21.0891 155.228 23.6041 160.464C24.8715 163.077 26.1349 165.695 27.2241 168.373C28.2974 171.048 29.236 173.815 29.4935 176.667C29.5529 177.37 29.5608 178.109 29.6004 178.841L29.7113 181.03C29.7945 182.493 29.8895 183.951 29.9965 185.409L30.6896 194.143C30.7965 195.598 30.8955 197.052 30.951 198.507C30.9985 199.961 31.0302 201.419 30.8639 202.845C30.7728 203.548 30.6341 204.275 30.2856 204.841C30.1945 204.982 30.0955 205.104 29.9727 205.209C29.8381 205.322 29.6915 205.455 29.5648 205.584C29.2994 205.847 29.0578 206.13 28.836 206.429C28.3924 207.026 28.032 207.681 27.7508 208.368C27.4736 209.059 27.2439 209.757 27.1211 210.509L27.0854 210.723H27.3033L46.3657 210.796L65.4281 210.941L84.4905 211.086L103.553 211.192H104.064L104.099 210.67C104.472 205.091 104.797 199.508 104.896 193.905C104.995 188.31 104.828 182.654 103.953 177.095C103.743 175.706 103.505 174.324 103.252 172.947L103.24 172.951ZM103.699 193.893C103.636 199.286 103.359 204.687 103.03 210.085H103.545L102.998 210.602C103.01 210.428 103.018 210.254 103.03 210.085L84.4825 210.137L65.4201 210.234L46.3577 210.327L27.5211 210.351C27.5053 210.424 27.4894 210.493 27.4775 210.565L27.2953 210.351H27.5211C27.7746 209.03 28.3291 207.737 29.1331 206.671C29.3469 206.388 29.5806 206.126 29.8301 205.879C29.9569 205.754 30.0797 205.645 30.2222 205.528C30.3767 205.398 30.5074 205.241 30.6143 205.075C31.0302 204.397 31.1609 203.641 31.2678 202.91C31.45 201.435 31.4263 199.965 31.3867 198.498C31.3391 197.036 31.248 195.574 31.153 194.115C30.951 191.198 30.749 188.286 30.5747 185.373C30.4916 183.915 30.4163 182.46 30.3569 181.002L30.2777 178.816C30.25 178.089 30.2539 177.366 30.2024 176.611C29.9767 173.625 29.0499 170.785 28.0043 168.05C26.9429 165.315 25.7111 162.665 24.4794 160.027C21.9881 154.771 19.4454 149.536 17.6909 144.021C16.8195 141.27 16.1185 138.459 15.7779 135.602C15.4373 132.746 15.4531 129.85 15.9403 127.022C16.4156 124.19 17.374 121.475 18.7008 118.918C19.9959 116.341 21.5129 113.884 23.212 111.566C26.6141 106.928 30.8559 102.928 35.6522 99.8016C38.0444 98.2301 40.5713 96.8566 43.1972 95.7214C44.5121 95.1518 45.8468 94.6428 47.2053 94.1943C48.5519 93.75 49.9223 93.3541 51.3125 93.0874C58.0495 101.882 65.0201 110.483 71.6502 119.35C78.2842 128.222 84.7479 137.247 90.4512 146.748C93.2909 151.499 95.9802 156.355 98.2021 161.417C99.3111 163.946 100.297 166.531 101.066 169.173C101.45 170.498 101.767 171.823 102.012 173.181C102.258 174.55 102.491 175.92 102.697 177.289C103.105 180.032 103.39 182.788 103.541 185.555C103.691 188.326 103.723 191.106 103.691 193.889L103.699 193.893Z" fill="#280C61"/>
</g>
<path id="Vector_27" d="M126.944 134.54C125.768 129.644 124.405 124.796 122.809 120.025C121.213 115.258 119.387 110.568 117.252 106.027C119.328 110.596 121.094 115.306 122.623 120.09C124.152 124.873 125.451 129.733 126.56 134.633C127.669 139.533 128.592 144.478 129.348 149.447C130.093 154.412 130.707 159.413 131.047 164.414L131.839 164.362C131.427 159.32 130.75 154.327 129.934 149.35C129.111 144.377 128.12 139.436 126.948 134.54H126.944Z" fill="#280C61"/>
<path id="Vector_28" d="M56.5166 92.3118C56.5166 82.7253 61.7327 83.3797 61.7327 83.3797L61.8516 80.9478C61.8516 80.9478 53.3125 81.3194 45.2368 95.0467C45.2368 95.0467 49.2727 109.804 54.4888 116.668C59.7049 123.531 58.695 129.365 58.695 129.365C58.695 129.365 66.6003 126.105 74.5097 129.022C74.5097 129.022 68.9569 131.938 63.2378 134.168C63.2378 134.168 99.4813 151.766 103.521 175.273C103.521 175.273 102.733 152.788 79.9555 126.622C74.2324 120.045 56.5127 101.89 56.5127 92.3037L56.5166 92.3118Z" fill="#656E99"/>
<path id="Vector_29" d="M63.4277 134.673C63.7961 134.528 64.1644 134.378 64.5327 134.229C64.1803 134.047 63.8238 133.861 63.4673 133.683L63.4277 134.673Z" fill="#280C61"/>
<path id="Vector_30" d="M58.9722 129.417C58.988 129.264 58.9999 129.106 59.0118 128.953C58.8732 129.005 58.7346 129.05 58.5959 129.106L58.9722 129.417Z" fill="#280C61"/>
<path id="Vector_31" d="M74.3077 128.618C73.9829 128.783 73.6502 128.937 73.3254 129.098C73.674 129.207 74.0185 129.325 74.3631 129.454L74.3116 128.618H74.3077Z" fill="#280C61"/>
<path id="Vector_32" d="M100.935 161.894C99.5723 157.543 97.8415 153.317 95.8335 149.237C91.8055 141.068 86.6172 133.53 80.7475 126.63C79.2702 124.909 77.7494 123.245 76.2522 121.564C74.7512 119.883 73.262 118.199 71.7966 116.494C68.8618 113.089 66.0062 109.61 63.408 105.954C62.1089 104.128 60.8772 102.254 59.7959 100.302C58.7266 98.3553 57.7681 96.3152 57.3047 94.1902C57.1938 93.6651 57.1146 93.1237 57.0948 92.6066C57.079 92.0734 57.0948 91.4997 57.1186 90.9543C57.178 89.8515 57.3245 88.7567 57.6255 87.7225C57.9265 86.6964 58.3899 85.7187 59.0949 85.0037C59.4434 84.6441 59.8514 84.3573 60.2989 84.1634C60.5207 84.0664 60.7544 83.9937 60.992 83.9493C61.2178 83.9008 61.495 83.8847 61.6693 83.8968L62.2119 83.9372L62.2357 83.412L62.3426 80.98L62.3664 80.4064L61.8277 80.4508C61.2851 80.4952 60.8376 80.6003 60.3583 80.7255C59.891 80.8508 59.4355 81.0043 58.984 81.1739C58.0889 81.5173 57.2295 81.9415 56.4017 82.4222C54.7501 83.3837 53.249 84.5755 51.8747 85.8844C49.1261 88.5183 46.8923 91.633 44.9991 94.9093L44.9397 95.0144L44.9714 95.1234C45.8506 98.125 46.8527 101.074 47.9379 103.999C49.0389 106.916 50.2469 109.796 51.7084 112.551C52.4411 113.925 53.2213 115.282 54.1441 116.547C55.0828 117.775 55.9145 119.067 56.5958 120.449C57.277 121.827 57.8077 123.281 58.1404 124.784C58.3067 125.535 58.4176 126.295 58.4731 127.058C58.5246 127.818 58.5246 128.605 58.4176 129.325L58.3463 129.801L58.7939 129.636C60.0217 129.179 61.3326 128.852 62.6357 128.614C63.9427 128.375 65.2655 128.238 66.5923 128.206C68.8697 128.149 71.1589 128.428 73.3214 129.106C73.6501 128.945 73.9789 128.791 74.3036 128.626L74.3551 129.462C74.0145 129.333 73.666 129.215 73.3174 129.106C71.8005 129.854 70.2638 130.581 68.7271 131.28C66.8537 132.128 64.9566 132.928 63.0476 133.675L61.9149 134.12L63.0119 134.665C65.1863 135.748 67.325 136.964 69.44 138.196C71.555 139.436 73.6343 140.737 75.678 142.098C79.7613 144.821 83.6903 147.787 87.3697 151.047C91.053 154.295 94.4908 157.862 97.3544 161.881C98.7841 163.889 100.079 166.002 101.129 168.244C102.178 170.482 102.986 172.85 103.466 175.294L103.584 175.282C103.481 172.999 103.113 170.745 102.654 168.511C102.19 166.281 101.612 164.075 100.939 161.898L100.935 161.894ZM103.58 175.265L103.462 175.277C103.426 174.764 103.367 174.251 103.299 173.742C102.887 171.799 102.262 169.896 101.465 168.074C100.467 165.78 99.2356 163.586 97.8296 161.526C95.0057 157.401 91.5996 153.725 87.944 150.368C84.2685 147.027 80.3198 144.017 76.2285 141.238C72.454 138.693 68.5806 136.322 64.5328 134.229C64.1645 134.378 63.8001 134.528 63.4278 134.673L63.4674 133.683C63.8239 133.861 64.1764 134.047 64.5328 134.229C66.0893 133.595 67.6221 132.912 69.143 132.201C71.0243 131.328 72.8778 130.403 74.7155 129.426L75.6344 128.937L74.6601 128.589C72.058 127.66 69.2895 127.325 66.5686 127.45C65.2061 127.511 63.8516 127.688 62.5208 127.959C61.3287 128.206 60.1603 128.525 59.0078 128.949C58.9959 129.102 58.988 129.256 58.9682 129.413L58.5919 129.102C58.7305 129.046 58.8692 129.001 59.0078 128.949C59.1107 127.482 58.9127 126.064 58.6038 124.667C58.2473 123.127 57.6929 121.645 56.9839 120.243C56.2789 118.841 55.4115 117.524 54.461 116.3C53.5501 115.068 52.754 113.739 52.0331 112.369C50.6034 109.626 49.4152 106.75 48.3379 103.841C47.2765 100.969 46.3378 98.0402 45.5298 95.0871C45.51 95.1194 45.4902 95.1517 45.4665 95.1881L45.4942 94.974C45.5061 95.0144 45.5179 95.0507 45.5259 95.0911C47.4428 91.9199 49.6964 88.9385 52.4015 86.4661C53.7679 85.2178 55.2492 84.1109 56.8413 83.2181C57.6374 82.7737 58.4612 82.3818 59.3088 82.0708C59.7326 81.9173 60.1603 81.7799 60.596 81.6708C60.8336 81.6102 61.0831 81.5577 61.3208 81.5173L61.3524 80.9194L61.8673 81.4446C61.697 81.4567 61.5109 81.481 61.3208 81.5133L61.2495 82.8545C61.4158 82.8424 61.5901 82.8424 61.7881 82.8585L61.2218 83.3433L61.2495 82.8505C61.099 82.8626 60.9564 82.8787 60.8019 82.907C60.489 82.9636 60.188 83.0525 59.8949 83.1737C59.3088 83.412 58.782 83.7796 58.3384 84.22C57.4473 85.1087 56.9126 86.252 56.568 87.3872C56.2235 88.5345 56.0611 89.706 55.9858 90.8735C55.9502 91.4593 55.9304 92.0289 55.9423 92.6309C55.9621 93.249 56.0452 93.8388 56.1641 94.4245C56.6552 96.7555 57.6453 98.8724 58.7305 100.892C59.8316 102.908 61.0712 104.827 62.3782 106.693C65.0041 110.414 67.8795 113.917 70.8341 117.342C72.3154 119.047 73.8244 120.732 75.3373 122.404C76.8463 124.081 78.3791 125.733 79.8485 127.426C85.7617 134.176 90.954 141.598 95.1047 149.613C97.1801 153.616 98.9782 157.773 100.424 162.059C101.153 164.2 101.79 166.374 102.313 168.579C102.574 169.682 102.808 170.793 103.002 171.908C103.109 172.518 103.204 173.128 103.287 173.742C103.394 174.247 103.489 174.752 103.569 175.265H103.58Z" fill="#280C61"/>
<path id="Vector_33" d="M61.7961 82.8667C61.5981 82.8465 61.4238 82.8505 61.2575 82.8626L61.2297 83.3555L61.7961 82.8707V82.8667Z" fill="#280C61"/>
<path id="Vector_34" d="M61.3603 80.9194L61.3286 81.5173C61.5187 81.485 61.7049 81.4608 61.8752 81.4486L61.3603 80.9235V80.9194Z" fill="#280C61"/>
<path id="Vector_35" d="M45.4705 95.1881C45.4903 95.1558 45.5101 95.1235 45.5338 95.0871C45.5219 95.0467 45.5101 95.0104 45.5021 94.97L45.4744 95.1841L45.4705 95.1881Z" fill="#280C61"/>
<path id="Vector_36" d="M90.1816 83.2706C90.1816 83.2706 90.6886 84.6603 90.9421 85.4562C90.9421 85.4562 97.3107 91.3826 98.6811 108.172C100.051 124.962 95.0809 148.918 101.937 169.379C101.937 169.379 104.365 149.903 107.767 141.222C110.072 135.336 111.537 128.803 111.537 128.803C111.537 128.803 107.565 122.845 114.583 123.479C114.583 123.479 112.971 113.662 111.799 109.639C110.04 103.603 104.068 84.4947 90.1816 83.2706Z" fill="#656E99"/>
<path id="Vector_37" d="M106.464 124.756C108.725 123.891 111.569 123.208 114.583 123.479C114.583 123.479 113.949 119.613 113.185 115.739C111.161 116.417 107.153 121.172 106.464 124.751V124.756Z" fill="#B4AAC0"/>
<path id="Vector_38" d="M114.607 123.18C114.48 123.168 114.357 123.16 114.23 123.152C114.25 123.277 114.27 123.402 114.29 123.531L114.607 123.18Z" fill="#280C61"/>
<path id="Vector_39" d="M91.4292 85.2906C91.4134 85.2502 91.4015 85.2098 91.3856 85.1653C91.354 85.133 91.3223 85.1007 91.2866 85.0643L91.4292 85.2906Z" fill="#280C61"/>
<path id="Vector_40" d="M90.1382 83.7716C90.3996 83.7918 90.6649 83.8201 90.9263 83.8564C90.8353 83.6019 90.7402 83.3474 90.6491 83.0929L90.1421 83.7716H90.1382Z" fill="#280C61"/>
<path id="Vector_41" d="M112.353 111.032C111.296 106.94 109.921 102.944 108.167 99.1026C106.416 95.2729 104.246 91.5805 101.315 88.5062C99.8495 86.9791 98.1781 85.6258 96.3008 84.6158C94.4234 83.6099 92.3481 82.9676 90.2252 82.7656L89.4529 82.6929L89.7182 83.4443C89.9717 84.1674 90.2292 84.8986 90.4549 85.6177L90.4945 85.7389L90.5975 85.8439C90.8629 86.1106 91.152 86.458 91.4094 86.7933C91.6708 87.1326 91.9203 87.4881 92.158 87.8517C92.6372 88.5748 93.0729 89.3343 93.4769 90.11C94.2809 91.6653 94.9502 93.2974 95.5126 94.9699C96.6374 98.3148 97.3424 101.809 97.7662 105.332C98.1939 108.859 98.3246 112.414 98.2969 115.985C98.2811 119.556 98.1543 123.135 98.0197 126.715C97.7741 133.877 97.5246 141.076 97.9365 148.267C98.1543 151.859 98.5306 155.446 99.1484 158.989C99.7861 162.528 100.657 166.03 101.881 169.399L101.937 169.379L101.877 169.371C101.885 169.274 101.901 169.177 101.909 169.08C100.903 165.747 100.166 162.342 99.6831 158.9C99.1643 155.365 98.887 151.798 98.7722 148.227C98.5147 141.08 98.8712 133.926 99.2197 126.763C99.3782 123.18 99.5445 119.593 99.5683 115.989C99.5841 112.39 99.4732 108.762 98.994 105.17C98.5266 101.583 97.7741 98.0159 96.5859 94.5861C95.9918 92.8732 95.2869 91.1926 94.4353 89.5848C94.0076 88.7809 93.5442 87.9972 93.0333 87.2377C92.7758 86.8579 92.5065 86.4903 92.2213 86.1267C91.956 85.7955 91.6985 85.4884 91.3817 85.1693C91.3975 85.2097 91.4094 85.2501 91.4253 85.2945L91.2827 85.0683C91.3183 85.1006 91.346 85.137 91.3817 85.1693C91.2312 84.7249 91.0767 84.2886 90.9223 83.8563C90.6609 83.82 90.3995 83.7917 90.1341 83.7715L90.6411 83.0928C90.7361 83.3473 90.8272 83.6018 90.9183 83.8563C92.6412 84.0866 94.3284 84.6199 95.8849 85.4238C97.687 86.3408 99.3267 87.5932 100.784 89.0394C103.707 91.9441 105.925 95.5476 107.739 99.3046C108.642 101.191 109.422 103.138 110.131 105.11C110.484 106.096 110.816 107.093 111.129 108.095C111.438 109.101 111.755 110.099 111.997 111.117C112.48 113.157 112.896 115.221 113.264 117.294C113.617 119.237 113.929 121.192 114.226 123.148C114.353 123.156 114.476 123.164 114.603 123.176L114.286 123.527C114.266 123.402 114.246 123.277 114.226 123.148C111.993 122.974 109.739 123.285 107.6 123.931C106.468 124.271 105.367 124.703 104.293 125.208C103.22 125.721 102.194 126.278 101.184 126.973L100.554 127.41L101.236 127.801C102.052 128.27 102.915 128.529 103.77 128.735C104.63 128.937 105.493 129.07 106.357 129.167C107.22 129.26 108.088 129.312 108.951 129.341C109.581 129.361 110.21 129.361 110.844 129.353C110.9 129.127 110.955 128.9 111.01 128.674L111.553 129.341C111.315 129.349 111.082 129.349 110.844 129.353C110.1 132.488 109.224 135.614 108.183 138.661C107.901 139.477 107.608 140.289 107.295 141.097C106.979 141.925 106.701 142.757 106.444 143.597C105.929 145.278 105.505 146.974 105.125 148.683C104.365 152.097 103.751 155.535 103.208 158.981C102.709 162.334 102.246 165.695 101.901 169.068C101.929 169.161 101.957 169.254 101.984 169.347L101.929 169.367L101.988 169.375C102.535 165.933 103.101 162.495 103.763 159.078C104.396 155.656 105.089 152.246 105.929 148.877C106.353 147.197 106.804 145.524 107.319 143.876C107.581 143.056 107.858 142.24 108.175 141.448C108.499 140.636 108.804 139.816 109.097 138.992C110.262 135.687 111.24 132.334 112.052 128.916L112.218 128.222L111.509 128.25C110.682 128.282 109.826 128.278 108.987 128.258C108.143 128.234 107.303 128.181 106.468 128.096C105.632 128.016 104.804 127.898 103.992 127.721C103.469 127.604 102.951 127.458 102.463 127.268C102.222 127.426 101.984 127.591 101.755 127.757L101.703 126.929C101.945 127.058 102.198 127.167 102.46 127.268C103.164 126.808 103.913 126.379 104.67 126C105.691 125.483 106.745 125.038 107.83 124.683C109.993 123.968 112.282 123.596 114.551 123.77L114.939 123.798L114.868 123.418C114.084 119.273 113.331 115.129 112.349 111.02L112.353 111.032Z" fill="#280C61"/>
<path id="Vector_42" d="M101.759 127.773C101.988 127.604 102.226 127.442 102.468 127.284C102.206 127.183 101.949 127.074 101.711 126.945L101.763 127.773H101.759Z" fill="#280C61"/>
<path id="Vector_43" d="M111.018 128.686C110.967 128.913 110.907 129.139 110.852 129.365C111.09 129.365 111.323 129.365 111.561 129.353L111.018 128.686Z" fill="#280C61"/>
<path id="Vector_44" d="M183.284 93.4227C183.284 93.4227 184.08 84.7654 179.767 78.9642C175.453 73.163 171.129 74.0114 169.168 75.5101C167.41 73.2438 147.325 73.9144 147.812 80.1115C148.074 83.408 147.143 87.6256 150.521 92.5218C150.521 92.5218 148.446 98.828 156.181 101.838C160.344 103.458 166.518 110.034 174.634 105.3C174.634 105.3 181.581 102.052 182.044 96.598C182.044 96.598 185.03 94.776 183.284 93.4267V93.4227Z" fill="#E1DCE6"/>
<path id="Vector_45" d="M161.56 102.173C159.053 100.153 155.714 98.5937 155.484 94.9013C155.413 93.7338 155.647 92.7198 156.11 91.8997C155.35 91.2775 154.807 90.3605 154.597 89.0718C154.193 86.5752 155.203 83.8968 155.979 81.5658C157.025 78.4229 158.819 77.7401 161.71 76.6938C163.643 75.9909 165.675 75.5021 167.588 74.7668C162.443 73.5145 147.389 74.7305 147.812 80.1075C148.074 83.4039 147.143 87.6215 150.522 92.5178C150.522 92.5178 148.446 98.8239 156.181 101.834C159.869 103.268 165.136 108.584 171.925 106.496C171.394 106.459 170.867 106.415 170.352 106.358C166.796 105.958 164.328 104.411 161.556 102.173H161.56Z" fill="white"/>
<path id="Vector_46" d="M150.205 92.4087C150.189 92.4612 150.177 92.5178 150.161 92.5703C150.193 92.6188 150.221 92.6672 150.248 92.7157L150.205 92.4127V92.4087Z" fill="#280C61"/>
<path id="Vector_47" d="M183.727 93.2369C183.719 93.3136 183.719 93.3863 183.711 93.4631L183.541 93.0712C183.604 93.1197 183.664 93.1763 183.727 93.2369C183.818 92.1138 183.818 91.019 183.767 89.9121C183.707 88.7325 183.585 87.5569 183.379 86.3894C182.955 84.0624 182.214 81.7517 180.975 79.6873C180.349 78.6531 179.62 77.7159 178.792 76.8392C177.965 75.9707 177.01 75.1991 175.917 74.6295C174.832 74.0639 173.584 73.7124 172.325 73.7649C171.224 73.8053 170.134 74.1285 169.192 74.7345C169.338 74.8274 169.485 74.9446 169.635 75.1223L168.8 75.0132C168.926 74.9163 169.061 74.8234 169.196 74.7345C169.061 74.6456 168.926 74.585 168.796 74.5244C168.526 74.4073 168.265 74.3224 168.004 74.2497C167.485 74.1124 166.974 74.0316 166.463 73.9669C165.445 73.8417 164.431 73.7973 163.425 73.8013C161.409 73.8013 159.405 74.0073 157.425 74.3305C155.448 74.6658 153.48 75.1223 151.623 75.902C150.696 76.2858 149.789 76.7544 149.016 77.421C148.632 77.7522 148.288 78.1441 148.05 78.6046C147.812 79.0652 147.705 79.5944 147.753 80.1115C147.828 81.1861 147.789 82.2647 147.797 83.3474C147.789 84.4301 147.828 85.5168 147.975 86.5994C148.113 87.6821 148.371 88.7527 148.759 89.7828C149.123 90.7564 149.603 91.6896 150.157 92.5703C150.173 92.5178 150.185 92.4653 150.201 92.4087L150.244 92.7117C150.213 92.6632 150.185 92.6147 150.157 92.5663C149.967 93.2207 149.884 93.859 149.868 94.5215C149.86 95.2325 149.935 95.9557 150.137 96.6505C150.525 98.0443 151.357 99.3006 152.423 100.234C153.48 101.183 154.732 101.846 156.003 102.339C157.163 102.803 158.3 103.498 159.457 104.156C161.766 105.469 164.237 106.754 166.946 107.122C168.289 107.304 169.667 107.255 170.986 106.96C172.301 106.661 173.556 106.144 174.713 105.457L174.729 105.449C174.729 105.449 174.721 105.449 174.717 105.453C175.62 105.013 176.463 104.492 177.275 103.914C178.087 103.336 178.868 102.702 179.573 101.979C180.281 101.264 180.923 100.468 181.426 99.5673C181.901 98.7229 182.226 97.7736 182.357 96.7919C182.309 96.8202 182.27 96.8525 182.222 96.8808L182.385 96.6142C182.377 96.6748 182.365 96.7313 182.357 96.7919C182.618 96.6263 182.86 96.4526 183.097 96.2506C183.371 96.0163 183.636 95.7577 183.858 95.4345C184.076 95.1194 184.282 94.6993 184.23 94.1983C184.191 93.7944 183.973 93.4671 183.731 93.2288L183.727 93.2369ZM183.216 95.0063C183.062 95.2527 182.848 95.487 182.618 95.7052C182.389 95.9193 182.123 96.1294 181.87 96.299L181.715 96.4L181.707 96.5616C181.652 97.511 181.371 98.4442 180.935 99.3047C180.499 100.165 179.917 100.957 179.256 101.672C178.586 102.383 177.846 103.025 177.058 103.603C176.265 104.173 175.43 104.698 174.562 105.126H174.554L174.55 105.134C173.41 105.789 172.186 106.302 170.907 106.544C169.631 106.799 168.313 106.79 167.041 106.544C164.479 106.059 162.181 104.726 159.948 103.312C159.385 102.957 158.815 102.609 158.233 102.266C157.651 101.927 157.045 101.591 156.391 101.337C155.191 100.864 154.066 100.25 153.108 99.434C152.161 98.6139 151.405 97.5756 151.017 96.3798C150.62 95.2002 150.549 93.8388 150.842 92.6269L150.886 92.441L150.799 92.3239C150.173 91.4795 149.63 90.5706 149.199 89.601C148.767 88.6355 148.45 87.6094 148.252 86.559C148.054 85.5047 147.987 84.4301 147.955 83.3514C147.935 82.2728 147.963 81.1901 147.876 80.1075C147.84 79.6106 147.947 79.1137 148.181 78.6774C148.414 78.2411 148.751 77.8694 149.127 77.5543C149.896 76.9281 150.803 76.508 151.725 76.1646C153.595 75.5182 155.555 75.187 157.516 74.989C159.48 74.7991 161.457 74.7709 163.413 74.8517C164.392 74.9042 165.366 74.9769 166.316 75.1264C166.792 75.2031 167.259 75.296 167.699 75.4253C167.916 75.4899 168.13 75.5627 168.316 75.6475C168.499 75.7283 168.665 75.8454 168.697 75.8939L169.014 76.3949L169.532 76.007C170.336 75.4051 171.358 75.0779 172.372 75.0536C173.39 75.0334 174.416 75.296 175.351 75.7848C176.289 76.2696 177.137 76.9604 177.909 77.7401C178.673 78.5239 179.382 79.4005 179.969 80.3337C181.145 82.2122 181.886 84.3775 182.329 86.5994C182.777 88.8173 182.963 91.1321 182.856 93.3863L182.844 93.6449L183.026 93.7782C183.248 93.9398 183.394 94.1256 183.422 94.3195C183.458 94.5094 183.379 94.768 183.22 95.0144L183.216 95.0063Z" fill="#280C61"/>
<path id="Vector_48" d="M163.469 132.916C161.774 130.997 160.158 129.009 158.597 126.977C157.037 124.945 155.532 122.869 154.074 120.76C152.617 118.651 151.199 116.51 149.852 114.337L149.187 114.773C150.601 116.934 152.078 119.039 153.595 121.116C155.112 123.192 156.676 125.232 158.292 127.228C159.908 129.224 161.58 131.175 163.326 133.049C165.073 134.924 166.899 136.73 168.851 138.378C166.942 136.677 165.168 134.827 163.473 132.912L163.469 132.916Z" fill="#280C61"/>
<path id="Vector_49" d="M146.403 119.213C146.375 120.889 146.319 122.566 146.248 124.243C146.106 127.596 145.888 130.949 145.603 134.294C146.018 130.961 146.371 127.62 146.644 124.267C146.783 122.59 146.902 120.914 146.997 119.233C147.092 117.553 147.167 115.876 147.195 114.179L146.403 114.187C146.442 115.852 146.43 117.532 146.403 119.209V119.213Z" fill="#280C61"/>
<g id="Group_8">
<path id="Vector_50" d="M79.3931 19.2234C56.6751 10.962 42.1238 38.2509 49.4628 53.0286C51.9897 58.1188 48.3737 60.676 50.4768 63.8957C52.5838 67.1154 56.1404 60.1144 57.1543 65.0228C58.0415 69.3293 60.6555 69.4585 60.6555 69.4585C63.2616 71.1391 62.818 73.769 62.818 73.769C65.8796 72.4844 64.624 69.9433 64.624 69.9433C64.624 69.9433 94.6851 60.9588 98.8952 56.8664C103.105 52.7741 107.355 42.0726 98.8952 28.2685C90.9304 15.2724 79.3931 19.2234 79.3931 19.2234Z" fill="#FFD38A"/>
<path id="Vector_51" d="M79.3931 19.2233C66.7271 14.6139 56.5999 21.0655 51.3877 30.2318C53.6136 28.0382 57.8791 24.3822 60.7902 23.1864C63.1863 22.2007 65.6855 21.4493 68.2361 21.013C71.2699 20.4959 73.9315 21.0089 76.8306 21.8977C78.2168 22.3219 81.5992 24.6124 81.5992 24.6124C81.5992 24.6124 82.5735 22.3623 83.6983 21.4129C85.8529 19.5909 93.2751 22.1401 93.6711 22.233C86.6807 16.7308 79.3931 19.2193 79.3931 19.2193V19.2233Z" fill="#FFF3B5"/>
<path id="Vector_52" d="M93.984 22.4875C93.679 22.8552 98.008 29.7148 88.1619 28.8301C85.0449 28.5513 81.6586 25.4972 81.6229 26.6324C81.4289 33.3183 78.3634 34.611 73.1868 36.9259C69.4916 38.5822 59.293 38.7963 55.2295 37.6934C52.9878 37.0834 51.1065 35.6533 49.649 33.8354C47.2528 39.7699 46.8092 46.3225 48.8489 51.6025C49.851 51.8166 50.7777 52.4751 51.3995 53.7153C52.8412 56.5755 54.473 59.8882 55.5107 63.2493C56.2355 63.0958 56.8295 63.4351 57.1583 65.0228C58.0454 69.3292 60.6594 69.4585 60.6594 69.4585C63.2655 71.1391 62.8219 73.769 62.8219 73.769C65.8835 72.4843 64.628 69.9433 64.628 69.9433C64.628 69.9433 94.689 60.9587 98.8991 56.8664C103.109 52.7741 107.359 42.0726 98.8991 28.2685C97.3584 25.7558 95.687 23.8813 93.9879 22.4875H93.984Z" fill="#D6A76F"/>
<path id="Vector_53" d="M60.489 69.7291C60.489 69.7291 60.5207 69.7493 60.5365 69.7614C60.5722 69.7655 60.6039 69.7736 60.6435 69.7776L60.493 69.7291H60.489Z" fill="#280C61"/>
<path id="Vector_54" d="M79.4842 18.9608C79.4565 18.9527 79.4327 18.9446 79.405 18.9325C79.3693 18.9406 79.3376 18.9487 79.302 18.9567H79.4802L79.4842 18.9608Z" fill="#280C61"/>
<path id="Vector_55" d="M63.012 73.8053C63.0278 73.6882 63.0437 73.571 63.0476 73.4579C62.9486 73.5064 62.8457 73.5468 62.7427 73.5872L63.012 73.8053Z" fill="#280C61"/>
<path id="Vector_56" d="M98.7803 27.6787C97.7307 26.0789 96.5346 24.568 95.1405 23.2551C93.7503 21.9462 92.1819 20.8231 90.459 20.003C88.7401 19.183 86.8786 18.6739 84.9855 18.5002C83.124 18.3427 81.2466 18.4235 79.405 18.9284C79.4327 18.9365 79.4565 18.9446 79.4842 18.9567H79.306C79.3416 18.9446 79.3733 18.9365 79.4089 18.9284C76.2206 17.7367 72.7868 17.1065 69.3529 17.3529C65.8953 17.5832 62.5051 18.7588 59.5623 20.6332C56.6077 22.4996 54.1086 25.0609 52.1243 27.9494C50.144 30.8499 48.6667 34.102 47.7835 37.5278C46.9161 40.9495 46.6349 44.5692 47.2369 48.0959C47.5419 49.8533 48.0766 51.5863 48.8647 53.1901C49.2489 53.9415 49.5262 54.6808 49.6806 55.4686C49.8351 56.2523 49.8549 57.0522 49.7638 57.8642C49.6767 58.6803 49.4786 59.5084 49.344 60.4053C49.2093 61.29 49.1935 62.3201 49.5697 63.2412C49.6608 63.4715 49.7638 63.6856 49.8866 63.8997C49.9579 64.0209 50.0014 64.0896 50.0767 64.2027C50.148 64.3077 50.2232 64.4087 50.3064 64.5057C50.4767 64.7036 50.6826 64.8895 50.9322 65.0268C51.1777 65.1682 51.4668 65.253 51.7441 65.2692C52.3065 65.3015 52.7857 65.1238 53.2056 64.9339C53.6254 64.74 54.0016 64.5097 54.366 64.2956C54.7264 64.0815 55.0868 63.8755 55.4195 63.7543C55.5859 63.6937 55.7443 63.6654 55.8631 63.6735C55.9859 63.6815 56.077 63.7179 56.172 63.8068C56.3701 63.9805 56.5364 64.3481 56.6434 64.7238C56.7463 65.0834 56.8374 65.5641 56.9761 65.9842C57.2493 66.8447 57.6414 67.689 58.2434 68.396C58.5444 68.7475 58.8969 69.0626 59.293 69.305C59.6732 69.5272 60.0574 69.6968 60.5327 69.7574C60.5168 69.7494 60.501 69.7372 60.4851 69.7251L60.6357 69.7736C60.6 69.7736 60.5644 69.7615 60.5287 69.7574C61.1862 70.1695 61.7525 70.727 62.1209 71.4138C62.311 71.7652 62.4536 72.145 62.5367 72.5368C62.6199 72.9247 62.6556 73.3529 62.6199 73.7326L62.5843 74.0881L62.8892 73.9508C63.2615 73.7811 63.6219 73.5751 63.9428 73.3125C64.2636 73.0499 64.5448 72.7186 64.727 72.3348C64.9131 71.9551 64.9923 71.5228 64.9725 71.1067C64.9527 70.7149 64.8616 70.3351 64.6992 69.9796C71.9313 68.0122 79.104 65.8186 86.1816 63.3058C87.952 62.6635 89.7184 62.005 91.469 61.2981C93.2196 60.587 94.9622 59.8518 96.6653 58.9671C97.5168 58.5106 98.3485 58.0581 99.1526 57.3552C99.8813 56.6684 100.499 55.9009 101.05 55.0848C102.151 53.4527 102.935 51.6267 103.458 49.7401C104.487 45.9467 104.373 41.919 103.45 38.1661C102.531 34.3969 100.828 30.8944 98.7684 27.6787H98.7803ZM102.519 49.4654C102 51.251 101.22 52.9599 100.19 54.4788C99.6754 55.2343 99.0892 55.9493 98.4396 56.5634C97.8178 57.1088 96.9861 57.5774 96.1861 58.0177C94.5543 58.8903 92.8354 59.6458 91.1086 60.3689C89.3817 61.088 87.6311 61.7707 85.8766 62.4292C78.8505 65.0712 71.7333 67.4871 64.6081 69.8908L64.5448 69.911L64.5725 69.9756C64.8616 70.6987 64.8656 71.5552 64.4972 72.2177C64.1844 72.7913 63.6418 73.1872 63.0516 73.4579C63.0437 73.571 63.0318 73.6882 63.016 73.8053L62.7467 73.5872C62.8496 73.5468 62.9526 73.5023 63.0516 73.4579C63.0714 73.1186 63.0516 72.7913 62.9962 72.456C62.9249 72.0117 62.7902 71.5794 62.5962 71.1714C62.2041 70.3553 61.5624 69.6807 60.8258 69.1919L60.7703 69.1555L60.6713 69.1434C60.3505 69.103 59.9584 68.9374 59.6455 68.7273C59.3247 68.5132 59.0356 68.2425 58.79 67.9314C58.2989 67.3093 57.9702 66.5458 57.7523 65.7499C57.6335 65.3419 57.586 64.9702 57.4672 64.4936C57.3404 64.0492 57.1978 63.5644 56.7701 63.1402C56.5562 62.9301 56.2354 62.7847 55.9344 62.7645C55.6334 62.7403 55.3641 62.8009 55.1304 62.8776C54.6591 63.0352 54.2749 63.2614 53.8987 63.4715C53.5264 63.6815 53.1659 63.8916 52.8095 64.0492C52.457 64.2067 52.1005 64.3077 51.8114 64.2794C51.5263 64.2552 51.2847 64.1098 51.0668 63.8431C51.0114 63.7785 50.9599 63.7058 50.9124 63.6331C50.8688 63.5644 50.8015 63.4513 50.7658 63.3866C50.6787 63.225 50.5955 63.0513 50.5321 62.8736C49.9816 61.4637 50.6708 59.8195 50.9044 58.0218C51.0272 57.1209 51.0312 56.1675 50.8569 55.2464C50.6906 54.3334 50.3579 53.4366 49.9618 52.6488C49.237 51.15 48.7578 49.5381 48.4845 47.8859C47.9261 44.5772 48.1835 41.1353 48.9994 37.859C49.8113 34.5747 51.1975 31.4317 53.0709 28.628C54.9443 25.8244 57.3285 23.3722 60.1129 21.526C62.8932 19.6758 66.1092 18.5245 69.4242 18.1932C72.7432 17.8579 76.1295 18.379 79.306 19.494L79.3931 19.5263L79.4842 19.4981C80.3357 19.2233 81.2664 19.0618 82.1814 18.9729C83.1002 18.884 84.031 18.8719 84.9538 18.9527C86.7994 19.1062 88.6173 19.5869 90.3046 20.3747C93.7028 21.9341 96.4395 24.7377 98.4278 27.9292C100.428 31.1327 101.98 34.6555 102.784 38.3438C103.592 42.0241 103.584 45.8983 102.523 49.4775L102.519 49.4654Z" fill="#280C61"/>
<g id="Group_9">
<path id="Vector_57" d="M100.159 49.7198C99.9091 44.157 98.3724 40.602 98.3724 40.602C94.9702 33.6252 77.3693 37.7822 77.3693 37.7822C77.3693 37.7822 71.773 39.8142 67.1509 41.6079C62.5289 43.4016 54.2592 56.1189 58.8931 60.8415C63.527 65.564 65.6618 75.9948 72.6364 80.2003C78.7714 83.8967 90.2452 86.5387 95.3227 82.8585C98.0358 80.8911 97.2872 77.7077 98.7606 74.5082C101.204 69.22 102.523 63.8552 101.418 57.6864C100.86 54.5717 100.408 55.2827 100.159 49.7198Z" fill="#E9B590"/>
<path id="Vector_58" d="M77.4404 38.1095C77.4404 38.1095 77.4523 38.1095 77.4602 38.1055L77.4761 38.0974L77.4404 38.1095Z" fill="#280C61"/>
<path id="Vector_59" d="M100.147 48.2938C99.8893 45.6639 99.3744 43.0461 98.408 40.5859C97.9961 39.7213 97.3347 38.9942 96.5584 38.4528C95.7821 37.9075 94.9108 37.5237 94.0157 37.2449C92.2176 36.6955 90.3402 36.4814 88.4708 36.4127C86.5975 36.3481 84.7241 36.441 82.8587 36.6228C80.9932 36.8127 79.1397 37.0631 77.294 37.459H77.2782L77.2584 37.4712C74.8147 38.3397 72.367 39.2043 69.9352 40.1132L68.1133 40.804L67.2024 41.1514C66.9053 41.2605 66.5568 41.414 66.2637 41.5797C65.0716 42.2705 64.0893 43.1956 63.1824 44.1692C62.2793 45.1509 61.4635 46.2053 60.7228 47.3122C59.9822 48.4191 59.3129 49.5785 58.7544 50.7945C58.192 52.0105 57.7207 53.2749 57.4236 54.6C57.1345 55.921 56.9999 57.3228 57.3207 58.7045C57.4831 59.3872 57.7761 60.0578 58.2039 60.6274C58.3069 60.7688 58.4296 60.9102 58.5485 61.0354L58.8811 61.3869C59.099 61.6172 59.3049 61.8636 59.503 62.11C60.303 63.1079 60.9921 64.2107 61.6456 65.3378C62.9487 67.5961 64.0775 69.9796 65.4043 72.2621C66.7231 74.5405 68.2123 76.7705 70.161 78.5642C71.1313 79.4651 72.2284 80.2165 73.3888 80.8184C74.5414 81.4365 75.7335 81.9738 76.9455 82.4384C78.1614 82.903 79.401 83.3029 80.6566 83.6342C81.9121 83.9735 83.1795 84.2563 84.4667 84.4543C85.7499 84.6562 87.049 84.7774 88.352 84.7896C89.6551 84.8017 90.966 84.7128 92.2493 84.4219C93.5246 84.1311 94.7999 83.6301 95.8494 82.7575C96.3722 82.3132 96.8079 81.7557 97.1168 81.1376C97.4297 80.5195 97.6278 79.865 97.7862 79.2146C98.0991 77.9138 98.3011 76.6211 98.7407 75.4212C98.8516 75.1182 98.9704 74.8395 99.109 74.5365L99.517 73.6316C99.7823 73.0256 100.032 72.4116 100.269 71.7894C101.224 69.309 101.846 66.6791 102.04 64.0087C102.246 61.3384 101.953 58.6479 101.268 56.0745C100.365 53.586 100.376 50.9359 100.139 48.2979L100.147 48.2938ZM101.422 63.9522C101.208 66.5498 100.523 69.0827 99.6318 71.5309C99.4061 72.1409 99.1645 72.7469 98.907 73.3488L98.511 74.2456C98.3763 74.5405 98.2377 74.8678 98.1268 75.1869C97.6594 76.4675 97.4891 77.8088 97.2159 79.0732C97.0772 79.7034 96.903 80.3215 96.6336 80.8871C96.3683 81.4527 95.996 81.9576 95.5326 82.3697C94.59 83.1938 93.3939 83.7109 92.1661 84.022C89.6828 84.6441 87.0569 84.5472 84.5142 84.1795C81.9636 83.8119 79.4525 83.1252 77.0484 82.1798C74.6602 81.2184 72.272 80.0913 70.4224 78.2774C68.5529 76.4877 67.139 74.2618 65.8835 71.9793C64.628 69.6847 63.519 67.3012 62.2397 64.9864C61.5981 63.831 60.905 62.6918 60.0733 61.6374C59.8634 61.3748 59.6495 61.1162 59.4237 60.8698L59.0831 60.5062C58.9802 60.3931 58.8891 60.2881 58.798 60.1628C58.4415 59.6821 58.1999 59.1165 58.0613 58.5186C57.788 57.3148 57.9108 56.018 58.196 54.7778C58.4851 53.5294 58.9485 52.3175 59.499 51.154C60.6159 48.8271 62.0496 46.6375 63.7765 44.7388C64.6438 43.8016 65.5904 42.9128 66.6519 42.2988C66.9251 42.1412 67.1707 42.0321 67.4836 41.915L68.3906 41.5635L70.2045 40.8687L77.4524 38.1054C77.4524 38.1054 77.4405 38.1054 77.4326 38.1095L77.4683 38.0973L77.4524 38.1054C79.2426 37.6893 81.0724 37.3459 82.9022 37.1035C84.7439 36.8571 86.5975 36.7036 88.455 36.7076C90.3086 36.7157 92.1819 36.8571 93.9642 37.3944C94.8514 37.661 95.7187 38.0287 96.4871 38.5538C97.2555 39.075 97.9129 39.7779 98.3288 40.6222C99.2635 43.0744 99.7467 45.6962 99.9724 48.31C100.067 49.6189 100.06 50.944 100.167 52.265C100.218 52.9275 100.281 53.586 100.404 54.2485C100.519 54.9111 100.717 55.5494 100.871 56.1796C101.47 58.7206 101.628 61.3586 101.414 63.9522H101.422Z" fill="#280C61"/>
</g>
<g id="Vector_60" style="mix-blend-mode:multiply">
<path d="M94.1186 67.475C92.7126 66.0206 91.659 62.1424 92.1699 60.1629C92.8591 57.5006 95.9127 56.0261 98.3485 55.0081C98.903 54.394 99.8654 54.1557 100.638 54.4627C100.44 53.5699 100.277 52.3418 100.158 49.72C99.909 44.1571 98.3723 40.6021 98.3723 40.6021C97.9089 39.6487 97.1722 38.9134 96.2613 38.3357C96.0791 38.9215 89.35 35.7624 87.0212 37.5116C84.4349 39.4588 73.9472 42.8563 71.7966 43.9834C62.2159 49.0009 60.089 54.596 58.7226 51.9015C57.2889 55.3555 56.9166 58.8257 58.889 60.8375C63.0872 65.1197 65.7171 80.2246 79.7772 83.1333C82.1694 83.6302 90.1421 78.4754 92.2531 77.3079C95.0889 75.7404 96.0276 75.8657 96.5741 75.2395C97.2593 74.4558 98.293 71.3289 100.4 68.9091C100.404 68.901 101.252 65.3864 101.351 63.4271C101.089 63.9603 101.172 64.3401 100.729 64.8733C99.1763 66.7397 96.5464 69.9877 94.1146 67.475H94.1186ZM63.6575 51.6025C67.6142 50.843 80.9099 44.9408 84.2487 42.4564C92.2175 36.5299 96.7524 46.3144 94.5424 48.2131C93.4492 49.1544 87.2746 53.0568 88.245 58.4621C88.5024 59.8922 89.2589 61.1405 89.849 62.5019C90.6689 64.3885 91.0214 65.4146 92.0907 67.0952C92.8512 68.291 92.4868 69.7534 91.6907 70.0039C90.5857 70.3473 88.6886 69.7453 88.0073 67.5598C87.8489 67.0589 86.6251 64.7642 86.1855 63.7906C85.6112 62.51 84.2289 59.3468 83.2507 58.4985C82.1298 57.5289 70.6995 60.6921 68.64 61.088C65.82 61.6293 60.8138 52.1519 63.6575 51.6025ZM84.6527 68.9454C83.8725 77.7038 77.3573 81.4851 71.9114 77.6957C66.9884 74.2659 61.3564 63.5079 68.4697 64.2391C69.8797 64.3845 75.3691 66.6791 77.888 64.9541C81.1713 62.7039 82.613 60.272 82.6209 62.5504C82.6288 64.4815 84.7993 67.277 84.6488 68.9454H84.6527ZM93.0809 75.4213C92.4432 75.7647 91.7382 75.9545 91.0293 76.0596C90.3124 76.1686 89.5956 76.2212 88.8708 76.2212C88.3836 76.2212 84.6844 75.2839 84.7082 74.7749C84.728 74.2618 88.3519 74.3305 88.8708 74.3305C89.1638 74.3305 89.4569 74.3225 89.75 74.3063C89.9124 74.2982 90.0748 74.2821 90.2372 74.2659C90.2966 74.2578 90.356 74.2538 90.4154 74.2457C90.4154 74.2457 90.4194 74.2457 90.4273 74.2457C90.459 74.2376 90.5461 74.2336 90.558 74.2295C90.8748 74.1811 91.1877 74.1205 91.4966 74.0316C91.6392 73.9912 91.7779 73.9467 91.9165 73.8942C91.9323 73.8862 91.9521 73.8781 91.96 73.874C92.0274 73.8417 92.0947 73.8094 92.162 73.773C92.5898 73.5428 94.7166 72.1167 94.9503 72.5813C95.1721 73.0257 93.5364 75.1708 93.0769 75.4172L93.0809 75.4213Z" fill="#D9C3B4"/>
</g>
<g id="Group_10">
<path id="Vector_61" d="M79.5713 62.502C79.1633 62.7727 78.7712 63.1241 78.4068 63.3585C78.0345 63.6008 77.6226 63.7826 77.187 63.8998C76.3156 64.1503 75.369 64.1826 74.4264 64.1422C73.4759 64.0897 72.5214 63.9523 71.551 63.7786C72.4144 64.2755 73.3689 64.5946 74.3591 64.7724C75.3453 64.9461 76.3869 64.9582 77.4008 64.6835C77.9038 64.534 78.3949 64.3159 78.8306 63.9967C78.9415 63.9159 79.0524 63.823 79.1356 63.7463L79.4128 63.4958L79.9554 63.0029C80.3198 62.6798 80.6802 62.3485 81.0486 62.0334C81.4209 61.7183 81.7852 61.387 82.213 61.1527C81.7139 61.2254 81.2664 61.4799 80.8268 61.7102C80.3951 61.9566 79.9752 62.2233 79.5713 62.5141V62.502Z" fill="#280C61"/>
<path id="Vector_62" d="M97.5524 54.5556C97.3108 54.8627 97.0256 55.1212 96.7206 55.3555C96.1107 55.8241 95.4136 56.1796 94.7007 56.4988C94.3443 56.6604 93.9759 56.8018 93.6036 56.9432C93.2432 57.0886 92.8472 57.2017 92.463 57.3714C92.0788 57.533 91.7026 57.7269 91.3501 57.9612C91.1758 58.0864 91.0055 58.2117 90.855 58.3652C90.7045 58.5187 90.5579 58.6884 90.4985 58.8944C90.7797 58.5955 91.16 58.4541 91.5283 58.3127C91.8966 58.1713 92.2768 58.0662 92.661 57.9652C93.0412 57.8723 93.4333 57.7794 93.8413 57.6663C94.2413 57.5491 94.6334 57.4037 95.0176 57.2381C95.7859 56.8987 96.5266 56.4463 97.1326 55.8241C97.4375 55.5171 97.6989 55.1576 97.8851 54.7576C98.0593 54.3617 98.1821 53.9133 98.0989 53.4932C98.0039 53.9012 97.7979 54.2486 97.5524 54.5476V54.5556Z" fill="#280C61"/>
</g>
<path id="Vector_63" d="M93.6395 68.5415C93.5563 68.4445 93.4732 68.3435 93.3939 68.2385C93.2355 68.0325 93.0811 67.8184 92.9266 67.6002C91.7305 65.8591 90.6334 64.029 89.7264 62.1101C89.2749 61.1486 88.8551 60.171 88.5422 59.157C88.2333 58.143 87.9917 57.0926 88.0392 56.0221H87.9996C87.8808 57.0926 88.0709 58.1794 88.3481 59.2176C88.6373 60.2558 89.0175 61.2658 89.4531 62.2434C90.3522 64.1906 91.4018 66.0651 92.6493 67.8062C92.8078 68.0244 92.9662 68.2385 93.1405 68.4445C93.2276 68.5496 93.3147 68.6506 93.4098 68.7516C93.5207 68.8687 93.5841 68.9132 93.6276 69.0142C93.7227 69.204 93.6712 69.4626 93.5603 69.6848C93.4454 69.911 93.2751 70.113 93.0771 70.2827C92.281 70.9654 91.1879 71.2239 90.2017 71.1189C89.1878 71.0623 88.4234 70.218 87.2233 70.0928C86.9144 70.0766 86.5896 70.2221 86.3837 70.416C86.2649 70.521 86.1579 70.6543 86.1143 70.8361C86.0708 71.0219 86.1421 71.2159 86.245 71.333C86.451 71.5754 86.7203 71.6885 86.9817 71.7612C87.2471 71.8259 87.5283 71.842 87.7897 71.7693L87.7818 71.7289C87.5243 71.741 87.2669 71.6885 87.0372 71.5875C86.8075 71.4946 86.5817 71.3492 86.4668 71.1633C86.4074 71.0704 86.3956 70.9856 86.4193 70.9088C86.4431 70.8321 86.5144 70.7472 86.5975 70.6826C86.7877 70.5331 86.9896 70.4725 87.2075 70.4887C87.4293 70.5048 87.6629 70.5897 87.8966 70.6907C88.1343 70.7876 88.3679 70.9007 88.6095 71.0098C88.8511 71.1108 89.0888 71.232 89.362 71.3168C89.6274 71.4017 89.9047 71.4502 90.1779 71.4623C90.7285 71.4906 91.275 71.3815 91.7741 71.1835C92.2731 70.9815 92.7444 70.719 93.1563 70.3715C93.3623 70.1978 93.5563 70.0039 93.7108 69.7696C93.8613 69.5434 93.9841 69.2283 93.8771 68.9091C93.8336 68.7556 93.7029 68.6061 93.6316 68.5334L93.6395 68.5415Z" fill="#280C61"/>
<path id="Vector_64" d="M86.352 71.2038C86.7441 71.6239 88.2531 71.8744 88.9501 71.0502C88.9501 71.0502 88.2095 70.3473 87.152 70.2544C86.6371 70.21 85.9638 70.7796 86.352 71.1997V71.2038Z" fill="#280C61"/>
<path id="Vector_65" d="M86.0113 63.1442C85.5875 62.3484 85.1519 61.5566 84.6885 60.7849C84.2291 60.0093 83.7577 59.2417 83.2468 58.4984C83.6191 59.3266 84.0191 60.1305 84.4231 60.9385C84.8231 61.7464 85.2469 62.5423 85.6628 63.3381L86.9341 65.7176C87.148 66.1135 87.3579 66.5094 87.5599 66.9134C87.7659 67.3133 87.9758 67.7132 88.1184 68.1415C87.9599 67.2406 87.5599 66.4084 87.2074 65.5802C86.8391 64.7521 86.4312 63.9481 86.0113 63.1482V63.1442Z" fill="#280C61"/>
<path id="Vector_66" d="M89.7104 74.1326C88.6688 74.3306 87.6113 74.4356 86.5459 74.4719C85.4805 74.5002 84.4071 74.4477 83.3101 74.3548C84.3279 74.7749 85.4211 75.0133 86.5261 75.1022C87.635 75.1951 88.7519 75.1224 89.849 74.9284C90.9421 74.7184 92.0155 74.3912 93.0215 73.9185C94.0275 73.4499 94.9938 72.8722 95.8018 72.1046C94.8117 72.5894 93.8136 72.9853 92.7997 73.3327C91.7818 73.668 90.756 73.9508 89.7104 74.1326Z" fill="#280C61"/>
<path id="Vector_67" d="M90.348 75.2677C89.9163 75.3404 89.4965 75.4778 89.1044 75.6757C88.7202 75.8818 88.3479 76.1363 88.0786 76.5039C88.942 76.3544 89.6945 76.1888 90.4748 76.0636C90.8629 75.9989 91.2471 75.9424 91.6432 75.8898C92.0392 75.8333 92.4432 75.7888 92.8828 75.704C92.5066 75.4576 92.0828 75.3283 91.6511 75.2556C91.2194 75.191 90.7758 75.195 90.3441 75.2677H90.348Z" fill="#280C61"/>
<path id="Vector_68" d="M83.5676 73.1832C83.326 73.6236 83.1874 73.8821 83.0369 74.1205C82.9616 74.2417 82.8864 74.3629 82.7913 74.5043C82.6962 74.6497 82.5814 74.8032 82.4507 75.0294C82.6883 75.1264 82.9299 75.1062 83.1517 75.0214C83.3735 74.9365 83.5795 74.7628 83.7102 74.5447C83.8409 74.3265 83.9042 74.068 83.8805 73.8256C83.8527 73.5832 83.7656 73.3489 83.5676 73.1792V73.1832Z" fill="#280C61"/>
<path id="Vector_69" d="M93.3502 28.4705L80.5496 38.3761C80.5496 38.3761 82.8507 41.4383 88.8391 38.9336C94.8275 36.4289 95.4296 43.3895 99.8932 40.7071C105.509 37.3338 105.28 25.9819 93.3502 28.4705Z" fill="#FFD38A"/>
<path id="Vector_70" d="M97.5208 37.9924C94.4711 37.9358 92.5898 35.2049 92.6096 32.2881C92.6255 30.4419 93.9087 28.6765 95.6315 28.1514C94.9226 28.1998 94.1661 28.3008 93.3502 28.4705L80.5496 38.3761C80.5496 38.3761 82.8507 41.4383 88.8391 38.9336C94.8275 36.429 95.4296 43.3896 99.8932 40.7071C102.079 39.3901 103.375 36.8653 103.442 34.4212C103.07 34.9504 102.642 35.4432 102.174 35.8755C100.883 37.0672 99.3189 38.0328 97.5208 37.9964V37.9924Z" fill="#D6A76F"/>
<path id="Vector_71" d="M103.141 31.0236C102.666 30.1873 101.988 29.4682 101.188 28.9794C100.392 28.4825 99.5051 28.1795 98.614 28.0301C96.8238 27.7473 95.0336 27.9897 93.3503 28.4704C95.0811 28.2442 96.8515 28.1795 98.4991 28.5997C99.319 28.8057 100.099 29.137 100.765 29.6258C101.426 30.1146 101.977 30.7368 102.337 31.468C103.062 32.9304 103.089 34.7039 102.583 36.2713C102.083 37.8388 101.07 39.2648 99.715 40.1051C99.0219 40.5373 98.309 40.8161 97.6238 40.7111C96.9347 40.6222 96.2614 40.1576 95.5643 39.6365C94.8593 39.1275 94.0989 38.5578 93.1919 38.2104C92.2889 37.8549 91.2671 37.7862 90.3442 37.9801C89.8769 38.0731 89.4412 38.2104 89.0016 38.3882C88.5857 38.5619 88.2016 38.7396 87.8015 38.8931C87.0094 39.2042 86.1856 39.4466 85.3499 39.5678C84.5142 39.6971 83.6548 39.7051 82.8231 39.5274C82.4072 39.4426 81.9992 39.3052 81.6111 39.1153C81.223 38.9255 80.8507 38.6912 80.5417 38.372C81.0764 39.0911 81.8844 39.5759 82.7359 39.8587C83.5954 40.1455 84.5103 40.2182 85.4133 40.1697C86.3163 40.1091 87.2035 39.9193 88.0629 39.6567C88.4946 39.5274 88.9145 39.3577 89.3145 39.2163C89.6987 39.0871 90.1066 38.982 90.5027 38.9255C91.3027 38.8123 92.0869 38.8972 92.8117 39.2042C93.5405 39.5072 94.1979 40.0203 94.895 40.5697C95.2475 40.8363 95.6198 41.115 96.0396 41.3574C96.4594 41.5998 96.9387 41.8059 97.4654 41.8866C97.9882 41.9674 98.5308 41.9109 99.014 41.7614C99.4972 41.616 99.9448 41.3857 100.333 41.1352C101.961 40.0889 103.121 38.4366 103.648 36.6066C103.909 35.6896 104.024 34.7281 103.953 33.7666C103.886 32.8092 103.616 31.8558 103.141 31.0195V31.0236Z" fill="#280C61"/>
<path id="Vector_72" d="M55.3046 66.6144C55.5779 57.9248 59.8236 47.4415 70.9648 47.1062C82.11 46.7709 84.2883 35.5846 84.2883 35.5846L59.8355 38.5377C46.3695 52.2529 55.3006 66.6144 55.3006 66.6144H55.3046Z" fill="#FFD38A"/>
<path id="Vector_73" d="M67.1549 44.044C65.7093 44.7509 63.9191 45.369 62.7071 45.9144C60.9209 46.7143 59.8159 47.9101 58.596 49.4695C57.1979 51.2551 55.5939 53.0366 54.4413 55C53.6136 56.4099 53.1779 58.0298 52.8096 59.6619C53.6096 63.8835 55.3087 66.6144 55.3087 66.6144C55.582 57.9248 59.8278 47.4415 70.969 47.1062C82.1141 46.7709 84.2924 35.5846 84.2924 35.5846L73.1909 36.9258C72.4779 40.1415 70.2046 42.5533 67.1588 44.048L67.1549 44.044Z" fill="#D6A76F"/>
<path id="Vector_74" d="M55.7799 66.3034C55.4511 65.7539 55.1541 65.156 54.8768 64.542C54.8095 65.2247 54.758 65.9075 54.7422 66.5942L55.7799 66.3074V66.3034Z" fill="#280C61"/>
<path id="Vector_75" d="M81.8011 40.8485C80.6921 42.428 79.298 43.7894 77.686 44.763C76.0701 45.7366 74.2522 46.3184 72.3907 46.5123C71.9273 46.5608 71.456 46.589 70.9886 46.5971C70.5054 46.6092 69.9985 46.6335 69.5034 46.686C68.5133 46.787 67.531 46.9809 66.5686 47.2718C64.6517 47.8535 62.8377 48.8513 61.3247 50.2047C59.8039 51.5499 58.5761 53.1982 57.6216 54.9757C56.6592 56.7532 55.9898 58.6721 55.5185 60.6274C55.2135 61.9161 55.0036 63.225 54.8769 64.542C55.1502 65.156 55.4512 65.7539 55.7799 66.3034L54.7422 66.5902C54.7581 65.9034 54.8096 65.2207 54.8769 64.5379C54.6432 64.0128 54.4293 63.4795 54.2353 62.9422C53.8154 61.7666 53.4867 60.5547 53.253 59.3266C52.7738 56.8704 52.7104 54.3293 53.0827 51.8448C53.4471 49.3563 54.2788 46.9445 55.4393 44.7024C56.6077 42.4603 58.1325 40.4122 59.8395 38.5336C57.9939 40.2708 56.3582 42.2624 55.0511 44.4762C53.7362 46.686 52.7936 49.1462 52.3183 51.7115C51.8391 54.2768 51.847 56.931 52.2748 59.5124C52.4926 60.8011 52.8174 62.0696 53.2372 63.3098C53.6649 64.5541 54.1561 65.7378 54.8333 66.9214L55.7957 68.598L55.871 66.6346C56.0215 62.7847 56.8889 58.9226 58.6632 55.5574C59.5504 53.8809 60.6911 52.3417 62.0852 51.0934C63.4793 49.8492 65.1111 48.8877 66.8894 48.3221C67.7766 48.0353 68.6915 47.8414 69.6222 47.7283C70.0856 47.6677 70.545 47.6434 71.0243 47.6152C71.5194 47.5909 72.0144 47.5465 72.5095 47.4778C74.4779 47.2031 76.4147 46.5284 78.0781 45.4054C78.9098 44.8519 79.6742 44.1975 80.3594 43.4703C81.0406 42.7391 81.6347 41.9392 82.1536 41.0908C83.1794 39.3941 83.9359 37.5318 84.2963 35.5927C84.0467 36.546 83.6705 37.455 83.2625 38.3397C82.8467 39.2204 82.3635 40.0688 81.809 40.8565L81.8011 40.8485Z" fill="#280C61"/>
</g>
<g id="Group_11">
<path id="Vector_76" d="M89.3738 180.618C89.3738 180.618 91.5601 179.237 88.8827 177.184C88.8827 177.184 90.5343 173.819 87.3064 170.511C87.3064 170.511 89.2986 164.019 83.7458 166.257C81.3932 167.202 72.9651 166.705 64.2042 167.917C61.3486 168.313 62.8655 171.266 62.1962 171.29C51.5976 171.654 53.3363 164.588 45.9854 169.06C45.9854 169.06 48.239 165.186 45.2923 164.305C42.3456 163.425 54.1165 159.538 46.1003 138.507L36.2067 117.444C31.5569 107.966 24.8199 108.338 24.8199 108.338C24.8199 108.338 10.934 125.984 9.02899 142.353C7.11998 158.722 8.33589 164.495 5.21493 175.407C2.09397 186.318 5.90803 195.121 6.25657 203.395C6.6051 211.668 17.1205 210.537 21.6396 210.537C35.8027 210.537 54.4215 203.1 67.8519 197.909C70.2164 196.996 72.3274 198.781 74.3275 197.86C85.5756 192.681 91.5363 196.232 90.4155 189.873C89.2946 183.515 91.6512 183.462 89.3778 180.61L89.3738 180.618Z" fill="#656E99"/>
<g id="Vector_77" style="mix-blend-mode:multiply" opacity="0.7">
<path d="M82.3832 177.52C79.5514 178.049 76.2324 178.723 73.4243 179.366C70.4103 180.057 69.1389 174.781 72.1728 174.086C74.3947 173.577 79.5038 176.97 81.7416 176.538C83.009 176.292 87.7498 171.759 88.5697 172.207C88.2687 171.65 87.8607 171.08 87.3062 170.511C87.3062 170.511 87.5082 169.852 87.6033 169.028C87.2349 169.686 86.5973 170.199 85.6863 170.305C84.4348 170.446 83.1832 170.555 81.9317 170.652C78.0622 171.508 74.1927 172.381 70.3192 173.165C67.828 173.67 63.0911 174.841 62.291 171.258C62.2673 171.278 62.2396 171.29 62.2 171.29C61.689 171.306 63.301 187.736 33.9886 201.973C31.4538 203.205 43.2881 189.267 40.6622 190.613C37.3669 192.301 34.0202 193.909 30.5507 195.202C28.2932 196.042 23.6395 198.321 21.3503 196.676C16.3124 193.065 23.2513 185.054 25.8812 183.939C31.4736 181.563 36.5709 180.4 40.6463 176.57C41.9573 175.338 42.3534 174.837 43.6366 173.985C45.4268 172.801 45.91 170.345 47.2685 168.608C47.2922 168.575 47.32 168.547 47.3477 168.519C46.8407 169.008 46.508 169.719 45.6565 169.602C43.3633 171.751 39.569 173.888 36.3213 174.158C33.8777 174.36 22.2889 177.956 21.2829 174.857C20.1145 171.262 30.3765 164.2 32.8162 163.538C40.4325 161.465 44.7178 164.152 45.1258 164.253C44.3931 163.934 45.0347 163.291 45.9892 161.886C38.9829 156.731 33.9727 161.437 33.3232 159.025C33.0182 157.89 32.1389 152.105 30.5904 148.873C27.6872 142.801 23.0573 135.95 22.4553 137.198C21.8691 138.41 24.4276 147.686 24.4712 149.407C24.5702 153.616 16.847 168.967 16.051 170.838C14.744 173.912 14.4746 163.505 11.9953 166.988C9.90806 169.921 5.48011 174.466 5.21078 175.411C4.40282 178.243 5.4207 180.335 6.18509 178.768C7.56735 175.932 11.7418 178.372 10.3715 181.192C7.95945 186.145 5.86428 191.037 5.65437 196.632C5.63853 197.024 5.63061 197.42 5.62269 197.812C5.92765 199.71 6.17321 201.569 6.24846 203.399C6.3752 206.457 7.89608 208.226 9.98332 209.248C11.4923 209.111 12.9934 208.945 14.4905 208.78C20.3363 208.121 26.2139 207.515 31.8577 205.73C36.4085 204.287 40.8444 202.106 44.9753 199.698C48.5161 197.638 53.7084 193.562 55.0313 189.393C55.9818 186.395 53.3836 200.122 49.3399 202.744C46.5912 204.53 59.9266 200.975 67.8399 197.917C69.7251 197.189 71.448 198.171 73.0837 198.135C73.0916 198.05 73.1075 197.969 73.1273 197.884C70.1608 197.759 68.8023 193.929 69.6578 192.265C71.0994 189.461 77.5433 194.758 86.9339 189.389C89.041 188.185 91.3817 183.143 89.3657 180.618C89.3657 180.618 87.8092 176.502 82.3753 177.52H82.3832ZM65.8952 196.454C64.9565 196.943 55.1184 199.929 54.5362 198.773C53.9302 197.565 62.0376 184.206 62.6475 185.422C63.2178 186.561 67.0953 195.832 65.8912 196.454H65.8952ZM70.0895 185.131C70.3509 186.003 70.3628 187.013 70.042 187.862C69.5944 189.057 69.0201 187.312 67.6854 186.892C66.5527 186.536 64.905 187.894 65.3882 186.613C65.416 186.553 65.4278 186.484 65.4476 186.423C65.4397 186.399 65.4358 186.375 65.4278 186.347C65.4278 186.339 65.4278 186.339 65.4199 186.33C65.115 185.729 64.8417 185.102 64.6238 184.46C64.2991 183.495 64.8139 182.347 65.6417 181.778C65.4912 181.563 65.3526 181.341 65.2417 181.103C64.7862 180.17 64.806 179.164 64.6278 178.158C64.0812 175.071 67.4755 180.78 69.935 182.198C71.3252 183.002 77.2582 181.98 77.2701 183.41C77.2819 184.622 71.5905 185.595 70.0934 185.123L70.0895 185.131Z" fill="#616A91"/>
</g>
<path id="Vector_78" d="M24.8276 108.532C24.8554 108.532 24.8831 108.532 24.9108 108.532C24.9306 108.507 24.9465 108.483 24.9663 108.459L24.8316 108.532H24.8276Z" fill="#280C61"/>
<path id="Vector_79" d="M90.2451 186.71C90.2451 186.185 90.2649 185.656 90.3243 185.135C90.3797 184.61 90.4788 184.092 90.5421 183.551C90.6134 183.014 90.5897 182.416 90.3718 181.891C90.1896 181.43 89.9243 181.03 89.6391 180.651C89.5837 180.695 89.5322 180.739 89.4728 180.78L89.5203 180.493C89.5599 180.545 89.5995 180.598 89.6391 180.655C89.8847 180.457 90.0867 180.218 90.2372 179.927C90.4194 179.576 90.4629 179.14 90.3599 178.752C90.257 178.364 90.0471 178.033 89.8094 177.754C89.6074 177.516 89.3777 177.31 89.144 177.116C89.1203 177.172 89.1044 177.229 89.0767 177.285L89.0133 177.007C89.0569 177.043 89.1005 177.079 89.144 177.116C89.3658 176.566 89.4807 176.009 89.5243 175.431C89.5678 174.801 89.5124 174.159 89.3579 173.544C89.0648 172.361 88.4113 171.302 87.5994 170.434C87.5836 170.486 87.5756 170.539 87.5598 170.591L87.4964 170.321C87.5321 170.357 87.5677 170.397 87.5994 170.434C87.7301 169.961 87.8252 169.493 87.8846 169.008C87.944 168.47 87.9638 167.921 87.8687 167.36C87.7737 166.814 87.5281 166.204 87.0053 165.841C86.4865 165.477 85.8647 165.441 85.326 165.497C84.7755 165.558 84.2606 165.715 83.7655 165.901C83.3101 166.091 82.8427 166.176 82.3437 166.253C81.3496 166.394 80.3317 166.459 79.3099 166.515C75.2265 166.713 71.1114 166.806 67.0201 167.226C65.9903 167.331 64.9883 167.44 63.9387 167.602C63.3922 167.703 62.7822 167.961 62.4179 168.511C62.0535 169.052 62.0139 169.686 62.0218 170.224C62.0218 170.478 62.0456 170.741 62.0377 170.931H62.1802C62.1802 170.931 62.1287 170.931 62.0931 170.959C62.0535 170.987 62.0337 171.02 62.0297 171.028C62.0218 171.048 62.0337 171.012 62.0377 170.967C62.0377 170.955 62.0377 170.943 62.0377 170.931H61.8C61.297 170.943 60.794 170.935 60.291 170.906C59.289 170.846 58.2909 170.709 57.3285 170.446C56.3661 170.187 55.4472 169.791 54.5759 169.291C53.6966 168.798 52.8886 168.159 51.9104 167.679C51.4232 167.444 50.8767 167.271 50.3143 167.238C49.7558 167.198 49.2013 167.283 48.6825 167.428C47.9854 167.63 47.3398 167.925 46.722 168.256C46.5952 168.588 46.4408 168.911 46.2665 169.23L45.815 168.769C46.112 168.592 46.4131 168.418 46.718 168.256C46.8487 167.921 46.9557 167.574 47.0309 167.21C47.1062 166.851 47.1458 166.475 47.118 166.091C47.0903 165.707 46.9834 165.307 46.7576 164.964C46.5358 164.621 46.2111 164.358 45.8665 164.192C45.7001 164.107 45.51 164.043 45.3477 163.994C45.213 163.958 45.1061 163.877 45.1179 163.877C45.114 163.901 45.11 163.796 45.1734 163.667C45.2328 163.538 45.316 163.4 45.4071 163.263C45.5892 162.988 45.7912 162.71 45.9853 162.427C46.7814 161.3 47.4864 160.072 47.9973 158.767C48.5082 157.462 48.8409 156.088 49.0231 154.703C49.3795 151.923 49.1459 149.112 48.6191 146.397C48.0844 143.674 47.2448 141.028 46.2348 138.467L45.9576 138.576C46.9002 141.153 47.6923 143.787 48.1914 146.482C48.6785 149.172 48.8686 151.935 48.4884 154.63C48.2983 155.975 47.9577 157.292 47.4507 158.545C46.9517 159.801 46.2744 160.964 45.4863 162.067C45.2922 162.346 45.0902 162.621 44.8922 162.916C44.7932 163.065 44.6981 163.219 44.611 163.4C44.5674 163.493 44.5278 163.594 44.504 163.724C44.4803 163.849 44.4842 164.027 44.5634 164.18C44.7456 164.487 44.9833 164.544 45.1615 164.612C45.3239 164.665 45.4546 164.709 45.5892 164.778C45.8546 164.907 46.0764 165.093 46.2269 165.327C46.5319 165.796 46.5319 166.459 46.4012 167.081C46.2665 167.707 46.0091 168.341 45.7001 168.899L45.0942 169.993L46.1517 169.359C47.019 168.838 47.9181 168.361 48.8568 168.099C49.3241 167.97 49.7994 167.901 50.2667 167.937C50.7301 167.97 51.1816 168.107 51.6173 168.321C52.4886 168.749 53.3164 169.4 54.2313 169.921C55.1422 170.454 56.1245 170.878 57.1423 171.157C58.1602 171.436 59.2058 171.593 60.2475 171.65C60.7703 171.678 61.2891 171.686 61.8119 171.678L62.2 171.666C62.2674 171.666 62.3783 171.646 62.4694 171.585C62.5644 171.525 62.6238 171.436 62.6555 171.367C62.7189 171.23 62.7228 171.133 62.7347 171.048C62.7545 170.721 62.7228 170.478 62.7189 170.228C62.703 169.735 62.7585 169.266 62.9842 168.935C63.2021 168.6 63.61 168.406 64.0576 168.321C65.0358 168.172 66.0735 168.054 67.0795 167.945C71.1431 167.517 75.2344 167.412 79.3376 167.206C80.3634 167.145 81.3931 167.085 82.4268 166.927C82.9378 166.846 83.4843 166.741 83.9794 166.527C84.4388 166.346 84.9141 166.2 85.3854 166.139C85.8528 166.083 86.3241 166.123 86.6647 166.362C87.0093 166.592 87.2113 167.02 87.2984 167.489C87.4647 168.438 87.2984 169.493 87.0449 170.45L87.0014 170.612L87.1083 170.721C87.9281 171.549 88.5856 172.559 88.8787 173.686C89.0252 174.247 89.0846 174.833 89.0529 175.419C89.0173 175.997 88.8945 176.595 88.6767 177.1L88.6014 177.273L88.7401 177.378C89.0094 177.58 89.2629 177.802 89.4807 178.053C89.6946 178.299 89.8728 178.578 89.956 178.877C90.0391 179.172 90.0114 179.483 89.8728 179.762C89.7421 180.036 89.5084 180.295 89.2629 180.465L89.0846 180.59L89.2153 180.756C89.5401 181.16 89.8411 181.584 90.0312 182.048C90.2253 182.513 90.257 183.014 90.1976 183.531C90.1421 184.048 90.0471 184.581 89.9995 185.115C89.9441 185.652 89.9203 186.189 89.9282 186.73C89.9441 187.809 90.0748 188.876 90.2609 189.93C90.352 190.447 90.4114 190.972 90.3877 191.485C90.3639 191.998 90.2332 192.503 89.9322 192.895C89.6272 193.287 89.1797 193.546 88.7044 193.731C88.2291 193.917 87.7222 194.038 87.2152 194.152C86.1973 194.366 85.1636 194.527 84.1339 194.721C82.0744 195.097 80.0267 195.578 78.0385 196.252C77.0444 196.588 76.0622 196.963 75.0958 197.379C74.6047 197.573 74.1492 197.852 73.662 197.945C73.1709 198.046 72.66 198.014 72.153 197.937C71.1391 197.779 70.1094 197.452 69.0242 197.521C68.4855 197.545 67.9508 197.707 67.4676 197.909L65.9983 198.47C62.0852 199.965 58.1721 201.452 54.2313 202.853C50.2905 204.255 46.318 205.572 42.3019 206.719C38.2859 207.863 34.2223 208.848 30.1112 209.491C28.0556 209.814 25.9882 210.044 23.9128 210.145C22.8752 210.202 21.8533 210.194 20.7919 210.206C19.7423 210.222 18.7047 210.25 17.667 210.242C15.5995 210.218 13.5202 210.081 11.5716 209.487C10.6052 209.184 9.67447 208.764 8.89027 208.154C8.10607 207.548 7.48029 206.748 7.11592 205.819C6.92977 205.358 6.79907 204.869 6.72382 204.368C6.64065 203.875 6.62876 203.362 6.60104 202.817C6.53767 201.738 6.42281 200.672 6.28023 199.609C5.99507 197.484 5.60693 195.388 5.26632 193.291C4.57717 189.11 4.1217 184.876 4.59301 180.687C4.70391 179.641 4.87422 178.602 5.09205 177.576C5.20295 177.063 5.32572 176.55 5.46038 176.049L5.88813 174.506C6.44262 172.438 6.89412 170.337 7.21889 168.216C7.87635 163.97 8.0427 159.692 8.28034 155.446C8.51005 151.196 8.83086 146.954 9.30217 142.725C9.74576 138.519 10.9339 134.419 12.4627 130.476C13.9995 126.533 15.8926 122.732 17.9957 119.063C20.0948 115.428 22.3841 111.893 24.903 108.556C24.8753 108.556 24.8476 108.556 24.8198 108.556L24.9545 108.483C24.9347 108.507 24.9188 108.532 24.899 108.556C26.0833 108.568 27.2992 108.899 28.4161 109.38C29.5646 109.881 30.63 110.576 31.5925 111.4C33.5173 113.056 35.0065 115.197 36.159 117.484L36.2303 117.448C35.1214 115.129 33.6678 112.939 31.7469 111.218C30.7885 110.362 29.7151 109.626 28.5428 109.085C27.3705 108.552 26.1229 108.176 24.7961 108.168H24.7129L24.6574 108.241C22.0712 111.61 19.7384 115.157 17.5878 118.825C15.449 122.497 13.5202 126.303 11.9439 130.27C10.3755 134.233 9.14375 138.374 8.66055 142.652C8.14964 146.886 7.7813 151.144 7.51198 155.402C7.22285 159.656 7.08027 163.914 6.41489 168.091C6.09012 170.179 5.64257 172.248 5.09205 174.288L4.6643 175.823C4.52568 176.348 4.39894 176.869 4.28408 177.398C4.05833 178.453 3.88406 179.519 3.76525 180.594C3.52365 182.739 3.51177 184.908 3.65435 187.054C3.79693 189.203 4.10586 191.328 4.45835 193.433C4.81085 195.537 5.20295 197.63 5.49603 199.722C5.64257 200.769 5.75743 201.819 5.82476 202.87C5.85645 203.387 5.86833 203.94 5.96338 204.502C6.05052 205.055 6.19706 205.6 6.41093 206.122C6.83075 207.172 7.55555 208.097 8.43876 208.772C9.32198 209.454 10.3359 209.903 11.3617 210.218C13.4291 210.84 15.5679 210.965 17.667 210.986C18.7205 210.99 19.7661 210.961 20.8077 210.937C21.8335 210.921 22.9029 210.917 23.9525 210.852C26.0516 210.731 28.1428 210.481 30.2102 210.137C34.353 209.45 38.4285 208.428 42.4485 207.245C46.4685 206.057 50.437 204.704 54.3739 203.269C58.3107 201.831 62.2119 200.308 66.1131 198.777L67.5746 198.204C68.0578 197.998 68.537 197.856 69.044 197.828C70.0618 197.755 71.0678 198.066 72.1134 198.228C72.6362 198.309 73.1828 198.341 73.7214 198.228C73.9868 198.175 74.2522 198.07 74.4898 197.961L75.2067 197.642C76.1612 197.226 77.1355 196.846 78.1256 196.511C80.098 195.836 82.1298 195.339 84.1854 194.972C85.2112 194.782 86.2449 194.628 87.2746 194.414C87.7895 194.305 88.3044 194.184 88.8074 193.99C89.3025 193.8 89.8015 193.521 90.154 193.073C90.5065 192.625 90.6491 192.047 90.6768 191.501C90.7045 190.952 90.6451 190.411 90.554 189.877C90.3718 188.835 90.253 187.781 90.2411 186.726L90.2451 186.71Z" fill="#280C61"/>
</g>
<g id="Group_12">
<path id="Vector_80" d="M74.7752 56.0545C69.7808 56.4948 64.3944 61.6052 68.8818 59.9933C73.3652 58.3814 76.4505 58.5066 78.7318 57.8441C80.6765 57.2826 82.328 57.1331 82.1577 56.3372C81.7181 54.2729 80.2091 55.5737 74.7752 56.0545Z" fill="#C9965A"/>
<g id="Group_13">
<path id="Vector_81" d="M82.217 56.3251C82.1458 55.9857 82.0428 55.6181 81.7497 55.3596C81.4527 55.101 81.0566 55.0687 80.712 55.0404C79.9991 55.0202 79.31 55.0687 78.6248 55.101C77.2505 55.1737 75.9395 55.3151 74.577 55.4202C73.1156 55.5696 71.7571 56.0908 70.5055 56.7493C69.8758 57.0805 69.2738 57.4603 68.7114 57.8966C68.1529 58.345 67.6183 58.8136 67.1786 59.4479C67.1271 59.5327 67.0717 59.6175 67.0281 59.7185C66.9885 59.8236 66.9331 59.9367 66.9529 60.1225C66.9608 60.2114 67.0123 60.3245 67.0836 60.3891C67.1549 60.4619 67.2341 60.4901 67.2974 60.5063C67.4281 60.5386 67.5351 60.5346 67.6301 60.5265C68.0222 60.4901 68.343 60.3689 68.6797 60.2558C69.3292 60.0175 69.9629 59.7912 70.6244 59.6418C71.9432 59.3186 73.3017 59.2297 74.6404 59.0762C75.9791 58.9227 77.3455 58.7449 78.6881 58.2278C79.3218 57.9612 79.9555 57.7269 80.613 57.5007C80.9378 57.3835 81.2665 57.2744 81.5834 57.129C81.7418 57.0522 81.9042 56.9755 82.0388 56.8462C82.1814 56.7331 82.2685 56.5028 82.217 56.3251ZM81.9556 56.7573C81.8368 56.8583 81.6824 56.9311 81.5279 56.9876C81.2111 57.0967 80.8784 57.1694 80.5457 57.2219C79.8763 57.335 79.1832 57.4077 78.506 57.5289C77.2029 57.7067 75.8405 57.7673 74.4899 58.0582C73.1354 58.3248 71.8125 58.7934 70.5135 59.2378L68.5648 59.9003C68.252 59.9932 67.9113 60.074 67.6183 60.074C67.5628 60.074 67.5153 60.0619 67.4796 60.0538C67.4757 60.0659 67.4678 60.074 67.4678 60.074C67.4678 60.074 67.4559 60.0538 67.448 60.0458C67.448 60.0458 67.4281 60.0296 67.44 60.0377C67.44 60.0377 67.444 60.0417 67.448 60.0458C67.4559 60.0458 67.4678 60.0498 67.4796 60.0538C67.5034 60.0094 67.5707 59.8963 67.6499 59.8195C68.0737 59.3711 68.6559 59.0075 69.2223 58.6763C69.7966 58.345 70.3828 58.038 70.9848 57.7713C72.1888 57.2421 73.4562 56.8583 74.7117 56.7169C76.0662 56.5877 77.4604 56.3412 78.7713 55.9251C79.4288 55.7312 80.0783 55.4888 80.7318 55.3878C81.0526 55.3353 81.3893 55.3394 81.6467 55.509C81.9081 55.6868 82.0309 56.0261 82.1062 56.3534C82.1418 56.5149 82.0824 56.6563 81.9596 56.7614L81.9556 56.7573Z" fill="#280C61"/>
<path id="Vector_82" d="M67.4643 60.0741C67.4643 60.0741 67.4683 60.066 67.4764 60.0539C67.4643 60.0539 67.4522 60.0498 67.4441 60.0458C67.4522 60.0579 67.4643 60.0741 67.4643 60.0741Z" fill="#280C61"/>
</g>
</g>
<g id="Group_14">
<path id="Vector_83" d="M94.6848 47.9142C90.4509 51.0047 87.2428 51.849 88.237 53.6992C88.6211 54.4102 89.9083 53.473 91.6748 52.665C93.7462 51.7157 95.2235 49.7402 99.6554 48.5889C101.679 48.0637 98.5821 45.0742 94.6888 47.9183L94.6848 47.9142Z" fill="#C9965A"/>
<path id="Vector_84" d="M99.9843 46.9567C99.4417 46.48 98.7605 46.2417 98.0753 46.1851C97.3901 46.1326 96.7049 46.2457 96.0633 46.4598C95.4257 46.6739 94.8237 46.9971 94.3009 47.393C93.8137 47.7566 93.3305 48.1081 92.8315 48.4595C91.8413 49.1584 90.8512 49.8816 89.8769 50.6612C89.3937 51.0571 88.8946 51.445 88.4748 51.9297C88.2689 52.1721 88.0748 52.4509 88.0074 52.7821C87.9362 53.1053 88.0233 53.4326 88.1738 53.7032L88.1896 53.7315C88.2609 53.8769 88.4312 53.9981 88.5976 54.0103C88.7639 54.0305 88.9263 54.0022 89.0768 53.9658C89.3818 53.8891 89.6709 53.7719 89.96 53.6628C90.5383 53.4406 91.1086 53.2144 91.6829 53.0286C92.2849 52.8468 92.8869 52.564 93.4176 52.2449C93.9563 51.9217 94.4514 51.5742 94.9425 51.2268C95.9168 50.54 96.8951 49.825 98.0119 49.3402C98.5664 49.0898 99.1368 48.9039 99.7348 48.7625C99.8893 48.7221 100.068 48.6535 100.222 48.5403C100.38 48.4272 100.515 48.2091 100.523 47.9748C100.535 47.7445 100.448 47.5465 100.349 47.3849C100.25 47.2193 100.123 47.082 99.9883 46.9608L99.9843 46.9567ZM99.6318 48.3949L97.8575 48.908C96.6733 49.2635 95.4574 49.6715 94.384 50.33C93.8454 50.6491 93.3424 51.0167 92.8592 51.3803C92.376 51.748 91.9285 52.1115 91.4096 52.4226C90.8749 52.7498 90.368 53.1053 89.8452 53.4204C89.5838 53.574 89.3145 53.7194 89.0332 53.8163C88.8946 53.8608 88.7481 53.8931 88.6095 53.885C88.4708 53.8689 88.3599 53.8002 88.2887 53.6709C88.15 53.4083 88.0787 53.1013 88.1619 52.8225C88.2411 52.5438 88.4392 52.3095 88.657 52.1156C89.1085 51.7278 89.6511 51.449 90.1977 51.1783C91.2948 50.6532 92.4275 50.1401 93.485 49.4816C94.0117 49.1584 94.5385 48.815 95.0454 48.4515C95.5128 48.1242 95.9881 47.8334 96.4911 47.6112C96.9941 47.393 97.5248 47.2557 98.0595 47.2274C98.5862 47.2032 99.1486 47.2476 99.612 47.494C99.8378 47.6112 100.036 47.8011 100.064 47.9788C100.103 48.1364 99.9091 48.3303 99.6358 48.3989L99.6318 48.3949Z" fill="#280C61"/>
</g>
</g>
</g>
</g>
</g>
</g>
<defs>
<filter id="filter0_dddd_997_18735" x="0" y="0" width="170" height="187" filterUnits="userSpaceOnUse" color-interpolation-filters="sRGB">
<feFlood flood-opacity="0" result="BackgroundImageFix"/>
<feColorMatrix in="SourceAlpha" type="matrix" values="0 0 0 0 0 0 0 0 0 0 0 0 0 0 0 0 0 0 127 0" result="hardAlpha"/>
<feOffset dy="2"/>
<feGaussianBlur stdDeviation="2.5"/>
<feColorMatrix type="matrix" values="0 0 0 0 0.192157 0 0 0 0 0.262745 0 0 0 0 0.384314 0 0 0 0.1 0"/>
<feBlend mode="normal" in2="BackgroundImageFix" result="effect1_dropShadow_997_18735"/>
<feColorMatrix in="SourceAlpha" type="matrix" values="0 0 0 0 0 0 0 0 0 0 0 0 0 0 0 0 0 0 127 0" result="hardAlpha"/>
<feOffset dy="6"/>
<feGaussianBlur stdDeviation="5"/>
<feColorMatrix type="matrix" values="0 0 0 0 0.192157 0 0 0 0 0.262745 0 0 0 0 0.384314 0 0 0 0.09 0"/>
<feBlend mode="normal" in2="effect1_dropShadow_997_18735" result="effect2_dropShadow_997_18735"/>
<feColorMatrix in="SourceAlpha" type="matrix" values="0 0 0 0 0 0 0 0 0 0 0 0 0 0 0 0 0 0 127 0" result="hardAlpha"/>
<feOffset dy="11"/>
<feGaussianBlur stdDeviation="6.5"/>
<feColorMatrix type="matrix" values="0 0 0 0 0.192157 0 0 0 0 0.262745 0 0 0 0 0.384314 0 0 0 0.05 0"/>
<feBlend mode="normal" in2="effect2_dropShadow_997_18735" result="effect3_dropShadow_997_18735"/>
<feColorMatrix in="SourceAlpha" type="matrix" values="0 0 0 0 0 0 0 0 0 0 0 0 0 0 0 0 0 0 127 0" result="hardAlpha"/>
<feOffset dy="28"/>
<feGaussianBlur stdDeviation="7.5"/>
<feColorMatrix type="matrix" values="0 0 0 0 0.192157 0 0 0 0 0.262745 0 0 0 0 0.384314 0 0 0 0.01 0"/>
<feBlend mode="normal" in2="effect3_dropShadow_997_18735" result="effect4_dropShadow_997_18735"/>
<feBlend mode="normal" in="SourceGraphic" in2="effect4_dropShadow_997_18735" result="shape"/>
</filter>
<clipPath id="clip0_997_18735">
<rect x="15" y="4" width="140" height="140" rx="70" fill="white"/>
</clipPath>
</defs>
</svg>
