<svg width="64" height="64" viewBox="0 0 64 64" fill="none" xmlns="http://www.w3.org/2000/svg">
<g id="shield-check--shield-protection-security-defend-crime-war-cover-check">
<path id="Union" fill-rule="evenodd" clip-rule="evenodd" d="M6.85714 -0.00109863C3.10597 -0.00109863 0 3.10164 0 6.85373V19.901C0 38.8057 11.4741 56.5001 29.3087 63.4556C30.0705 63.7527 30.9761 63.9964 31.9681 64.0009C32.9819 64.006 33.9096 63.7605 34.6913 63.4556C52.5262 56.5001 64 38.8057 64 19.901V6.85373C64 3.10165 60.8942 -0.00109863 57.1429 -0.00109863H6.85714Z" fill="#002462"/>
<path id="Vector (Stroke)" fill-rule="evenodd" clip-rule="evenodd" d="M47.9922 15.7232C49.4075 16.9812 49.5346 19.1483 48.277 20.5636L29.9911 41.135C28.8064 42.4678 26.7979 42.67 25.3714 41.6001L16.2286 34.7429C14.7137 33.6068 14.4067 31.4578 15.5429 29.9429C16.679 28.4281 18.828 28.1211 20.3429 29.2572L26.9619 34.2215L43.1517 16.008C44.4097 14.5927 46.5769 14.4652 47.9922 15.7232Z" fill="#FFA502"/>
</g>
</svg>
