<svg width="573" height="286" viewBox="0 0 573 286" fill="none" xmlns="http://www.w3.org/2000/svg">
<rect width="573" height="286" fill="#FFD892"/>
<g clip-path="url(#clip0_992_20581)">
<g style="mix-blend-mode:multiply">
<path d="M389.377 243.621C389.377 243.621 389.395 243.612 389.404 243.603C389.466 243.576 389.52 243.54 389.556 243.504C389.574 243.486 389.565 243.477 389.574 243.459C389.592 243.432 389.619 243.406 389.619 243.37L389.036 234.798L398.589 231.146C398.589 231.146 398.607 231.137 398.616 231.128C398.678 231.101 398.732 231.065 398.768 231.029C398.786 231.011 398.777 231.002 398.786 230.984C398.804 230.957 398.831 230.921 398.831 230.894L398.553 226.829L462.41 211.499L468.055 212.881C468.216 212.917 468.414 212.908 468.575 212.846L484.328 206.823C484.328 206.823 484.346 206.814 484.355 206.805C484.418 206.778 484.472 206.743 484.508 206.707C484.526 206.689 484.517 206.68 484.526 206.662C484.543 206.635 484.57 206.599 484.57 206.572L484.311 202.794L490.485 204.31C490.646 204.346 490.843 204.337 491.004 204.274L506.758 198.252C506.758 198.252 506.776 198.243 506.785 198.234C506.848 198.207 506.901 198.171 506.937 198.135C506.955 198.118 506.946 198.109 506.955 198.091C506.973 198.064 507 198.037 507 198.001L506.382 188.918C506.382 188.828 506.283 188.748 506.131 188.712L500.853 187.491L500.396 180.814C500.396 180.724 500.297 180.643 500.145 180.607L486.407 177.439C486.407 177.439 486.372 177.421 486.354 177.412C486.192 177.376 486.004 177.394 485.852 177.448L470.421 183.345C470.268 183.407 470.17 183.497 470.179 183.596L470.224 184.305L469.794 184.206L469.713 183.031C469.713 182.941 469.614 182.86 469.462 182.824L455.725 179.656C455.725 179.656 455.689 179.638 455.671 179.629C455.51 179.593 455.321 179.611 455.169 179.665L439.738 185.561C439.586 185.624 439.487 185.714 439.496 185.813L439.899 191.988L395.345 199.823L395.157 197.05L397.486 197.624C397.648 197.66 397.845 197.651 398.006 197.588L413.76 191.566C413.76 191.566 413.778 191.557 413.787 191.548C413.849 191.521 413.903 191.485 413.939 191.449C413.957 191.431 413.948 191.422 413.957 191.404C413.975 191.377 414.002 191.341 414.002 191.314L413.383 182.232C413.383 182.142 413.285 182.061 413.132 182.025L411.932 181.747L412.873 181.388C412.873 181.388 412.891 181.379 412.9 181.37C412.962 181.343 413.016 181.307 413.052 181.271C413.07 181.253 413.061 181.244 413.07 181.227C413.088 181.2 413.115 181.173 413.115 181.137L412.496 172.054C412.496 171.964 412.398 171.884 412.245 171.848L398.508 168.679C398.508 168.679 398.472 168.661 398.454 168.653C398.302 168.617 398.105 168.635 397.952 168.688L397.37 168.913L397.343 168.464C397.343 168.374 397.244 168.294 397.092 168.258L383.355 165.089C383.355 165.089 383.319 165.071 383.301 165.062C383.14 165.027 382.952 165.045 382.799 165.098L367.368 170.995C367.207 171.058 367.117 171.148 367.126 171.246L367.162 171.848L366.356 171.659C366.356 171.659 366.32 171.641 366.302 171.632C366.149 171.596 365.952 171.614 365.8 171.668L350.369 177.565C350.208 177.628 350.118 177.717 350.127 177.816L350.476 183.156L323.862 200.891L319.435 199.868C319.435 199.868 319.399 199.85 319.381 199.841C319.22 199.805 319.032 199.823 318.88 199.877L303.449 205.773C303.296 205.836 303.198 205.926 303.207 206.025L303.762 214.488L280.41 234.341L271.126 232.205C271.126 232.205 271.099 232.187 271.072 232.178C270.911 232.142 270.723 232.16 270.57 232.214L255.139 238.11C254.978 238.173 254.888 238.263 254.897 238.362L254.942 239.008L247.585 237.311C247.585 237.311 247.558 237.294 247.531 237.294C247.37 237.258 247.182 237.276 247.03 237.329L231.599 243.226C231.437 243.289 231.348 243.379 231.357 243.477L231.957 252.569C231.957 252.614 231.984 252.659 232.029 252.695C232.073 252.731 232.136 252.758 232.217 252.775C232.217 252.775 232.226 252.775 232.235 252.775L239.368 254.526L238.696 254.786C238.543 254.849 238.445 254.938 238.454 255.037L239.054 264.129C239.054 264.174 239.081 264.219 239.126 264.255C239.171 264.29 239.233 264.317 239.314 264.335H239.332L252.774 267.629C252.935 267.665 253.132 267.656 253.293 267.593L254.198 267.252L254.234 267.827C254.234 267.871 254.261 267.916 254.306 267.952C254.351 267.988 254.413 268.015 254.494 268.033H254.512L267.954 271.327C268.115 271.363 268.312 271.354 268.473 271.291L284.227 265.269C284.236 265.269 284.245 265.26 284.254 265.251C284.317 265.224 284.37 265.188 284.415 265.152C284.433 265.134 284.433 265.116 284.442 265.098C284.46 265.071 284.478 265.044 284.478 265.017L284.218 261.239L290.392 262.756C290.554 262.792 290.751 262.783 290.912 262.72L306.666 256.698C306.675 256.698 306.684 256.689 306.693 256.68C306.755 256.653 306.809 256.617 306.845 256.581C306.863 256.563 306.863 256.545 306.872 256.527C306.89 256.5 306.908 256.473 306.908 256.446V256.365L334.382 250.989L340.637 252.524C340.798 252.56 340.996 252.551 341.157 252.488L342.062 252.147L342.098 252.722C342.098 252.722 342.125 252.811 342.17 252.847C342.214 252.883 342.277 252.91 342.358 252.928H342.376L355.817 256.222C355.979 256.258 356.176 256.249 356.337 256.186L372.091 250.164C372.091 250.164 372.109 250.155 372.118 250.146C372.18 250.119 372.234 250.083 372.27 250.047C372.288 250.029 372.279 250.02 372.288 250.002C372.306 249.975 372.333 249.948 372.333 249.912L372.297 249.401L373.13 249.607C373.291 249.643 373.489 249.634 373.65 249.571L389.404 243.549L389.377 243.621ZM365.235 204.714C365.235 204.759 365.262 204.804 365.307 204.84C365.352 204.876 365.415 204.903 365.495 204.921H365.513L365.943 205.028L333.889 210.665L333.648 207.111L364.949 200.469L365.226 204.723L365.235 204.714ZM329.534 214.264L354.608 218.634L342.967 223.086C342.815 223.149 342.716 223.239 342.725 223.337L342.868 225.464L331.273 229.898L319.023 218.284L329.543 214.264H329.534ZM398.472 225.734L398.203 221.812C398.203 221.722 398.096 221.641 397.952 221.605L388.839 219.505L413.419 211.508V211.706C413.437 211.751 413.464 211.795 413.5 211.831C413.545 211.867 413.607 211.894 413.688 211.912H413.706L427.148 215.206C427.309 215.242 427.506 215.233 427.667 215.17L443.421 209.148C443.421 209.148 443.439 209.139 443.448 209.13C443.511 209.103 443.564 209.067 443.6 209.031C443.618 209.013 443.609 209.004 443.618 208.986C443.636 208.959 443.663 208.932 443.663 208.897L443.529 206.895L452.857 209.184C453.018 209.22 453.215 209.211 453.377 209.148L454.282 208.807L454.318 209.381C454.318 209.426 454.345 209.471 454.389 209.507C454.434 209.543 454.497 209.57 454.578 209.588H454.596L460.098 210.934L398.454 225.734H398.472ZM439.962 193.092L440.087 194.94C440.087 194.985 440.114 195.03 440.159 195.066C440.204 195.102 440.267 195.129 440.347 195.147H440.365L441.306 195.38L438.788 196.34C438.636 196.403 438.537 196.493 438.546 196.592L438.681 198.665L429.065 196.448C429.065 196.448 429.029 196.43 429.012 196.421C428.859 196.385 428.662 196.403 428.51 196.457L413.079 202.354C412.917 202.417 412.828 202.506 412.837 202.605L413.348 210.351L386.724 219.011L384.224 218.437C384.224 218.437 384.188 218.419 384.17 218.41C384.018 218.374 383.821 218.392 383.668 218.446L373.085 222.494L372.951 220.519C372.951 220.429 372.852 220.349 372.7 220.313L358.963 217.145C358.963 217.145 358.927 217.127 358.909 217.118C358.748 217.082 358.559 217.1 358.407 217.154L356.704 217.809L331.631 213.438L333.782 212.621C333.791 212.621 333.8 212.612 333.809 212.603C333.872 212.576 333.925 212.54 333.961 212.505C333.979 212.487 333.97 212.478 333.979 212.46C333.997 212.433 334.024 212.406 334.024 212.37L333.979 211.706L368.515 205.63L378.964 208.188C379.125 208.223 379.322 208.214 379.484 208.152L395.237 202.129C395.246 202.129 395.255 202.12 395.264 202.111C395.327 202.084 395.381 202.049 395.416 202.013C395.434 201.995 395.425 201.986 395.434 201.968C395.452 201.941 395.479 201.914 395.479 201.878L395.416 200.9L439.971 193.065L439.962 193.092ZM350.548 184.763L350.692 186.98C350.692 187.024 350.718 187.069 350.763 187.105C350.808 187.141 350.871 187.168 350.951 187.186H350.969L360.128 189.43L360.396 193.567C360.396 193.612 360.423 193.657 360.468 193.693C360.513 193.729 360.576 193.756 360.656 193.774H360.674L365.755 195.021L364.85 195.362C364.698 195.425 364.599 195.515 364.608 195.614L364.859 199.374L333.558 206.016L333.37 203.296C333.37 203.206 333.271 203.126 333.119 203.09L325.6 201.358L350.53 184.754L350.548 184.763ZM304.775 215.583L316.854 218.545L330.108 231.11L330.52 237.311L302.49 246.43L300.724 246.026L300.267 239.349C300.267 239.259 300.16 239.178 300.017 239.142L286.279 235.974C286.279 235.974 286.252 235.956 286.225 235.956C286.064 235.92 285.876 235.938 285.724 235.992L285.123 236.226L285.087 235.651C285.087 235.561 284.989 235.481 284.836 235.445L282.139 234.825L304.784 215.583H304.775ZM306.809 255.369L306.271 247.435C306.271 247.346 306.164 247.265 306.02 247.229L304.623 246.906L326.434 239.807C326.353 239.86 326.29 239.923 326.299 239.995L326.9 249.087C326.9 249.132 326.927 249.176 326.972 249.212C327.016 249.248 327.079 249.275 327.16 249.293C327.16 249.293 327.169 249.293 327.178 249.293L331.909 250.451L306.827 255.36L306.809 255.369Z" fill="#918973"/>
</g>
<path d="M312.931 64.23L295.443 141.262L297.19 141.66L314.678 64.628L312.931 64.23Z" fill="#21170E"/>
<path d="M275.888 58.8034L239.522 162.463L241.213 163.058L277.579 59.3985L275.888 58.8034Z" fill="#21170E"/>
<path d="M285.462 94.1965L275.4 213.715L277.186 213.865L287.248 94.3473L285.462 94.1965Z" fill="#21170E"/>
<path d="M266.138 147.17L236.063 167.579L237.068 169.065L267.143 148.656L266.138 147.17Z" fill="#21170E"/>
<path d="M231.314 181.639L229.692 182.403L246.054 217.245L247.676 216.481L231.314 181.639Z" fill="#21170E"/>
<path d="M217.512 175.465L231.07 183.022V167.001L217.512 159.444V175.465Z" fill="#D69D2C"/>
<path d="M231.07 183.47C230.998 183.47 230.918 183.452 230.855 183.416L217.297 175.86C217.153 175.779 217.064 175.626 217.064 175.465V159.444C217.064 159.283 217.144 159.139 217.288 159.058C217.422 158.977 217.592 158.977 217.736 159.058L231.294 166.615C231.437 166.696 231.527 166.849 231.527 167.01V183.031C231.527 183.192 231.446 183.336 231.303 183.416C231.231 183.461 231.151 183.479 231.079 183.479L231.07 183.47ZM217.96 175.204L230.622 182.268V167.27L217.96 160.207V175.204Z" fill="#21170E"/>
<path d="M217.512 159.462L231.07 167.001L243.373 160.09L229.815 152.551L217.512 159.462Z" fill="#FFC34C"/>
<path d="M231.07 167.45C230.998 167.45 230.918 167.432 230.855 167.396L217.297 159.857C217.153 159.776 217.064 159.633 217.064 159.462C217.064 159.301 217.153 159.148 217.297 159.067L229.6 152.156C229.735 152.085 229.896 152.076 230.039 152.156L243.598 159.695C243.741 159.776 243.831 159.92 243.831 160.09C243.831 160.252 243.741 160.404 243.598 160.485L231.294 167.396C231.222 167.432 231.151 167.45 231.079 167.45H231.07ZM218.426 159.462L231.061 166.49L242.451 160.099L229.815 153.072L218.426 159.462Z" fill="#21170E"/>
<path d="M243.373 176.443L231.07 183.022V167.01L243.373 160.09V176.443Z" fill="#544419"/>
<path d="M231.07 183.47C230.989 183.47 230.909 183.452 230.837 183.407C230.702 183.327 230.622 183.183 230.622 183.022V167.01C230.622 166.849 230.711 166.696 230.855 166.615L243.158 159.695C243.293 159.615 243.463 159.615 243.606 159.695C243.741 159.776 243.83 159.92 243.83 160.081V176.434C243.83 176.595 243.741 176.748 243.597 176.829L231.294 183.399C231.231 183.434 231.159 183.452 231.079 183.452L231.07 183.47ZM231.518 167.27V182.268L242.925 176.174V160.853L231.518 167.27Z" fill="#21170E"/>
<path d="M272.788 156.4L271.931 157.977L293.971 169.987L294.828 168.411L272.788 156.4Z" fill="#21170E"/>
<path d="M243.107 175.349L242.988 177.14L309.395 181.569L309.514 179.778L243.107 175.349Z" fill="#21170E"/>
<path d="M300.204 186.899L289.403 221.695L291.114 222.228L301.915 187.432L300.204 186.899Z" fill="#21170E"/>
<path d="M251.519 248.351L265.086 255.908V239.887L251.519 232.33V248.351Z" fill="#D69D2C"/>
<path d="M265.086 256.357C265.015 256.357 264.934 256.339 264.871 256.303L251.313 248.746C251.17 248.665 251.08 248.521 251.08 248.351V232.33C251.08 232.169 251.161 232.025 251.304 231.944C251.439 231.864 251.609 231.864 251.752 231.944L265.31 239.501C265.454 239.582 265.543 239.726 265.543 239.896V255.917C265.543 256.078 265.463 256.222 265.319 256.303C265.248 256.348 265.167 256.366 265.095 256.366L265.086 256.357ZM251.967 248.091L264.629 255.154V240.157L251.967 233.093V248.091Z" fill="#21170E"/>
<path d="M251.519 232.348L265.077 239.887L277.381 232.977L263.823 225.438L251.519 232.348Z" fill="#FFC34C"/>
<path d="M265.077 240.336C265.006 240.336 264.925 240.318 264.862 240.282L251.304 232.743C251.161 232.662 251.071 232.519 251.071 232.348C251.071 232.187 251.161 232.034 251.304 231.953L263.608 225.043C263.742 224.971 263.903 224.971 264.047 225.043L277.605 232.582C277.748 232.662 277.838 232.806 277.838 232.977C277.838 233.138 277.748 233.291 277.605 233.372L265.301 240.282C265.23 240.318 265.158 240.336 265.086 240.336H265.077ZM252.442 232.348L265.077 239.376L276.467 232.986L263.832 225.958L252.442 232.348Z" fill="#21170E"/>
<path d="M277.381 249.329L265.077 255.908V239.896L277.381 232.977V249.329Z" fill="#544419"/>
<path d="M265.077 256.357C264.997 256.357 264.916 256.339 264.844 256.294C264.71 256.213 264.629 256.069 264.629 255.908V239.896C264.629 239.735 264.719 239.582 264.862 239.501L277.166 232.582C277.3 232.501 277.47 232.501 277.614 232.582C277.748 232.662 277.838 232.806 277.838 232.968V249.32C277.838 249.482 277.748 249.634 277.605 249.715L265.301 256.294C265.239 256.33 265.167 256.348 265.086 256.348L265.077 256.357ZM265.525 240.157V255.163L276.933 249.069V233.748L265.525 240.166V240.157Z" fill="#21170E"/>
<path d="M266.636 256.563L280.195 264.129V248.1L266.636 240.543V256.563Z" fill="#D69D2C"/>
<path d="M280.195 264.578C280.123 264.578 280.042 264.56 279.98 264.524L266.421 256.967C266.278 256.886 266.188 256.742 266.188 256.572V240.552C266.188 240.39 266.269 240.246 266.413 240.166C266.547 240.085 266.717 240.085 266.861 240.166L280.419 247.723C280.562 247.803 280.652 247.947 280.652 248.117V264.138C280.652 264.299 280.571 264.443 280.428 264.524C280.356 264.569 280.275 264.587 280.204 264.587L280.195 264.578ZM267.085 256.303L279.747 263.366V248.369L267.085 241.305V256.303Z" fill="#21170E"/>
<path d="M266.636 240.56L280.195 248.1L292.498 241.189L278.94 233.659L266.636 240.56Z" fill="#FFC34C"/>
<path d="M280.195 248.548C280.123 248.548 280.042 248.53 279.98 248.494L266.421 240.955C266.278 240.875 266.188 240.731 266.188 240.56C266.188 240.399 266.278 240.246 266.421 240.166L278.725 233.255C278.859 233.183 279.021 233.174 279.164 233.255L292.722 240.794C292.866 240.875 292.955 241.018 292.955 241.189C292.955 241.35 292.866 241.503 292.722 241.584L280.419 248.494C280.347 248.53 280.275 248.548 280.204 248.548H280.195ZM267.551 240.56L280.186 247.588L291.575 241.198L278.94 234.17L267.551 240.56Z" fill="#21170E"/>
<path d="M292.498 257.55L280.195 264.12V248.108L292.498 241.189V257.55Z" fill="#544419"/>
<path d="M280.195 264.569C280.114 264.569 280.033 264.551 279.962 264.506C279.827 264.425 279.747 264.281 279.747 264.12V248.108C279.747 247.947 279.836 247.794 279.98 247.714L292.283 240.794C292.418 240.713 292.588 240.713 292.731 240.794C292.866 240.875 292.955 241.018 292.955 241.18V257.532C292.955 257.694 292.866 257.846 292.722 257.927L280.419 264.497C280.356 264.533 280.284 264.551 280.204 264.551L280.195 264.569ZM280.643 248.369V263.366L292.05 257.272V241.952L280.643 248.369Z" fill="#21170E"/>
<path d="M232.047 258.843L245.605 266.409V250.379L232.047 242.822V258.843Z" fill="#D69D2C"/>
<path d="M245.605 266.857C245.533 266.857 245.452 266.839 245.39 266.803L231.832 259.247C231.688 259.166 231.599 259.022 231.599 258.852V242.831C231.599 242.67 231.679 242.526 231.823 242.445C231.957 242.364 232.127 242.364 232.271 242.445L245.829 250.002C245.972 250.083 246.062 250.227 246.062 250.397V266.418C246.062 266.579 245.981 266.723 245.838 266.803C245.766 266.848 245.685 266.866 245.614 266.866L245.605 266.857ZM232.495 258.582L245.157 265.646V250.648L232.495 243.585V258.582Z" fill="#21170E"/>
<path d="M232.047 242.84L245.605 250.379L257.908 243.468L244.35 235.929L232.047 242.84Z" fill="#FFC34C"/>
<path d="M245.605 250.828C245.533 250.828 245.452 250.81 245.39 250.774L231.832 243.235C231.688 243.154 231.599 243.011 231.599 242.84C231.599 242.679 231.688 242.526 231.832 242.445L244.135 235.534C244.27 235.463 244.431 235.454 244.574 235.534L258.132 243.073C258.276 243.154 258.365 243.298 258.365 243.468C258.365 243.63 258.276 243.783 258.132 243.863L245.829 250.774C245.757 250.81 245.685 250.828 245.614 250.828H245.605ZM232.961 242.84L245.596 249.868L256.985 243.477L244.35 236.45L232.961 242.84Z" fill="#21170E"/>
<path d="M257.908 259.83L245.605 266.4V250.388L257.908 243.468V259.83Z" fill="#544419"/>
<path d="M245.605 266.848C245.524 266.848 245.443 266.83 245.372 266.786C245.237 266.705 245.157 266.561 245.157 266.4V250.388C245.157 250.227 245.246 250.074 245.39 249.993L257.693 243.073C257.828 242.993 257.998 242.993 258.141 243.073C258.276 243.154 258.365 243.298 258.365 243.459V259.812C258.365 259.973 258.276 260.126 258.132 260.207L245.829 266.777C245.766 266.812 245.694 266.83 245.614 266.83L245.605 266.848ZM246.053 250.648V265.655L257.46 259.561V244.24L246.053 250.657V250.648Z" fill="#21170E"/>
<path d="M252.801 263.994L266.368 271.551V255.531L252.801 247.974V263.994Z" fill="#D69D2C"/>
<path d="M266.368 272C266.296 272 266.215 271.982 266.153 271.946L252.595 264.389C252.451 264.308 252.362 264.165 252.362 263.994V247.974C252.362 247.812 252.442 247.669 252.586 247.588C252.72 247.507 252.89 247.507 253.034 247.588L266.592 255.145C266.735 255.226 266.825 255.369 266.825 255.54V271.56C266.825 271.722 266.744 271.865 266.601 271.946C266.529 271.991 266.448 272.009 266.377 272.009L266.368 272ZM253.249 263.734L265.911 270.797V255.8L253.249 248.737V263.734Z" fill="#21170E"/>
<path d="M252.801 247.992L266.359 255.522L278.671 248.62L265.104 241.081L252.801 247.992Z" fill="#FFC34C"/>
<path d="M266.359 255.971C266.287 255.971 266.206 255.953 266.144 255.917L252.586 248.378C252.442 248.297 252.353 248.153 252.353 247.983C252.353 247.812 252.442 247.669 252.586 247.588L264.889 240.677C265.024 240.605 265.185 240.605 265.328 240.677L278.886 248.216C279.03 248.297 279.119 248.441 279.119 248.611C279.119 248.773 279.03 248.925 278.886 249.006L266.583 255.917C266.511 255.953 266.439 255.971 266.368 255.971H266.359ZM253.724 247.992L266.359 255.019L277.748 248.629L265.113 241.602L253.724 247.992Z" fill="#21170E"/>
<path d="M278.671 264.973L266.359 271.551V255.54L278.671 248.62V264.973Z" fill="#544419"/>
<path d="M266.359 272C266.278 272 266.197 271.982 266.126 271.937C265.991 271.856 265.911 271.713 265.911 271.551V255.54C265.911 255.378 266 255.226 266.144 255.145L278.447 248.225C278.582 248.144 278.752 248.144 278.895 248.225C279.03 248.306 279.119 248.45 279.119 248.611V264.964C279.119 265.125 279.03 265.278 278.886 265.359L266.583 271.928C266.52 271.964 266.448 271.982 266.368 271.982L266.359 272ZM266.807 255.8V270.797L278.214 264.703V249.383L266.807 255.8Z" fill="#21170E"/>
<path d="M251.519 230.383L265.086 237.94V221.91L251.519 214.353V230.383Z" fill="#D69D2C"/>
<path d="M265.086 238.389C265.015 238.389 264.934 238.371 264.871 238.335L251.313 230.778C251.17 230.697 251.08 230.553 251.08 230.383V214.362C251.08 214.201 251.161 214.057 251.304 213.976C251.439 213.896 251.609 213.896 251.752 213.976L265.31 221.533C265.454 221.614 265.543 221.758 265.543 221.928V237.949C265.543 238.11 265.463 238.254 265.319 238.335C265.248 238.38 265.167 238.398 265.095 238.398L265.086 238.389ZM251.967 230.114L264.629 237.177V222.18L251.967 215.116V230.114Z" fill="#21170E"/>
<path d="M251.519 214.371L265.077 221.91L277.381 215L263.823 207.47L251.519 214.371Z" fill="#FFC34C"/>
<path d="M265.077 222.359C265.006 222.359 264.925 222.341 264.862 222.305L251.304 214.766C251.161 214.685 251.071 214.542 251.071 214.371C251.071 214.21 251.161 214.057 251.304 213.976L263.608 207.066C263.742 206.994 263.903 206.994 264.047 207.066L277.605 214.605C277.748 214.685 277.838 214.829 277.838 215C277.838 215.161 277.748 215.314 277.605 215.395L265.301 222.305C265.23 222.341 265.158 222.359 265.086 222.359H265.077ZM252.442 214.371L265.077 221.399L276.467 215.009L263.832 207.981L252.442 214.371Z" fill="#21170E"/>
<path d="M277.381 231.361L265.077 237.931V221.919L277.381 215V231.361Z" fill="#544419"/>
<path d="M265.077 238.38C264.997 238.38 264.916 238.362 264.844 238.317C264.71 238.236 264.629 238.092 264.629 237.931V221.919C264.629 221.758 264.719 221.605 264.862 221.524L277.166 214.605C277.3 214.524 277.47 214.524 277.614 214.605C277.748 214.685 277.838 214.829 277.838 214.991V231.343C277.838 231.505 277.748 231.657 277.605 231.738L265.301 238.308C265.239 238.344 265.167 238.362 265.086 238.362L265.077 238.38ZM265.525 222.18V237.186L276.933 231.092V215.771L265.525 222.189V222.18Z" fill="#21170E"/>
<path d="M266.636 233.273L280.195 240.83V224.809L266.636 217.252V233.273Z" fill="#D69D2C"/>
<path d="M280.195 241.279C280.123 241.279 280.042 241.261 279.98 241.225L266.421 233.668C266.278 233.587 266.188 233.443 266.188 233.273V217.252C266.188 217.091 266.269 216.947 266.413 216.866C266.547 216.786 266.717 216.786 266.861 216.866L280.419 224.423C280.562 224.504 280.652 224.648 280.652 224.818V240.839C280.652 241 280.571 241.144 280.428 241.225C280.356 241.27 280.275 241.287 280.204 241.287L280.195 241.279ZM267.085 233.013L279.747 240.076V225.079L267.085 218.015V233.013Z" fill="#21170E"/>
<path d="M266.636 217.27L280.195 224.8L292.498 217.899L278.94 210.359L266.636 217.27Z" fill="#FFC34C"/>
<path d="M280.195 225.249C280.123 225.249 280.042 225.231 279.98 225.195L266.421 217.656C266.278 217.575 266.188 217.432 266.188 217.261C266.188 217.1 266.278 216.947 266.421 216.866L278.725 209.956C278.859 209.884 279.021 209.884 279.164 209.956L292.722 217.495C292.866 217.575 292.955 217.719 292.955 217.89C292.955 218.051 292.866 218.204 292.722 218.284L280.419 225.195C280.347 225.231 280.275 225.249 280.204 225.249H280.195ZM267.551 217.27L280.186 224.298L291.575 217.908L278.94 210.88L267.551 217.27Z" fill="#21170E"/>
<path d="M292.498 234.251L280.195 240.83V224.818L292.498 217.899V234.251Z" fill="#544419"/>
<path d="M280.195 241.278C280.114 241.278 280.033 241.261 279.962 241.216C279.827 241.135 279.747 240.991 279.747 240.83V224.818C279.747 224.657 279.836 224.504 279.98 224.423L292.283 217.504C292.418 217.423 292.588 217.423 292.731 217.504C292.866 217.584 292.955 217.728 292.955 217.89V234.242C292.955 234.404 292.866 234.556 292.722 234.637L280.419 241.216C280.356 241.252 280.284 241.27 280.204 241.27L280.195 241.278ZM280.643 225.079V240.085L292.05 233.991V218.67L280.643 225.088V225.079Z" fill="#21170E"/>
<path d="M237.692 237.805L251.25 245.362V229.342L237.692 221.785V237.805Z" fill="#D69D2C"/>
<path d="M251.25 245.811C251.179 245.811 251.098 245.793 251.035 245.757L237.477 238.2C237.334 238.119 237.244 237.976 237.244 237.805V221.785C237.244 221.623 237.325 221.48 237.468 221.399C237.603 221.318 237.773 221.318 237.916 221.399L251.474 228.956C251.618 229.037 251.707 229.18 251.707 229.351V245.371C251.707 245.533 251.627 245.676 251.483 245.757C251.412 245.802 251.331 245.82 251.259 245.82L251.25 245.811ZM238.14 237.545L250.802 244.608V229.611L238.14 222.548V237.545Z" fill="#21170E"/>
<path d="M237.692 221.803L251.25 229.342L263.554 222.431L249.996 214.892L237.692 221.803Z" fill="#FFC34C"/>
<path d="M251.25 229.79C251.179 229.79 251.098 229.773 251.035 229.737L237.477 222.198C237.334 222.117 237.244 221.973 237.244 221.803C237.244 221.641 237.334 221.489 237.477 221.408L249.781 214.497C249.915 214.425 250.076 214.425 250.22 214.497L263.778 222.036C263.921 222.117 264.011 222.26 264.011 222.431C264.011 222.593 263.921 222.745 263.778 222.826L251.474 229.737C251.403 229.773 251.331 229.79 251.259 229.79H251.25ZM238.615 221.803L251.25 228.83L262.64 222.44L250.005 215.412L238.615 221.803Z" fill="#21170E"/>
<path d="M263.554 238.783L251.25 245.362V229.351L263.554 222.431V238.783Z" fill="#544419"/>
<path d="M251.25 245.811C251.17 245.811 251.089 245.793 251.017 245.748C250.883 245.667 250.802 245.524 250.802 245.362V229.351C250.802 229.189 250.892 229.037 251.035 228.956L263.339 222.036C263.473 221.955 263.644 221.955 263.787 222.036C263.921 222.117 264.011 222.26 264.011 222.422V238.774C264.011 238.936 263.921 239.089 263.778 239.169L251.474 245.739C251.412 245.775 251.34 245.793 251.259 245.793L251.25 245.811ZM251.698 229.611V244.617L263.106 238.523V223.203L251.698 229.62V229.611Z" fill="#21170E"/>
<path d="M252.801 246.026L266.368 253.583V237.554L252.801 229.997V246.026Z" fill="#D69D2C"/>
<path d="M266.368 254.032C266.296 254.032 266.215 254.014 266.153 253.978L252.595 246.421C252.451 246.34 252.362 246.197 252.362 246.026V230.006C252.362 229.844 252.442 229.701 252.586 229.62C252.72 229.539 252.89 229.539 253.034 229.62L266.592 237.177C266.735 237.258 266.825 237.401 266.825 237.572V253.592C266.825 253.754 266.744 253.897 266.601 253.978C266.529 254.023 266.448 254.041 266.377 254.041L266.368 254.032ZM253.249 245.757L265.911 252.82V237.823L253.249 230.76V245.757Z" fill="#21170E"/>
<path d="M252.801 230.015L266.359 237.554L278.671 230.643L265.104 223.113L252.801 230.015Z" fill="#FFC34C"/>
<path d="M266.359 238.003C266.287 238.003 266.206 237.985 266.144 237.949L252.586 230.41C252.442 230.329 252.353 230.185 252.353 230.015C252.353 229.853 252.442 229.701 252.586 229.62L264.889 222.709C265.024 222.637 265.185 222.628 265.328 222.709L278.886 230.248C279.03 230.329 279.119 230.473 279.119 230.643C279.119 230.805 279.03 230.957 278.886 231.038L266.583 237.949C266.511 237.985 266.439 238.003 266.368 238.003H266.359ZM253.724 230.015L266.359 237.042L277.748 230.652L265.113 223.625L253.724 230.015Z" fill="#21170E"/>
<path d="M278.671 247.005L266.359 253.574V237.563L278.671 230.643V247.005Z" fill="#544419"/>
<path d="M266.359 254.023C266.278 254.023 266.197 254.005 266.126 253.96C265.991 253.879 265.911 253.736 265.911 253.574V237.563C265.911 237.401 266 237.249 266.144 237.168L278.447 230.248C278.582 230.167 278.752 230.167 278.895 230.248C279.03 230.329 279.119 230.473 279.119 230.634V246.987C279.119 247.148 279.03 247.301 278.886 247.382L266.583 253.951C266.52 253.987 266.448 254.005 266.368 254.005L266.359 254.023ZM266.807 237.823V252.829L278.214 246.735V231.415L266.807 237.832V237.823Z" fill="#21170E"/>
<path d="M277.703 56.3391L291.27 63.8961V47.8756L277.703 40.3097V56.3391Z" fill="#D69D2C"/>
<path d="M291.27 64.3448C291.199 64.3448 291.118 64.3268 291.055 64.2909L277.497 56.734C277.354 56.6532 277.264 56.5006 277.264 56.3391V40.3186C277.264 40.1571 277.345 40.0135 277.488 39.9327C277.623 39.8519 277.793 39.8519 277.936 39.9327L291.494 47.4897C291.638 47.5705 291.727 47.723 291.727 47.8846V63.905C291.727 64.0666 291.647 64.2102 291.503 64.2909C291.432 64.3358 291.351 64.3538 291.279 64.3538L291.27 64.3448ZM278.151 56.0698L290.813 63.1332V48.1359L278.151 41.0725V56.0698Z" fill="#21170E"/>
<path d="M277.703 40.3276L291.261 47.8666L303.565 40.9558L290.007 33.4258L277.703 40.3276Z" fill="#FFC34C"/>
<path d="M291.261 48.3154C291.19 48.3154 291.109 48.2974 291.046 48.2615L277.488 40.7225C277.345 40.6417 277.255 40.4981 277.255 40.3276C277.255 40.166 277.345 40.0135 277.488 39.9327L289.792 33.0219C289.926 32.9501 290.087 32.9412 290.231 33.0219L303.789 40.561C303.932 40.6417 304.022 40.7853 304.022 40.9559C304.022 41.1174 303.932 41.27 303.789 41.3508L291.485 48.2615C291.414 48.2974 291.342 48.3154 291.27 48.3154H291.261ZM278.626 40.3276L291.261 47.355L302.651 40.9648L290.016 33.9374L278.626 40.3276Z" fill="#21170E"/>
<path d="M303.565 57.3174L291.261 63.8871V47.8756L303.565 40.9559V57.3174Z" fill="#544419"/>
<path d="M291.261 64.3358C291.181 64.3358 291.1 64.3179 291.028 64.273C290.894 64.1922 290.813 64.0486 290.813 63.8871V47.8756C290.813 47.714 290.903 47.5615 291.046 47.4807L303.35 40.5609C303.484 40.4802 303.654 40.4802 303.798 40.5609C303.932 40.6417 304.022 40.7853 304.022 40.9469V57.2994C304.022 57.4609 303.932 57.6135 303.789 57.6943L291.485 64.264C291.423 64.2999 291.351 64.3179 291.27 64.3179L291.261 64.3358ZM291.709 48.1359V63.1332L303.117 57.0391V41.7187L291.709 48.1359Z" fill="#21170E"/>
<path d="M292.812 64.5513L306.379 72.1082V56.0878L292.812 48.5219V64.5513Z" fill="#D69D2C"/>
<path d="M306.379 72.557C306.307 72.557 306.226 72.539 306.164 72.5031L292.606 64.9461C292.462 64.8654 292.373 64.7128 292.373 64.5512V48.5308C292.373 48.3692 292.453 48.2256 292.597 48.1449C292.731 48.0641 292.901 48.0641 293.045 48.1449L306.603 55.7018C306.746 55.7826 306.836 55.9352 306.836 56.0967V72.1172C306.836 72.2787 306.755 72.4223 306.612 72.5031C306.54 72.548 306.459 72.5659 306.388 72.5659L306.379 72.557ZM293.26 64.282L305.922 71.3453V56.348L293.26 49.2847V64.282Z" fill="#21170E"/>
<path d="M292.812 48.5487L306.379 56.0788L318.682 49.177L305.124 41.6379L292.812 48.5487Z" fill="#FFC34C"/>
<path d="M306.379 56.5275C306.307 56.5275 306.226 56.5096 306.164 56.4737L292.606 48.9347C292.462 48.8539 292.373 48.7103 292.373 48.5398C292.373 48.3782 292.462 48.2256 292.606 48.1449L304.909 41.2341C305.044 41.1623 305.205 41.1533 305.348 41.2341L318.906 48.7731C319.05 48.8539 319.139 48.9975 319.139 49.168C319.139 49.3296 319.05 49.4821 318.906 49.5629L306.603 56.4737C306.531 56.5096 306.459 56.5275 306.388 56.5275H306.379ZM293.735 48.5398L306.37 55.5672L317.759 49.177L305.124 42.1495L293.735 48.5398Z" fill="#21170E"/>
<path d="M318.682 65.5295L306.379 72.0992V56.0878L318.682 49.177V65.5295Z" fill="#544419"/>
<path d="M306.379 72.548C306.298 72.548 306.217 72.53 306.146 72.4851C306.011 72.4044 305.931 72.2608 305.931 72.0992V56.0878C305.931 55.9262 306.02 55.7736 306.164 55.6929L318.467 48.7731C318.602 48.6923 318.772 48.6923 318.915 48.7731C319.05 48.8539 319.139 48.9975 319.139 49.159V65.5115C319.139 65.6731 319.05 65.8257 318.906 65.9064L306.603 72.4762C306.54 72.5121 306.468 72.53 306.388 72.53L306.379 72.548ZM306.827 56.357V71.3543L318.234 65.2602V49.9399L306.827 56.357Z" fill="#21170E"/>
<path d="M273.447 95.3356L287.005 102.893V86.8721L273.447 79.3062V95.3356Z" fill="#D69D2C"/>
<path d="M287.005 103.341C286.933 103.341 286.853 103.323 286.79 103.287L273.232 95.7305C273.088 95.6497 272.999 95.4971 272.999 95.3356V79.3152C272.999 79.1536 273.079 79.01 273.223 78.9292C273.357 78.8485 273.527 78.8485 273.671 78.9292L287.229 86.4862C287.372 86.567 287.462 86.7196 287.462 86.8811V102.902C287.462 103.063 287.381 103.207 287.238 103.287C287.166 103.332 287.086 103.35 287.014 103.35L287.005 103.341ZM273.895 95.0663L286.557 102.13V87.1324L273.895 80.0691V95.0663Z" fill="#21170E"/>
<path d="M273.447 79.3241L287.005 86.8631L299.309 79.9524L285.75 72.4223L273.447 79.3241Z" fill="#FFC34C"/>
<path d="M287.005 87.3119C286.933 87.3119 286.853 87.294 286.79 87.2581L273.232 79.719C273.088 79.6382 272.999 79.4946 272.999 79.3241C272.999 79.1626 273.088 79.01 273.232 78.9292L285.535 72.0184C285.67 71.9466 285.831 71.9377 285.974 72.0184L299.533 79.5575C299.676 79.6382 299.766 79.7819 299.766 79.9524C299.766 80.1139 299.676 80.2665 299.533 80.3473L287.229 87.2581C287.157 87.294 287.086 87.3119 287.014 87.3119H287.005ZM274.361 79.3241L286.996 86.3516L298.386 79.9613L285.75 72.9339L274.361 79.3241Z" fill="#21170E"/>
<path d="M299.308 96.3138L287.005 102.884V86.8721L299.308 79.9523V96.3138Z" fill="#544419"/>
<path d="M287.005 103.332C286.924 103.332 286.844 103.314 286.772 103.269C286.638 103.189 286.557 103.045 286.557 102.884V86.8721C286.557 86.7105 286.646 86.558 286.79 86.4772L299.093 79.5574C299.228 79.4767 299.398 79.4856 299.542 79.5574C299.676 79.6382 299.766 79.7818 299.766 79.9434V96.2959C299.766 96.4574 299.676 96.61 299.533 96.6908L287.229 103.26C287.166 103.296 287.095 103.314 287.014 103.314L287.005 103.332ZM287.453 87.1324V102.13L298.86 96.0356V80.7152L287.453 87.1324Z" fill="#21170E"/>
<path d="M278.985 71.9826L292.552 79.5396V63.5191L278.985 55.9532V71.9826Z" fill="#D69D2C"/>
<path d="M292.552 79.9883C292.48 79.9883 292.4 79.9703 292.337 79.9344L278.779 72.3775C278.635 72.2967 278.546 72.1441 278.546 71.9826V55.9621C278.546 55.8006 278.626 55.657 278.77 55.5762C278.904 55.4954 279.074 55.4954 279.218 55.5762L292.776 63.1332C292.919 63.214 293.009 63.3665 293.009 63.5281V79.5485C293.009 79.7101 292.928 79.8537 292.785 79.9344C292.713 79.9793 292.633 79.9973 292.561 79.9973L292.552 79.9883ZM279.433 71.7133L292.095 78.7767V63.7794L279.433 56.716V71.7133Z" fill="#21170E"/>
<path d="M278.985 55.9711L292.543 63.5101L304.846 56.5993L291.288 49.0693L278.985 55.9711Z" fill="#FFC34C"/>
<path d="M292.543 63.9589C292.471 63.9589 292.39 63.9409 292.328 63.905L278.77 56.366C278.626 56.2852 278.537 56.1416 278.537 55.9711C278.537 55.8095 278.626 55.657 278.77 55.5762L291.073 48.6654C291.208 48.5936 291.369 48.5846 291.512 48.6654L305.07 56.2044C305.214 56.2852 305.303 56.4288 305.303 56.5993C305.303 56.7609 305.214 56.9135 305.07 56.9942L292.767 63.905C292.695 63.9409 292.623 63.9589 292.552 63.9589H292.543ZM279.908 55.9711L292.543 62.9985L303.932 56.6083L291.297 49.5809L279.908 55.9711Z" fill="#21170E"/>
<path d="M304.846 72.9608L292.543 79.5306V63.5191L304.846 56.5994V72.9608Z" fill="#544419"/>
<path d="M292.543 79.9793C292.462 79.9793 292.381 79.9613 292.31 79.9165C292.175 79.8357 292.095 79.6921 292.095 79.5305V63.5191C292.095 63.3575 292.184 63.205 292.328 63.1242L304.631 56.2044C304.766 56.1237 304.936 56.1237 305.079 56.2044C305.214 56.2852 305.303 56.4288 305.303 56.5904V72.9429C305.303 73.1044 305.214 73.257 305.07 73.3378L292.767 79.9075C292.704 79.9434 292.632 79.9613 292.552 79.9613L292.543 79.9793ZM292.991 63.7794V78.7856L304.398 72.6916V57.3712L292.991 63.7883V63.7794Z" fill="#21170E"/>
<path d="M277.703 38.3621L291.27 45.9191V29.8987L277.703 22.3417V38.3621Z" fill="#D69D2C"/>
<path d="M291.27 46.3678C291.199 46.3678 291.118 46.3499 291.055 46.314L277.497 38.757C277.354 38.6762 277.264 38.5236 277.264 38.3621V22.3416C277.264 22.1801 277.345 22.0365 277.488 21.9557C277.623 21.8749 277.793 21.8749 277.936 21.9557L291.494 29.5127C291.638 29.5935 291.727 29.7461 291.727 29.9076V45.928C291.727 46.0896 291.647 46.2332 291.503 46.314C291.432 46.3588 291.351 46.3768 291.279 46.3768L291.27 46.3678ZM278.151 38.0928L290.813 45.1562V30.1589L278.151 23.0956V38.0928Z" fill="#21170E"/>
<path d="M277.703 22.3596L291.261 29.8896L303.565 22.9878L290.007 15.4488L277.703 22.3596Z" fill="#FFC34C"/>
<path d="M291.261 30.3384C291.19 30.3384 291.109 30.3204 291.046 30.2845L277.488 22.7455C277.345 22.6647 277.255 22.5211 277.255 22.3506C277.255 22.1891 277.345 22.0365 277.488 21.9557L289.792 15.0539C289.926 14.9821 290.087 14.9731 290.231 15.0539L303.789 22.5929C303.932 22.6737 304.022 22.8173 304.022 22.9878C304.022 23.1494 303.932 23.302 303.789 23.3827L291.485 30.2935C291.414 30.3294 291.342 30.3474 291.27 30.3474L291.261 30.3384ZM278.626 22.3506L291.261 29.3781L302.651 22.9878L290.016 15.9604L278.626 22.3506Z" fill="#21170E"/>
<path d="M303.565 39.3404L291.261 45.9191V29.8986L303.565 22.9879V39.3404Z" fill="#544419"/>
<path d="M291.261 46.3678C291.181 46.3678 291.1 46.3498 291.028 46.305C290.894 46.2242 290.813 46.0806 290.813 45.919V29.9076C290.813 29.746 290.903 29.5935 291.046 29.5127L303.35 22.5929C303.484 22.5122 303.654 22.5122 303.798 22.5929C303.932 22.6737 304.022 22.8173 304.022 22.9789V39.3314C304.022 39.4929 303.932 39.6455 303.789 39.7263L291.485 46.296C291.423 46.3319 291.351 46.3498 291.27 46.3498L291.261 46.3678ZM291.709 30.1679V45.1651L303.117 39.0711V23.7507L291.709 30.1679Z" fill="#21170E"/>
<path d="M292.812 41.2521L306.379 48.818V32.7886L292.812 25.2316V41.2521Z" fill="#D69D2C"/>
<path d="M306.379 49.2667C306.307 49.2667 306.226 49.2488 306.164 49.2129L292.606 41.6559C292.462 41.5751 292.373 41.4226 292.373 41.261V25.2316C292.373 25.0701 292.453 24.9265 292.597 24.8457C292.731 24.7649 292.901 24.7649 293.045 24.8457L306.603 32.4027C306.746 32.4834 306.836 32.636 306.836 32.7976V48.818C306.836 48.9795 306.755 49.1231 306.612 49.2039C306.54 49.2488 306.459 49.2667 306.388 49.2667H306.379ZM293.26 40.9918L305.922 48.0551V33.0578L293.26 25.9945V40.9918Z" fill="#21170E"/>
<path d="M292.812 25.2495L306.379 32.7885L318.682 25.8778L305.124 18.3477L292.812 25.2495Z" fill="#FFC34C"/>
<path d="M306.379 33.2373C306.307 33.2373 306.226 33.2194 306.164 33.1835L292.606 25.6444C292.462 25.5637 292.373 25.4201 292.373 25.2495C292.373 25.088 292.462 24.9354 292.606 24.8546L304.909 17.9439C305.044 17.8721 305.205 17.8631 305.348 17.9439L318.906 25.4829C319.05 25.5637 319.139 25.7073 319.139 25.8778C319.139 26.0393 319.05 26.1919 318.906 26.2727L306.603 33.1835C306.531 33.2194 306.459 33.2373 306.388 33.2373H306.379ZM293.735 25.2495L306.37 32.277L317.759 25.8868L305.124 18.8593L293.735 25.2495Z" fill="#21170E"/>
<path d="M318.682 42.2393L306.379 48.809V32.7976L318.682 25.8778V42.2393Z" fill="#544419"/>
<path d="M306.379 49.2577C306.298 49.2577 306.217 49.2398 306.146 49.1949C306.011 49.1141 305.931 48.9705 305.931 48.809V32.7975C305.931 32.636 306.02 32.4834 306.164 32.4026L318.467 25.4829C318.602 25.4021 318.772 25.4021 318.915 25.4829C319.05 25.5637 319.139 25.7073 319.139 25.8688V42.2213C319.139 42.3829 319.05 42.5354 318.906 42.6162L306.603 49.1859C306.54 49.2218 306.468 49.2398 306.388 49.2398L306.379 49.2577ZM306.827 33.0578V48.0551L318.234 41.961V26.6496L306.827 33.0668V33.0578Z" fill="#21170E"/>
<path d="M263.876 61.8857L277.434 69.4426V53.4222L263.876 45.8652V61.8857Z" fill="#D69D2C"/>
<path d="M277.434 69.8914C277.363 69.8914 277.282 69.8734 277.219 69.8375L263.661 62.2805C263.518 62.1998 263.428 62.0472 263.428 61.8856V45.8652C263.428 45.7037 263.509 45.5601 263.652 45.4793C263.787 45.3985 263.957 45.3985 264.1 45.4793L277.658 53.0363C277.802 53.117 277.891 53.2696 277.891 53.4312V69.4516C277.891 69.6131 277.811 69.7567 277.667 69.8375C277.596 69.8824 277.515 69.9003 277.443 69.9003L277.434 69.8914ZM264.324 61.6254L276.986 68.6887V53.6914L264.324 46.6281V61.6254Z" fill="#21170E"/>
<path d="M263.876 45.8831L277.434 53.4222L289.738 46.5114L276.18 38.9724L263.876 45.8831Z" fill="#FFC34C"/>
<path d="M277.434 53.8709C277.363 53.8709 277.282 53.853 277.219 53.8171L263.661 46.278C263.518 46.1973 263.428 46.0537 263.428 45.8831C263.428 45.7216 263.518 45.569 263.661 45.4882L275.965 38.5775C276.099 38.5057 276.261 38.4967 276.404 38.5775L289.962 46.1165C290.105 46.1973 290.195 46.3409 290.195 46.5114C290.195 46.6729 290.105 46.8255 289.962 46.9063L277.658 53.8171C277.587 53.853 277.515 53.8709 277.443 53.8709H277.434ZM264.799 45.8831L277.434 52.9106L288.824 46.5204L276.189 39.4929L264.799 45.8831Z" fill="#21170E"/>
<path d="M289.738 62.8639L277.434 69.4426V53.4312L289.738 46.5114V62.8639Z" fill="#544419"/>
<path d="M277.434 69.8913C277.354 69.8913 277.273 69.8734 277.201 69.8285C277.067 69.7477 276.986 69.6041 276.986 69.4426V53.4311C276.986 53.2696 277.076 53.117 277.219 53.0362L289.523 46.1165C289.657 46.0357 289.828 46.0357 289.971 46.1165C290.105 46.1973 290.195 46.3409 290.195 46.5024V62.8549C290.195 63.0165 290.105 63.169 289.962 63.2498L277.658 69.8195C277.596 69.8554 277.524 69.8734 277.443 69.8734L277.434 69.8913ZM277.882 53.6914V68.6887L289.29 62.5946V47.2743L277.882 53.6914Z" fill="#21170E"/>
<path d="M278.985 54.0056L292.552 61.5626V45.5421L278.985 37.9852V54.0056Z" fill="#D69D2C"/>
<path d="M292.552 62.0113C292.48 62.0113 292.4 61.9933 292.337 61.9574L278.779 54.4005C278.635 54.3197 278.546 54.1671 278.546 54.0056V37.9851C278.546 37.8236 278.626 37.68 278.77 37.5992C278.904 37.5184 279.074 37.5184 279.218 37.5992L292.776 45.1562C292.919 45.237 293.009 45.3895 293.009 45.5511V61.5715C293.009 61.7331 292.928 61.8767 292.785 61.9574C292.713 62.0023 292.633 62.0203 292.561 62.0203L292.552 62.0113ZM279.433 53.7363L292.095 60.7997V45.8024L279.433 38.739V53.7363Z" fill="#21170E"/>
<path d="M278.985 38.0031L292.543 45.5331L304.846 38.6313L291.288 31.0923L278.985 38.0031Z" fill="#FFC34C"/>
<path d="M292.543 45.9819C292.471 45.9819 292.39 45.9639 292.328 45.928L278.77 38.389C278.626 38.3082 278.537 38.1646 278.537 37.9941C278.537 37.8326 278.626 37.68 278.77 37.5992L291.073 30.6884C291.208 30.6166 291.369 30.6077 291.512 30.6884L305.07 38.2275C305.214 38.3082 305.303 38.4518 305.303 38.6224C305.303 38.7839 305.214 38.9365 305.07 39.0173L292.767 45.928C292.695 45.9639 292.623 45.9819 292.552 45.9819H292.543ZM279.908 37.9941L292.543 45.0216L303.932 38.6313L291.297 31.6039L279.908 37.9941Z" fill="#21170E"/>
<path d="M304.846 54.9839L292.543 61.5536V45.5421L304.846 38.6313V54.9839Z" fill="#544419"/>
<path d="M292.543 62.0023C292.462 62.0023 292.381 61.9844 292.31 61.9395C292.175 61.8587 292.095 61.7151 292.095 61.5536V45.5421C292.095 45.3806 292.184 45.228 292.328 45.1472L304.631 38.2275C304.766 38.1467 304.936 38.1467 305.079 38.2275C305.214 38.3082 305.303 38.4518 305.303 38.6134V54.9659C305.303 55.1274 305.214 55.28 305.07 55.3608L292.767 61.9305C292.704 61.9664 292.632 61.9844 292.552 61.9844L292.543 62.0023ZM292.991 45.8114V60.8086L304.398 54.7146V39.3942L292.991 45.8114Z" fill="#21170E"/>
<path d="M278.411 173.338L291.969 180.895V164.874L278.411 157.317V173.338Z" fill="#FFF492"/>
<path d="M291.969 181.343C291.898 181.343 291.817 181.325 291.754 181.289L278.196 173.732C278.053 173.652 277.963 173.499 277.963 173.338V157.317C277.963 157.156 278.044 157.012 278.187 156.931C278.322 156.85 278.492 156.85 278.635 156.931L292.193 164.488C292.337 164.569 292.426 164.722 292.426 164.883V180.903C292.426 181.065 292.346 181.209 292.202 181.289C292.131 181.334 292.05 181.352 291.978 181.352L291.969 181.343ZM278.859 173.077L291.521 180.141V165.143L278.859 158.08V173.077Z" fill="#21170E"/>
<path d="M278.411 157.335L291.969 164.865L304.273 157.963L290.715 150.424L278.411 157.335Z" fill="white"/>
<path d="M291.969 165.314C291.898 165.314 291.817 165.296 291.754 165.26L278.196 157.721C278.053 157.64 277.963 157.497 277.963 157.326C277.963 157.165 278.053 157.012 278.196 156.931L290.5 150.02C290.634 149.94 290.795 149.94 290.939 150.02L304.497 157.559C304.64 157.64 304.73 157.784 304.73 157.954C304.73 158.116 304.64 158.268 304.497 158.349L292.193 165.26C292.122 165.296 292.05 165.314 291.978 165.314H291.969ZM279.334 157.335L291.969 164.363L303.359 157.972L290.724 150.945L279.334 157.335Z" fill="#21170E"/>
<path d="M304.273 174.316L291.969 180.895V164.883L304.273 157.963V174.316Z" fill="#FFC34C"/>
<path d="M291.969 181.343C291.889 181.343 291.808 181.325 291.736 181.28C291.602 181.2 291.521 181.056 291.521 180.894V164.883C291.521 164.721 291.611 164.569 291.754 164.488L304.058 157.568C304.192 157.488 304.362 157.488 304.506 157.568C304.64 157.649 304.73 157.793 304.73 157.954V174.307C304.73 174.468 304.64 174.621 304.497 174.702L292.193 181.271C292.131 181.307 292.059 181.325 291.978 181.325L291.969 181.343ZM292.417 165.143V180.141L303.825 174.047V158.726L292.417 165.143Z" fill="#21170E"/>
<path d="M293.52 181.55L307.087 189.107V173.086L293.52 165.529V181.55Z" fill="#FFF492"/>
<path d="M307.087 189.555C307.015 189.555 306.934 189.537 306.872 189.502L293.314 181.945C293.17 181.864 293.081 181.711 293.081 181.55V165.529C293.081 165.368 293.161 165.224 293.305 165.143C293.439 165.063 293.609 165.063 293.753 165.143L307.311 172.7C307.454 172.781 307.544 172.934 307.544 173.095V189.116C307.544 189.277 307.463 189.421 307.32 189.502C307.248 189.546 307.167 189.564 307.096 189.564L307.087 189.555ZM293.968 181.289L306.63 188.353V173.356L293.968 166.292V181.289Z" fill="#21170E"/>
<path d="M293.52 165.547L307.078 173.086L319.39 166.175L305.832 158.636L293.52 165.547Z" fill="white"/>
<path d="M307.078 173.535C307.006 173.535 306.925 173.517 306.863 173.481L293.305 165.942C293.161 165.861 293.072 165.718 293.072 165.547C293.072 165.386 293.161 165.233 293.305 165.152L305.608 158.242C305.743 158.17 305.904 158.161 306.047 158.242L319.605 165.781C319.749 165.861 319.838 166.005 319.838 166.175C319.838 166.337 319.749 166.49 319.605 166.57L307.302 173.481C307.23 173.517 307.158 173.535 307.087 173.535H307.078ZM294.443 165.547L307.078 172.575L318.467 166.184L305.832 159.157L294.443 165.547Z" fill="#21170E"/>
<path d="M319.39 182.528L307.078 189.107V173.095L319.39 166.175V182.528Z" fill="#FFC34C"/>
<path d="M307.078 189.555C306.997 189.555 306.916 189.537 306.845 189.493C306.71 189.412 306.63 189.268 306.63 189.107V173.095C306.63 172.934 306.719 172.781 306.863 172.7L319.166 165.781C319.301 165.7 319.471 165.7 319.614 165.781C319.749 165.861 319.838 166.005 319.838 166.166V182.519C319.838 182.681 319.749 182.833 319.605 182.914L307.302 189.484C307.239 189.52 307.167 189.537 307.087 189.537L307.078 189.555ZM307.526 173.355V188.362L318.933 182.268V166.947L307.526 173.364V173.355Z" fill="#21170E"/>
<path d="M267.99 177.978L281.548 185.544V169.514L267.99 161.957V177.978Z" fill="#FFF492"/>
<path d="M281.548 185.992C281.476 185.992 281.395 185.974 281.333 185.938L267.774 178.381C267.631 178.301 267.542 178.148 267.542 177.987V161.966C267.542 161.805 267.622 161.661 267.766 161.58C267.9 161.499 268.07 161.499 268.214 161.58L281.772 169.137C281.915 169.218 282.005 169.371 282.005 169.532V185.553C282.005 185.714 281.924 185.858 281.781 185.938C281.709 185.983 281.628 186.001 281.557 186.001L281.548 185.992ZM268.438 177.717L281.1 184.781V169.783L268.438 162.72V177.717Z" fill="#21170E"/>
<path d="M267.99 161.975L281.548 169.514L293.851 162.603L280.293 155.073L267.99 161.975Z" fill="white"/>
<path d="M281.548 169.963C281.476 169.963 281.395 169.945 281.333 169.909L267.774 162.37C267.631 162.289 267.542 162.146 267.542 161.975C267.542 161.814 267.631 161.661 267.774 161.58L280.078 154.669C280.212 154.598 280.374 154.589 280.517 154.669L294.075 162.208C294.219 162.289 294.308 162.433 294.308 162.603C294.308 162.765 294.219 162.917 294.075 162.998L281.772 169.909C281.7 169.945 281.628 169.963 281.557 169.963H281.548ZM268.913 161.975L281.548 169.003L292.937 162.612L280.302 155.585L268.913 161.975Z" fill="#21170E"/>
<path d="M293.851 178.965L281.548 185.535V169.523L293.851 162.603V178.965Z" fill="#FFC34C"/>
<path d="M281.548 185.983C281.467 185.983 281.386 185.965 281.315 185.92C281.18 185.84 281.1 185.696 281.1 185.535V169.523C281.1 169.362 281.189 169.209 281.333 169.128L293.636 162.208C293.771 162.128 293.941 162.128 294.084 162.208C294.219 162.289 294.308 162.433 294.308 162.594V178.947C294.308 179.108 294.219 179.261 294.075 179.342L281.772 185.912C281.709 185.947 281.637 185.965 281.557 185.965L281.548 185.983ZM281.996 169.783V184.79L293.403 178.696V163.375L281.996 169.792V169.783Z" fill="#21170E"/>
<path d="M279.693 188.981L293.251 196.538V180.518L279.693 172.961V188.981Z" fill="#FFF492"/>
<path d="M293.251 196.987C293.179 196.987 293.098 196.969 293.036 196.933L279.478 189.376C279.334 189.295 279.245 189.151 279.245 188.981V172.961C279.245 172.799 279.325 172.655 279.469 172.575C279.603 172.494 279.773 172.494 279.917 172.575L293.475 180.132C293.618 180.212 293.708 180.365 293.708 180.526V196.547C293.708 196.708 293.627 196.852 293.484 196.933C293.412 196.978 293.331 196.996 293.26 196.996L293.251 196.987ZM280.141 188.721L292.803 195.784V180.787L280.141 173.723V188.721Z" fill="#21170E"/>
<path d="M279.693 172.979L293.251 180.509L305.554 173.607L291.996 166.068L279.693 172.979Z" fill="white"/>
<path d="M293.251 180.957C293.179 180.957 293.098 180.939 293.036 180.903L279.478 173.364C279.334 173.284 279.245 173.14 279.245 172.97C279.245 172.808 279.334 172.655 279.478 172.575L291.781 165.664C291.916 165.592 292.077 165.583 292.22 165.664L305.778 173.203C305.922 173.284 306.011 173.427 306.011 173.598C306.011 173.759 305.922 173.912 305.778 173.993L293.475 180.903C293.403 180.939 293.331 180.957 293.26 180.957H293.251ZM280.616 172.978L293.251 180.006L304.64 173.616L292.005 166.588L280.616 172.978Z" fill="#21170E"/>
<path d="M305.554 189.959L293.251 196.538V180.518L305.554 173.607V189.959Z" fill="#FFC34C"/>
<path d="M293.251 196.987C293.17 196.987 293.089 196.969 293.018 196.924C292.883 196.843 292.803 196.699 292.803 196.538V180.526C292.803 180.365 292.892 180.212 293.036 180.132L305.339 173.212C305.474 173.131 305.644 173.131 305.787 173.212C305.922 173.293 306.011 173.436 306.011 173.598V189.959C306.011 190.121 305.922 190.273 305.778 190.354L293.475 196.924C293.412 196.96 293.34 196.978 293.26 196.978L293.251 196.987ZM293.699 180.787V195.793L305.106 189.699V174.379L293.699 180.796V180.787Z" fill="#21170E"/>
<path d="M280.499 146.161L294.066 153.718V137.698L280.499 130.132V146.161Z" fill="#FFF492"/>
<path d="M294.066 154.167C293.995 154.167 293.914 154.149 293.851 154.113L280.293 146.556C280.15 146.475 280.06 146.323 280.06 146.161V130.141C280.06 129.979 280.141 129.836 280.284 129.755C280.419 129.674 280.589 129.674 280.732 129.755L294.29 137.312C294.434 137.393 294.523 137.545 294.523 137.707V153.727C294.523 153.889 294.443 154.032 294.299 154.113C294.228 154.158 294.147 154.176 294.075 154.176L294.066 154.167ZM280.947 145.892L293.609 152.955V137.958L280.947 130.895V145.892Z" fill="#21170E"/>
<path d="M280.499 130.15L294.057 137.689L306.361 130.778L292.803 123.248L280.499 130.15Z" fill="white"/>
<path d="M294.057 138.137C293.986 138.137 293.905 138.12 293.842 138.084L280.284 130.545C280.141 130.464 280.051 130.32 280.051 130.15C280.051 129.988 280.141 129.836 280.284 129.755L292.588 122.844C292.722 122.772 292.883 122.763 293.027 122.844L306.585 130.383C306.728 130.464 306.818 130.607 306.818 130.778C306.818 130.939 306.728 131.092 306.585 131.173L294.281 138.084C294.21 138.12 294.138 138.137 294.066 138.137H294.057ZM281.422 130.15L294.057 137.177L305.447 130.787L292.812 123.759L281.422 130.15Z" fill="#21170E"/>
<path d="M306.361 147.139L294.057 153.709V137.698L306.361 130.778V147.139Z" fill="#FFC34C"/>
<path d="M294.057 154.158C293.977 154.158 293.896 154.14 293.824 154.095C293.69 154.014 293.609 153.871 293.609 153.709V137.698C293.609 137.536 293.699 137.384 293.842 137.303L306.146 130.383C306.28 130.302 306.45 130.311 306.594 130.383C306.728 130.464 306.818 130.607 306.818 130.769V147.121C306.818 147.283 306.728 147.436 306.585 147.516L294.281 154.086C294.218 154.122 294.147 154.14 294.066 154.14L294.057 154.158ZM294.505 137.958V152.955L305.913 146.861V131.541L294.505 137.958Z" fill="#21170E"/>
<path d="M293.52 163.582L307.087 171.139V155.109L293.52 147.552V163.582Z" fill="#FFF492"/>
<path d="M307.087 171.587C307.015 171.587 306.934 171.569 306.872 171.534L293.314 163.977C293.17 163.896 293.081 163.743 293.081 163.582V147.561C293.081 147.4 293.161 147.256 293.305 147.175C293.439 147.095 293.609 147.095 293.753 147.175L307.311 154.732C307.454 154.813 307.544 154.966 307.544 155.127V171.148C307.544 171.309 307.463 171.453 307.32 171.534C307.248 171.578 307.167 171.596 307.096 171.596L307.087 171.587ZM293.968 163.312L306.63 170.376V155.379L293.968 148.315V163.312Z" fill="#21170E"/>
<path d="M293.52 147.57L307.078 155.109L319.39 148.198L305.832 140.668L293.52 147.57Z" fill="white"/>
<path d="M307.078 155.558C307.006 155.558 306.925 155.54 306.863 155.504L293.305 147.965C293.161 147.884 293.072 147.741 293.072 147.57C293.072 147.409 293.161 147.256 293.305 147.175L305.608 140.265C305.743 140.193 305.904 140.184 306.047 140.265L319.605 147.804C319.749 147.884 319.838 148.028 319.838 148.198C319.838 148.36 319.749 148.513 319.605 148.593L307.302 155.504C307.23 155.54 307.158 155.558 307.087 155.558H307.078ZM294.443 147.57L307.078 154.598L318.467 148.207L305.832 141.18L294.443 147.57Z" fill="#21170E"/>
<path d="M319.39 164.56L307.078 171.13V155.118L319.39 148.198V164.56Z" fill="#FFC34C"/>
<path d="M307.078 171.578C306.997 171.578 306.916 171.56 306.845 171.516C306.71 171.435 306.63 171.291 306.63 171.13V155.118C306.63 154.957 306.719 154.804 306.863 154.723L319.166 147.804C319.301 147.723 319.471 147.723 319.614 147.804C319.749 147.884 319.838 148.028 319.838 148.189V164.542C319.838 164.704 319.749 164.856 319.605 164.937L307.302 171.507C307.239 171.543 307.167 171.56 307.087 171.56L307.078 171.578ZM307.526 155.378V170.376L318.933 164.282V148.961L307.526 155.378Z" fill="#21170E"/>
<path d="M264.584 162.792L278.142 170.349V154.328L264.584 146.771V162.792Z" fill="#FFF492"/>
<path d="M278.142 170.798C278.071 170.798 277.99 170.78 277.927 170.744L264.369 163.187C264.226 163.106 264.136 162.953 264.136 162.792V146.771C264.136 146.61 264.217 146.466 264.36 146.386C264.495 146.305 264.665 146.305 264.808 146.386L278.366 153.943C278.51 154.023 278.599 154.176 278.599 154.337V170.358C278.599 170.519 278.519 170.663 278.375 170.744C278.304 170.789 278.223 170.807 278.151 170.807L278.142 170.798ZM265.032 162.532L277.694 169.595V154.598L265.032 147.534V162.532Z" fill="#21170E"/>
<path d="M264.584 146.789L278.142 154.319L290.446 147.418L276.888 139.879L264.584 146.789Z" fill="white"/>
<path d="M278.142 154.768C278.071 154.768 277.99 154.75 277.927 154.714L264.369 147.175C264.226 147.095 264.136 146.951 264.136 146.78C264.136 146.619 264.226 146.466 264.369 146.386L276.673 139.475C276.807 139.403 276.977 139.394 277.112 139.475L290.67 147.014C290.813 147.095 290.903 147.238 290.903 147.409C290.903 147.57 290.813 147.723 290.67 147.804L278.366 154.714C278.295 154.75 278.223 154.768 278.151 154.768H278.142ZM265.498 146.789L278.133 153.817L289.523 147.427L276.888 140.399L265.498 146.789Z" fill="#21170E"/>
<path d="M290.446 163.77L278.142 170.349V154.337L290.446 147.418V163.77Z" fill="#FFC34C"/>
<path d="M278.142 170.798C278.062 170.798 277.981 170.78 277.909 170.735C277.775 170.654 277.694 170.51 277.694 170.349V154.337C277.694 154.176 277.784 154.023 277.927 153.942L290.231 147.023C290.365 146.942 290.536 146.942 290.679 147.023C290.813 147.104 290.903 147.247 290.903 147.409V163.761C290.903 163.923 290.813 164.075 290.67 164.156L278.366 170.726C278.304 170.762 278.232 170.78 278.151 170.78L278.142 170.798ZM278.59 154.598V169.595L289.998 163.501V148.181L278.59 154.598Z" fill="#21170E"/>
<path d="M279.693 171.004L293.251 178.561V162.541L279.693 154.984V171.004Z" fill="#FFF492"/>
<path d="M293.251 179.01C293.179 179.01 293.098 178.992 293.036 178.956L279.478 171.399C279.334 171.318 279.245 171.166 279.245 171.004V154.984C279.245 154.822 279.325 154.678 279.469 154.598C279.603 154.517 279.773 154.517 279.917 154.598L293.475 162.155C293.618 162.235 293.708 162.388 293.708 162.55V178.57C293.708 178.732 293.627 178.875 293.484 178.956C293.412 179.001 293.331 179.019 293.26 179.019L293.251 179.01ZM280.141 170.744L292.803 177.807V162.81L280.141 155.747V170.744Z" fill="#21170E"/>
<path d="M279.693 155.002L293.251 162.541L305.554 155.63L291.996 148.091L279.693 155.002Z" fill="white"/>
<path d="M293.251 162.989C293.179 162.989 293.098 162.971 293.036 162.935L279.478 155.396C279.334 155.316 279.245 155.172 279.245 155.002C279.245 154.84 279.334 154.687 279.478 154.607L291.781 147.696C291.916 147.624 292.077 147.615 292.22 147.696L305.778 155.235C305.922 155.316 306.011 155.459 306.011 155.63C306.011 155.791 305.922 155.944 305.778 156.025L293.475 162.935C293.403 162.971 293.331 162.989 293.26 162.989H293.251ZM280.616 155.002L293.251 162.029L304.64 155.639L292.005 148.611L280.616 155.002Z" fill="#21170E"/>
<path d="M305.554 171.982L293.251 178.561V162.55L305.554 155.63V171.982Z" fill="#FFC34C"/>
<path d="M293.251 179.01C293.17 179.01 293.089 178.992 293.018 178.947C292.883 178.866 292.803 178.723 292.803 178.561V162.55C292.803 162.388 292.892 162.235 293.036 162.155L305.339 155.235C305.474 155.154 305.644 155.163 305.787 155.235C305.922 155.316 306.011 155.459 306.011 155.621V171.973C306.011 172.135 305.922 172.287 305.778 172.368L293.475 178.938C293.412 178.974 293.34 178.992 293.26 178.992L293.251 179.01ZM293.699 162.81V177.807L305.106 171.713V156.393L293.699 162.81Z" fill="#21170E"/>
<path d="M242.945 122.623L233.859 155.259L235.585 155.741L244.671 123.105L242.945 122.623Z" fill="#21170E"/>
<path d="M216.275 110.548L229.842 118.105V102.085L216.275 94.5278V110.548Z" fill="#FFC34C"/>
<path d="M229.842 118.554C229.77 118.554 229.69 118.536 229.627 118.5L216.069 110.943C215.926 110.862 215.836 110.71 215.836 110.548V94.5277C215.836 94.3662 215.917 94.2226 216.06 94.1418C216.194 94.061 216.365 94.061 216.508 94.1418L230.066 101.699C230.21 101.78 230.299 101.932 230.299 102.094V118.114C230.299 118.276 230.219 118.419 230.075 118.5C230.003 118.545 229.923 118.563 229.851 118.563L229.842 118.554ZM216.723 110.279L229.385 117.342V102.345L216.723 95.2816V110.279Z" fill="#21170E"/>
<path d="M216.275 94.5457L229.833 102.076L242.137 95.1739L228.578 87.6349L216.275 94.5457Z" fill="#FFF492"/>
<path d="M229.833 102.524C229.761 102.524 229.681 102.507 229.618 102.471L216.06 94.9316C215.917 94.8508 215.827 94.7072 215.827 94.5367C215.827 94.3752 215.917 94.2226 216.06 94.1418L228.363 87.231C228.498 87.1592 228.659 87.1503 228.803 87.231L242.361 94.7701C242.504 94.8508 242.594 94.9944 242.594 95.165C242.594 95.3265 242.504 95.4791 242.361 95.5599L230.057 102.471C229.985 102.507 229.914 102.524 229.842 102.524H229.833ZM217.198 94.5367L229.833 101.564L241.223 95.1739L228.588 88.1465L217.198 94.5367Z" fill="#21170E"/>
<path d="M242.137 111.526L229.833 118.096V102.085L242.137 95.174V111.526Z" fill="#D69D2C"/>
<path d="M229.833 118.545C229.752 118.545 229.672 118.527 229.6 118.482C229.466 118.401 229.385 118.258 229.385 118.096V102.085C229.385 101.923 229.475 101.771 229.618 101.69L241.922 94.7701C242.056 94.6893 242.226 94.6893 242.37 94.7701C242.504 94.8508 242.594 94.9944 242.594 95.156V111.508C242.594 111.67 242.504 111.823 242.361 111.903L230.057 118.473C229.994 118.509 229.923 118.527 229.842 118.527L229.833 118.545ZM230.281 102.354V117.351L241.689 111.257V95.9368L230.281 102.354Z" fill="#21170E"/>
<path d="M236.447 123.068L250.005 130.625V114.605L236.447 107.048V123.068Z" fill="#FFC34C"/>
<path d="M250.005 131.074C249.933 131.074 249.852 131.056 249.79 131.02L236.232 123.463C236.088 123.383 235.999 123.23 235.999 123.068V107.048C235.999 106.886 236.079 106.743 236.223 106.662C236.357 106.581 236.527 106.581 236.671 106.662L250.229 114.219C250.372 114.3 250.462 114.452 250.462 114.614V130.634C250.462 130.796 250.381 130.939 250.238 131.02C250.166 131.065 250.085 131.083 250.014 131.083L250.005 131.074ZM236.895 122.799L249.557 129.862V114.865L236.895 107.802V122.799Z" fill="#21170E"/>
<path d="M236.447 107.066L250.005 114.596L262.308 107.694L248.75 100.155L236.447 107.066Z" fill="#FFF492"/>
<path d="M250.005 115.045C249.933 115.045 249.852 115.027 249.79 114.991L236.232 107.452C236.088 107.371 235.999 107.227 235.999 107.057C235.999 106.895 236.088 106.743 236.232 106.662L248.535 99.7512C248.67 99.6794 248.831 99.6705 248.974 99.7512L262.532 107.29C262.676 107.371 262.765 107.515 262.765 107.685C262.765 107.847 262.676 107.999 262.532 108.08L250.229 114.991C250.157 115.027 250.085 115.045 250.014 115.045H250.005ZM237.37 107.057L250.005 114.084L261.394 107.694L248.759 100.667L237.37 107.057Z" fill="#21170E"/>
<path d="M262.308 124.047L250.005 130.616V114.605L262.308 107.694V124.047Z" fill="#D69D2C"/>
<path d="M250.005 131.065C249.924 131.065 249.843 131.047 249.772 131.002C249.637 130.922 249.557 130.778 249.557 130.616V114.605C249.557 114.443 249.646 114.291 249.79 114.21L262.093 107.29C262.228 107.209 262.398 107.209 262.541 107.29C262.676 107.371 262.765 107.515 262.765 107.676V124.029C262.765 124.19 262.676 124.343 262.532 124.424L250.229 130.993C250.166 131.029 250.094 131.047 250.014 131.047L250.005 131.065ZM250.453 114.874V129.871L261.86 123.777V108.457L250.453 114.874Z" fill="#21170E"/>
<path d="M210.16 116.194L208.454 116.743L223.496 163.637L225.202 163.088L210.16 116.194Z" fill="#21170E"/>
<path d="M202.564 117.719L216.132 125.285V109.256L202.564 101.699V117.719Z" fill="#FFC34C"/>
<path d="M216.132 125.734C216.06 125.734 215.979 125.716 215.917 125.68L202.349 118.114C202.206 118.033 202.116 117.881 202.116 117.719V101.699C202.116 101.537 202.197 101.394 202.34 101.313C202.475 101.232 202.645 101.232 202.789 101.313L216.347 108.87C216.49 108.951 216.58 109.103 216.58 109.265V125.285C216.58 125.447 216.499 125.59 216.356 125.671C216.284 125.716 216.203 125.734 216.132 125.734ZM203.013 117.459L215.675 124.522V109.525L203.013 102.462V117.459Z" fill="#21170E"/>
<path d="M202.564 101.717L216.123 109.256L228.435 102.345L214.877 94.8149L202.564 101.717Z" fill="#FFF492"/>
<path d="M216.123 109.705C216.051 109.705 215.97 109.687 215.908 109.651L202.349 102.112C202.206 102.031 202.116 101.887 202.116 101.717C202.116 101.555 202.206 101.403 202.349 101.322L214.653 94.4111C214.787 94.3393 214.958 94.3303 215.092 94.4111L228.65 101.95C228.794 102.031 228.883 102.174 228.883 102.345C228.883 102.507 228.794 102.659 228.65 102.74L216.347 109.651C216.275 109.687 216.203 109.705 216.132 109.705H216.123ZM203.488 101.717L216.123 108.744L227.512 102.354L214.877 95.3265L203.488 101.717Z" fill="#21170E"/>
<path d="M228.435 118.706L216.123 125.276V109.265L228.435 102.345V118.706Z" fill="#D69D2C"/>
<path d="M216.123 125.725C216.042 125.725 215.961 125.707 215.89 125.662C215.755 125.581 215.675 125.438 215.675 125.276V109.265C215.675 109.103 215.764 108.951 215.908 108.87L228.211 101.95C228.346 101.869 228.516 101.878 228.659 101.95C228.794 102.031 228.883 102.174 228.883 102.336V118.689C228.883 118.85 228.794 119.003 228.65 119.083L216.347 125.653C216.284 125.689 216.212 125.707 216.132 125.707L216.123 125.725ZM216.571 109.525V124.522L227.978 118.428V103.108L216.571 109.525Z" fill="#21170E"/>
<path d="M217.557 116.678L231.124 124.235V108.206L217.557 100.649V116.678Z" fill="#FFC34C"/>
<path d="M231.124 124.684C231.052 124.684 230.971 124.666 230.909 124.63L217.35 117.073C217.207 116.992 217.117 116.84 217.117 116.678V100.658C217.117 100.496 217.198 100.353 217.341 100.272C217.476 100.191 217.646 100.191 217.79 100.272L231.348 107.829C231.491 107.91 231.581 108.062 231.581 108.224V124.244C231.581 124.406 231.5 124.549 231.357 124.63C231.285 124.675 231.204 124.693 231.133 124.693L231.124 124.684ZM218.005 116.409L230.667 123.472V108.475L218.005 101.412V116.409Z" fill="#21170E"/>
<path d="M217.556 100.667L231.115 108.206L243.427 101.295L229.86 93.7648L217.556 100.667Z" fill="#FFF492"/>
<path d="M231.115 108.654C231.043 108.654 230.962 108.636 230.9 108.601L217.341 101.062C217.198 100.981 217.108 100.837 217.108 100.667C217.108 100.505 217.198 100.353 217.341 100.272L229.645 93.361C229.779 93.2892 229.941 93.2802 230.084 93.361L243.642 100.9C243.786 100.981 243.875 101.124 243.875 101.295C243.875 101.456 243.786 101.609 243.642 101.69L231.339 108.601C231.267 108.636 231.195 108.654 231.124 108.654H231.115ZM218.479 100.667L231.115 107.694L242.504 101.304L229.869 94.2764L218.479 100.667Z" fill="#21170E"/>
<path d="M243.427 117.656L231.115 124.226V108.215L243.427 101.295V117.656Z" fill="#D69D2C"/>
<path d="M231.115 124.675C231.034 124.675 230.953 124.657 230.882 124.612C230.747 124.531 230.667 124.388 230.667 124.226V108.215C230.667 108.053 230.756 107.901 230.899 107.82L243.203 100.9C243.337 100.819 243.508 100.819 243.651 100.9C243.786 100.981 243.875 101.124 243.875 101.286V117.638C243.875 117.8 243.786 117.953 243.642 118.033L231.339 124.603C231.276 124.639 231.204 124.657 231.124 124.657L231.115 124.675ZM231.563 108.475V123.472L242.97 117.378V102.058L231.563 108.475Z" fill="#21170E"/>
<path d="M216.087 92.4815L229.654 100.047V84.018L216.087 76.4611V92.4815Z" fill="#FFC34C"/>
<path d="M229.654 100.496C229.582 100.496 229.502 100.478 229.439 100.442L215.881 92.8853C215.738 92.8046 215.648 92.652 215.648 92.4904V76.47C215.648 76.3085 215.729 76.1649 215.872 76.0841C216.006 76.0033 216.177 76.0033 216.32 76.0841L229.878 83.6411C230.022 83.7218 230.111 83.8744 230.111 84.036V100.056C230.111 100.218 230.031 100.362 229.887 100.442C229.815 100.487 229.735 100.505 229.663 100.505L229.654 100.496ZM216.535 92.2212L229.197 99.2845V84.2873L216.535 77.2239V92.2212Z" fill="#21170E"/>
<path d="M216.087 76.4789L229.645 84.018L241.958 77.1072L228.399 69.5771L216.087 76.4789Z" fill="#FFF492"/>
<path d="M229.645 84.4667C229.573 84.4667 229.493 84.4488 229.43 84.4129L215.872 76.8739C215.729 76.7931 215.639 76.6495 215.639 76.479C215.639 76.3174 215.729 76.1648 215.872 76.0841L228.175 69.1733C228.31 69.1015 228.471 69.0925 228.615 69.1733L242.173 76.7123C242.316 76.7931 242.406 76.9367 242.406 77.1072C242.406 77.2688 242.316 77.4213 242.173 77.5021L229.869 84.4129C229.797 84.4488 229.726 84.4667 229.654 84.4667H229.645ZM217.01 76.479L229.645 83.5064L241.035 77.1162L228.4 70.0887L217.01 76.479Z" fill="#21170E"/>
<path d="M241.958 93.4687L229.645 100.038V84.027L241.958 77.1072V93.4687Z" fill="#D69D2C"/>
<path d="M229.645 100.487C229.564 100.487 229.484 100.469 229.412 100.424C229.278 100.344 229.197 100.2 229.197 100.038V84.027C229.197 83.8654 229.287 83.7128 229.43 83.6321L241.734 76.7123C241.868 76.6315 242.038 76.6315 242.182 76.7123C242.316 76.7931 242.406 76.9367 242.406 77.0982V93.4507C242.406 93.6123 242.316 93.7649 242.173 93.8456L229.869 100.415C229.806 100.451 229.735 100.469 229.654 100.469L229.645 100.487ZM230.093 84.2872V99.2845L241.501 93.1905V77.8701L230.093 84.2872Z" fill="#21170E"/>
<path d="M231.392 100.783L244.95 108.349V92.3199L231.392 84.7629V100.783Z" fill="#FFC34C"/>
<path d="M244.951 108.798C244.879 108.798 244.798 108.78 244.735 108.744L231.177 101.187C231.034 101.106 230.944 100.954 230.944 100.792V84.7719C230.944 84.6103 231.025 84.4667 231.168 84.386C231.303 84.3052 231.473 84.3052 231.616 84.386L245.175 91.9429C245.318 92.0237 245.408 92.1763 245.408 92.3378V108.358C245.408 108.52 245.327 108.663 245.184 108.744C245.112 108.789 245.031 108.807 244.959 108.807L244.951 108.798ZM231.84 100.523L244.502 107.586V92.5891L231.84 85.5258V100.523Z" fill="#21170E"/>
<path d="M231.392 84.7808L244.95 92.3199L257.254 85.4091L243.696 77.8701L231.392 84.7808Z" fill="#FFF492"/>
<path d="M244.951 92.7686C244.879 92.7686 244.798 92.7507 244.735 92.7148L231.177 85.1758C231.034 85.095 230.944 84.9514 230.944 84.7808C230.944 84.6193 231.034 84.4667 231.177 84.3859L243.481 77.4752C243.615 77.4034 243.786 77.3944 243.92 77.4752L257.478 85.0142C257.622 85.095 257.711 85.2386 257.711 85.4091C257.711 85.5706 257.622 85.7232 257.478 85.804L245.175 92.7148C245.103 92.7507 245.031 92.7686 244.959 92.7686H244.951ZM232.306 84.7808L244.942 91.8083L256.331 85.4181L243.696 78.3906L232.306 84.7808Z" fill="#21170E"/>
<path d="M257.254 101.762L244.95 108.34V92.3289L257.254 85.4091V101.762Z" fill="#D69D2C"/>
<path d="M244.95 108.789C244.87 108.789 244.789 108.771 244.718 108.726C244.583 108.645 244.502 108.502 244.502 108.34V92.3288C244.502 92.1673 244.592 92.0147 244.735 91.9339L257.039 85.0142C257.173 84.9334 257.344 84.9334 257.487 85.0142C257.621 85.095 257.711 85.2386 257.711 85.4001V101.753C257.711 101.914 257.621 102.067 257.478 102.148L245.175 108.717C245.112 108.753 245.04 108.771 244.959 108.771L244.95 108.789ZM245.399 92.5891V107.595L256.806 101.501V86.1809L245.399 92.5981V92.5891Z" fill="#21170E"/>
<path d="M202.448 100.003L216.006 107.56V91.5391L202.448 83.9821V100.003Z" fill="#FFC34C"/>
<path d="M216.006 108.008C215.935 108.008 215.854 107.99 215.791 107.954L202.233 100.397C202.09 100.317 202 100.164 202 100.003V83.9821C202 83.8205 202.081 83.6769 202.224 83.5962C202.358 83.5154 202.529 83.5154 202.672 83.5962L216.23 91.1531C216.374 91.2339 216.463 91.3865 216.463 91.548V107.568C216.463 107.73 216.383 107.874 216.239 107.954C216.168 107.999 216.087 108.017 216.015 108.017L216.006 108.008ZM202.896 99.7333L215.558 106.797V91.7993L202.896 84.736V99.7333Z" fill="#21170E"/>
<path d="M202.448 84L216.006 91.5301L228.31 84.6283L214.752 77.0892L202.448 84Z" fill="#FFF492"/>
<path d="M216.006 91.9788C215.935 91.9788 215.854 91.9609 215.791 91.925L202.233 84.386C202.09 84.3052 202 84.1616 202 84C202 83.8385 202.09 83.6859 202.233 83.6051L214.537 76.6944C214.671 76.6225 214.832 76.6136 214.976 76.6944L228.534 84.2334C228.677 84.3142 228.767 84.4578 228.767 84.6283C228.767 84.7898 228.677 84.9424 228.534 85.0232L216.23 91.934C216.159 91.9699 216.087 91.9878 216.015 91.9878L216.006 91.9788ZM203.371 83.9911L216.006 91.0185L227.396 84.6283L214.761 77.6008L203.371 83.9911Z" fill="#21170E"/>
<path d="M228.31 100.981L216.006 107.551V91.5391L228.31 84.6283V100.981Z" fill="#D69D2C"/>
<path d="M216.006 107.999C215.926 107.999 215.845 107.981 215.773 107.936C215.639 107.856 215.558 107.712 215.558 107.551V91.5391C215.558 91.3775 215.648 91.2249 215.791 91.1441L228.095 84.2244C228.229 84.1436 228.399 84.1436 228.543 84.2244C228.677 84.3052 228.767 84.4488 228.767 84.6103V100.963C228.767 101.124 228.677 101.277 228.534 101.358L216.23 107.927C216.167 107.963 216.096 107.981 216.015 107.981L216.006 107.999ZM216.454 91.8083V106.815L227.862 100.721V85.4001L216.454 91.8173V91.8083Z" fill="#21170E"/>
<path d="M217.557 108.215L231.124 115.772V99.7512L217.557 92.1943V108.215Z" fill="#FFC34C"/>
<path d="M231.124 116.22C231.052 116.22 230.971 116.202 230.909 116.167L217.35 108.61C217.207 108.529 217.117 108.376 217.117 108.215V92.1942C217.117 92.0327 217.198 91.8891 217.341 91.8083C217.476 91.7275 217.646 91.7275 217.79 91.8083L231.348 99.3653C231.491 99.4461 231.581 99.5987 231.581 99.7602V115.781C231.581 115.942 231.5 116.086 231.357 116.167C231.285 116.211 231.204 116.229 231.133 116.229L231.124 116.22ZM218.005 107.954L230.667 115.018V100.02L218.005 92.9571V107.954Z" fill="#21170E"/>
<path d="M217.556 92.2122L231.115 99.7422L243.427 92.8404L229.86 85.3014L217.556 92.2122Z" fill="#FFF492"/>
<path d="M231.115 100.191C231.043 100.191 230.962 100.173 230.9 100.137L217.341 92.5981C217.198 92.5173 217.108 92.3737 217.108 92.2032C217.108 92.0417 217.198 91.8891 217.341 91.8083L229.645 84.8975C229.779 84.8257 229.941 84.8168 230.084 84.8975L243.642 92.4366C243.786 92.5173 243.875 92.6609 243.875 92.8315C243.875 92.993 243.786 93.1456 243.642 93.2264L231.339 100.137C231.267 100.173 231.195 100.191 231.124 100.191H231.115ZM218.479 92.2122L231.115 99.2396L242.504 92.8494L229.869 85.822L218.479 92.2122Z" fill="#21170E"/>
<path d="M243.427 109.193L231.115 115.772V99.7602L243.427 92.8405V109.193Z" fill="#D69D2C"/>
<path d="M231.115 116.22C231.034 116.22 230.953 116.202 230.882 116.158C230.747 116.077 230.667 115.933 230.667 115.772V99.7602C230.667 99.5986 230.756 99.4461 230.899 99.3653L243.203 92.4455C243.337 92.3648 243.508 92.3648 243.651 92.4455C243.786 92.5263 243.875 92.6699 243.875 92.8315V109.184C243.875 109.346 243.786 109.498 243.642 109.579L231.339 116.149C231.276 116.184 231.204 116.202 231.124 116.202L231.115 116.22ZM231.563 100.02V115.018L242.97 108.924V93.6033L231.563 100.02Z" fill="#21170E"/>
</g>
<defs>
<clipPath id="clip0_992_20581">
<rect width="305" height="257" fill="white" transform="translate(202 15)"/>
</clipPath>
</defs>
</svg>
