<svg width="205" height="200" viewBox="0 0 205 200" fill="none" xmlns="http://www.w3.org/2000/svg">
<path d="M167.267 199.532H38.3955C35.8556 199.532 33.7966 197.474 33.7966 194.929V79.8675H171.871V194.929C171.871 197.474 169.812 199.532 167.272 199.532H167.267Z" fill="white"/>
<path d="M167.267 199.991H38.3954C35.6037 199.991 33.3335 197.721 33.3335 194.929V79.8675C33.3335 79.6113 33.5358 79.4045 33.7965 79.4045H171.87C172.131 79.4045 172.333 79.6113 172.333 79.8675V194.929C172.333 197.721 170.063 199.991 167.272 199.991H167.267ZM34.2506 80.3216V194.929C34.2506 197.213 36.1117 199.074 38.3954 199.074H167.272C169.551 199.074 171.416 197.217 171.416 194.929V80.3216H34.2506Z" fill="#000100"/>
<path d="M171.871 79.8675H33.7966V66.0619C33.7966 63.513 35.8556 61.454 38.3955 61.454H167.272C169.812 61.454 171.871 63.513 171.871 66.0574V79.863V79.8675Z" fill="#FFA502"/>
<path d="M171.87 80.3215H33.7965C33.5358 80.3215 33.3335 80.1192 33.3335 79.8675V66.0619C33.3335 63.2702 35.6037 61 38.3954 61H167.272C170.063 61 172.333 63.2702 172.333 66.0619V79.8675C172.333 80.1237 172.131 80.3215 171.87 80.3215ZM34.2506 79.4045H171.412V66.0619C171.412 63.7782 169.551 61.9171 167.267 61.9171H38.3954C36.1117 61.9171 34.2506 63.7737 34.2506 66.0619V79.409V79.4045Z" fill="#000100"/>
<path d="M45.296 70.6652C45.296 71.933 44.2665 72.9669 42.9943 72.9669C41.7221 72.9669 40.6926 71.9375 40.6926 70.6652C40.6926 69.393 41.7221 68.3591 42.9943 68.3591C44.2665 68.3591 45.296 69.3885 45.296 70.6652Z" fill="white"/>
<path d="M56.8044 70.6652C56.8044 71.933 55.7749 72.9669 54.5027 72.9669C53.2305 72.9669 52.1965 71.9375 52.1965 70.6652C52.1965 69.393 53.226 68.3591 54.5027 68.3591C55.7794 68.3591 56.8044 69.3885 56.8044 70.6652Z" fill="white"/>
<path d="M68.3127 70.6652C68.3127 71.933 67.2832 72.9669 66.0065 72.9669C64.7298 72.9669 63.7048 71.9375 63.7048 70.6652C63.7048 69.393 64.7343 68.3591 66.0065 68.3591C67.2787 68.3591 68.3127 69.3885 68.3127 70.6652Z" fill="white"/>
<path d="M104.083 85.9454H101.575V193.306H104.083V85.9454Z" fill="black"/>
<path d="M68.3127 139.86C56.5391 139.86 46.9592 130.28 46.9592 118.506C46.9592 106.732 56.5391 97.1571 68.3127 97.1571C80.0864 97.1571 89.6662 106.732 89.6662 118.506C89.6662 130.28 80.0864 139.86 68.3127 139.86ZM68.3127 99.6656C57.9237 99.6656 49.4677 108.117 49.4677 118.506C49.4677 128.895 57.9192 137.347 68.3127 137.347C78.7062 137.347 87.1577 128.895 87.1577 118.506C87.1577 108.117 78.7062 99.6656 68.3127 99.6656Z" fill="black"/>
<path d="M136.631 139.86C124.857 139.86 115.277 130.28 115.277 118.506C115.277 106.732 124.857 97.1571 136.631 97.1571C148.404 97.1571 157.984 106.732 157.984 118.506C157.984 130.28 148.404 139.86 136.631 139.86ZM136.631 99.6656C126.242 99.6656 117.786 108.117 117.786 118.506C117.786 128.895 126.237 137.347 136.631 137.347C147.024 137.347 155.476 128.895 155.476 118.506C155.476 108.117 147.024 99.6656 136.631 99.6656Z" fill="black"/>
<path d="M50.6637 147.138L54.0578 156.282C54.4084 157.307 54.7905 158.529 55.0513 159.455H55.1142C55.4019 158.529 55.7211 157.347 56.1032 156.219L59.1781 147.138H62.1451L57.9284 158.174C55.9099 163.488 54.5343 166.203 52.6192 167.866C51.2436 169.085 49.859 169.561 49.1577 169.696L48.4519 167.327C49.1577 167.098 50.0882 166.657 50.9244 165.951C51.6886 165.344 52.6552 164.257 53.2935 162.818C53.4194 162.53 53.5138 162.301 53.5138 162.148C53.5138 161.982 53.4509 161.757 53.325 161.402L47.5933 147.138H50.6637Z" fill="black"/>
<path d="M65.9573 155.391C66.0292 159.199 68.4568 160.768 71.2709 160.768C73.2894 160.768 74.5032 160.417 75.5686 159.963L76.0451 161.977C75.0516 162.422 73.3523 162.939 70.8933 162.939C66.1281 162.939 63.2825 159.806 63.2825 155.135C63.2825 150.464 66.0337 146.787 70.5427 146.787C75.6001 146.787 76.9397 151.233 76.9397 154.083C76.9397 154.663 76.8723 155.104 76.8363 155.391H65.9573ZM74.22 153.377C74.2559 151.588 73.4782 148.806 70.3134 148.806C67.4678 148.806 66.218 151.422 65.9977 153.377H74.22Z" fill="black"/>
<path d="M80.055 159.743C80.8822 160.282 82.3477 160.862 83.7683 160.862C85.8182 160.862 86.7712 159.842 86.7712 158.556C86.7712 157.271 85.9711 156.479 83.8941 155.711C81.1159 154.717 79.7988 153.175 79.7988 151.328C79.7988 148.833 81.8127 146.783 85.1439 146.783C86.7083 146.783 88.0839 147.228 88.9516 147.74L88.2458 149.786C87.6389 149.403 86.5195 148.9 85.072 148.9C83.4131 148.9 82.4826 149.862 82.4826 151.008C82.4826 152.294 83.4131 152.86 85.4226 153.638C88.1109 154.663 89.4865 156.007 89.4865 158.3C89.4865 161.02 87.3736 162.944 83.6963 162.944C82.0016 162.944 80.4371 162.53 79.3447 161.887L80.0505 159.743H80.055Z" fill="black"/>
<path d="M123.054 149.826C123.054 148.221 123.027 146.908 122.924 145.632H125.423L125.58 148.185H125.643C126.417 146.72 128.206 145.277 130.764 145.277C132.913 145.277 136.235 146.553 136.235 151.867V161.114H133.421V152.191C133.421 149.696 132.499 147.605 129.842 147.605C127.985 147.605 126.542 148.918 126.066 150.491C125.936 150.838 125.868 151.319 125.868 151.804V161.11H123.054V149.817V149.826Z" fill="black"/>
<path d="M154.833 153.247C154.833 158.974 150.863 161.469 147.118 161.469C142.924 161.469 139.701 158.394 139.701 153.503C139.701 148.316 143.095 145.281 147.375 145.281C151.654 145.281 154.833 148.513 154.833 153.247ZM142.547 153.404C142.547 156.799 144.502 159.361 147.253 159.361C150.005 159.361 151.951 156.826 151.951 153.342C151.951 150.725 150.647 147.394 147.312 147.394C143.976 147.394 142.547 150.464 142.547 153.404Z" fill="black"/>
<path d="M144.838 105.9L124.01 126.707L128.423 131.125L149.251 110.318L144.838 105.9Z" fill="black"/>
<path d="M128.433 105.899L124.017 110.314L144.832 131.135L149.248 126.721L128.433 105.899Z" fill="black"/>
</svg>
