<svg width="200" height="200" viewBox="0 0 200 200" fill="none" xmlns="http://www.w3.org/2000/svg">
<g id="Union">
<mask id="path-1-inside-1_1001_21527" fill="white">
<path fill-rule="evenodd" clip-rule="evenodd" d="M33.2756 0L0 33.3333L66.7244 100.173L0.346319 166.667L33.6219 200L100 133.507L166.378 200L199.654 166.667L133.276 100.173L200 33.3333L166.724 0L100 66.8401L33.2756 0Z"/>
</mask>
<path fill-rule="evenodd" clip-rule="evenodd" d="M33.2756 0L0 33.3333L66.7244 100.173L0.346319 166.667L33.6219 200L100 133.507L166.378 200L199.654 166.667L133.276 100.173L200 33.3333L166.724 0L100 66.8401L33.2756 0Z" fill="#FFA502"/>
<path d="M0 33.3333L-1.41544 31.9203L-2.82598 33.3333L-1.41544 34.7463L0 33.3333ZM33.2756 0L34.6911 -1.41299L33.2756 -2.83088L31.8602 -1.41299L33.2756 0ZM66.7244 100.173L68.1398 101.586L69.5504 100.173L68.1398 98.7604L66.7244 100.173ZM0.346319 166.667L-1.06912 165.254L-2.47966 166.667L-1.06912 168.08L0.346319 166.667ZM33.6219 200L32.2065 201.413L33.6219 202.831L35.0374 201.413L33.6219 200ZM100 133.507L101.415 132.094L100 130.676L98.5846 132.094L100 133.507ZM166.378 200L164.963 201.413L166.378 202.831L167.794 201.413L166.378 200ZM199.654 166.667L201.069 168.08L202.48 166.667L201.069 165.254L199.654 166.667ZM133.276 100.173L131.86 98.7604L130.45 100.173L131.86 101.586L133.276 100.173ZM200 33.3333L201.415 34.7463L202.826 33.3333L201.415 31.9203L200 33.3333ZM166.724 0L168.14 -1.41299L166.724 -2.83088L165.309 -1.41299L166.724 0ZM100 66.8401L98.5846 68.2531L100 69.671L101.415 68.2531L100 66.8401ZM1.41544 34.7463L34.6911 1.41299L31.8602 -1.41299L-1.41544 31.9203L1.41544 34.7463ZM68.1398 98.7604L1.41544 31.9203L-1.41544 34.7463L65.309 101.586L68.1398 98.7604ZM65.309 98.7604L-1.06912 165.254L1.76176 168.08L68.1398 101.586L65.309 98.7604ZM-1.06912 168.08L32.2065 201.413L35.0374 198.587L1.76176 165.254L-1.06912 168.08ZM35.0374 201.413L101.415 134.92L98.5846 132.094L32.2065 198.587L35.0374 201.413ZM167.794 198.587L101.415 132.094L98.5846 134.92L164.963 201.413L167.794 198.587ZM198.238 165.254L164.963 198.587L167.794 201.413L201.069 168.08L198.238 165.254ZM131.86 101.586L198.238 168.08L201.069 165.254L134.691 98.7604L131.86 101.586ZM134.691 101.586L201.415 34.7463L198.585 31.9203L131.86 98.7604L134.691 101.586ZM201.415 31.9203L168.14 -1.41299L165.309 1.41299L198.585 34.7463L201.415 31.9203ZM165.309 -1.41299L98.5846 65.4271L101.415 68.2531L168.14 1.41299L165.309 -1.41299ZM31.8602 1.41299L98.5846 68.2531L101.415 65.4271L34.6911 -1.41299L31.8602 1.41299Z" fill="black" mask="url(#path-1-inside-1_1001_21527)"/>
</g>
</svg>
