<svg width="24" height="24" viewBox="0 0 24 24" fill="none" xmlns="http://www.w3.org/2000/svg">
<path fill-rule="evenodd" clip-rule="evenodd" d="M6.2226 6.22089C6.51549 5.928 6.99037 5.928 7.28326 6.22089L17.7833 16.7209C18.0762 17.0138 18.0762 17.4887 17.7833 17.7816C17.4904 18.0744 17.0155 18.0744 16.7226 17.7816L6.2226 7.28155C5.92971 6.98866 5.92971 6.51378 6.2226 6.22089Z" fill="#314362"/>
<path fill-rule="evenodd" clip-rule="evenodd" d="M17.7833 6.22089C18.0762 6.51378 18.0762 6.98866 17.7833 7.28155L7.28326 17.7816C6.99037 18.0744 6.51549 18.0744 6.2226 17.7816C5.92971 17.4887 5.92971 17.0138 6.2226 16.7209L16.7226 6.22089C17.0155 5.928 17.4904 5.928 17.7833 6.22089Z" fill="#314362"/>
</svg>
