<svg width="24" height="24" viewBox="0 0 24 24" fill="none" xmlns="http://www.w3.org/2000/svg">
<g clip-path="url(#clip0_166_42913)">
<g clip-path="url(#clip1_166_42913)">
<path d="M12 24C18.6274 24 24 18.6274 24 12C24 5.37258 18.6274 0 12 0C5.37258 0 0 5.37258 0 12C0 18.6274 5.37258 24 12 24Z" fill="#002462"/>
<path fill-rule="evenodd" clip-rule="evenodd" d="M13.7143 6.85715C13.7143 7.80391 12.9468 8.57143 12 8.57143C11.0532 8.57143 10.2857 7.80391 10.2857 6.85715C10.2857 5.91038 11.0532 5.14286 12 5.14286C12.9468 5.14286 13.7143 5.91038 13.7143 6.85715ZM8.35714 17.1429C8.35714 16.5511 8.83683 16.0714 9.42857 16.0714H10.9286V12.2143H10.2857C9.69397 12.2143 9.21428 11.7346 9.21428 11.1429C9.21428 10.5511 9.69397 10.0714 10.2857 10.0714H12C12.5917 10.0714 13.0714 10.5511 13.0714 11.1429V16.0714H14.5714C15.1632 16.0714 15.6429 16.5511 15.6429 17.1429C15.6429 17.7346 15.1632 18.2143 14.5714 18.2143H12H9.42857C8.83683 18.2143 8.35714 17.7346 8.35714 17.1429Z" fill="#FFA502"/>
</g>
</g>
<defs>
<clipPath id="clip0_166_42913">
<rect width="24" height="24" fill="white"/>
</clipPath>
<clipPath id="clip1_166_42913">
<rect width="24" height="24" fill="white"/>
</clipPath>
</defs>
</svg>
