<svg width="24" height="24" viewBox="0 0 24 24" fill="none" xmlns="http://www.w3.org/2000/svg">
<g id="wrapper">
<path id="Union" d="M0.00292969 12.001C0.00292969 8.81838 1.26721 5.76613 3.51765 3.5157C5.76809 1.26526 8.82033 0.000976563 12.0029 0.000976562C15.1855 0.000976563 18.2378 1.26526 20.4882 3.5157C22.7386 5.76613 24.0029 8.81838 24.0029 12.001C24.0029 15.1836 22.7386 18.2358 20.4882 20.4863C18.2378 22.7367 15.1855 24.001 12.0029 24.001C8.82033 24.001 5.76809 22.7367 3.51765 20.4863C1.26721 18.2358 0.00292969 15.1836 0.00292969 12.001ZM11.2529 1.61648C10.2479 1.92248 9.25043 2.84648 8.42243 4.39898C8.14963 4.91512 7.915 5.45055 7.72043 6.00098H11.2529V1.61648ZM6.13793 6.00098C6.38794 5.2042 6.70924 4.43158 7.09793 3.69248C7.35729 3.20206 7.65681 2.73396 7.99343 2.29298C6.13493 3.06372 4.53594 4.35041 3.38543 6.00098H6.13793ZM5.26493 11.251C5.30993 9.93548 5.47193 8.67398 5.73293 7.50098H2.51393C1.95461 8.67855 1.62085 9.95049 1.52993 11.251H5.26493ZM7.27343 7.50098C6.9784 8.73068 6.80854 9.98708 6.76643 11.251H11.2529V7.50098H7.27343ZM12.7529 7.50098V11.251H17.2379C17.1964 9.98712 17.027 8.73072 16.7324 7.50098H12.7529ZM6.76793 12.751C6.80955 14.0148 6.97891 15.2712 7.27343 16.501H11.2529V12.751H6.76793ZM12.7529 12.751V16.501H16.7324C17.0129 15.3535 17.1914 14.089 17.2394 12.751H12.7529ZM7.72043 18.001C7.92743 18.58 8.16293 19.117 8.42243 19.603C9.25043 21.1555 10.2494 22.078 11.2529 22.3855V18.001H7.72043ZM7.99343 21.709C7.65679 21.268 7.35727 20.7999 7.09793 20.3095C6.70924 19.5704 6.38795 18.7977 6.13793 18.001H3.38543C4.53588 19.6516 6.13489 20.9383 7.99343 21.709ZM5.73293 16.501C5.46168 15.2681 5.30501 14.0127 5.26493 12.751H1.52993C1.62293 14.086 1.96643 15.3505 2.51393 16.501H5.73293ZM16.0124 21.709C17.871 20.9383 19.47 19.6516 20.6204 18.001H17.8679C17.6179 18.7977 17.2966 19.5704 16.9079 20.3095C16.6486 20.7999 16.3491 21.268 16.0124 21.709ZM12.7529 18.001V22.3855C13.7579 22.0795 14.7554 21.1555 15.5834 19.603C15.8429 19.117 16.0784 18.58 16.2854 18.001H12.7529ZM18.2729 16.501H21.4919C22.0394 15.3505 22.3829 14.086 22.4759 12.751H18.7409C18.7009 14.0127 18.5442 15.2681 18.2729 16.501ZM22.4759 11.251C22.385 9.9505 22.0512 8.67856 21.4919 7.50098H18.2729C18.5339 8.67398 18.6959 9.93548 18.7409 11.251H22.4759ZM16.9079 3.69248C17.2784 4.38848 17.6009 5.16248 17.8679 6.00098H20.6204C19.47 4.35035 17.871 3.06364 16.0124 2.29298C16.3394 2.71898 16.6394 3.18998 16.9079 3.69248ZM16.2854 6.00098C16.0909 5.45054 15.8563 4.91511 15.5834 4.39898C14.7554 2.84648 13.7579 1.92398 12.7529 1.61648V6.00098H16.2854Z" fill="#7F8A9D"/>
</g>
</svg>
