<svg width="24" height="24" viewBox="0 0 24 24" fill="none" xmlns="http://www.w3.org/2000/svg">
<g id="wrapper">
<path id="Union" d="M20.2529 4.50098C20.4518 4.50098 20.6426 4.57999 20.7833 4.72065C20.9239 4.8613 21.0029 5.05206 21.0029 5.25098V16.501H3.00293V5.25098C3.00293 5.05206 3.08195 4.8613 3.2226 4.72065C3.36325 4.57999 3.55402 4.50098 3.75293 4.50098H20.2529ZM3.75293 3.00098C3.15619 3.00098 2.5839 3.23803 2.16194 3.65999C1.73998 4.08194 1.50293 4.65424 1.50293 5.25098V18.001H22.5029V5.25098C22.5029 4.65424 22.2659 4.08194 21.8439 3.65999C21.422 3.23803 20.8497 3.00098 20.2529 3.00098H3.75293ZM0.00292969 18.751H24.0029C24.0029 19.3477 23.7659 19.92 23.3439 20.342C22.922 20.7639 22.3497 21.001 21.7529 21.001H2.25293C1.65619 21.001 1.0839 20.7639 0.661939 20.342C0.239983 19.92 0.00292969 19.3477 0.00292969 18.751Z" fill="#7F8A9D"/>
</g>
</svg>
