<svg width="24" height="24" viewBox="0 0 24 24" fill="none" xmlns="http://www.w3.org/2000/svg">
<g clip-path="url(#clip0_1385_13077)">
<path fill-rule="evenodd" clip-rule="evenodd" d="M12.0001 0.0100441C11.5268 0.0100441 11.0627 0.140652 10.6589 0.387485C10.2551 0.634318 9.92726 0.987798 9.71148 1.409L9.70768 1.4165L0.28031 20.2713C0.0835287 20.6623 -0.0108369 21.0986 0.00748719 21.5361C0.0258327 21.9741 0.155828 22.4001 0.385128 22.7736C0.61443 23.1471 0.935423 23.4559 1.31762 23.6705C1.69982 23.8851 2.13055 23.9985 2.56888 23.9998H2.57148H21.4286H21.4311C21.8695 23.9985 22.3003 23.8851 22.6824 23.6705C23.0647 23.4559 23.3856 23.1471 23.615 22.7736C23.8443 22.4001 23.9743 21.9741 23.9926 21.5361C24.011 21.0986 23.9172 20.6635 23.7204 20.2725L14.2924 1.4165L14.2886 1.409C14.0728 0.987798 13.745 0.634318 13.3412 0.387485C12.9374 0.140652 12.4733 0.0100441 12.0001 0.0100441Z" fill="#FFCF24"/>
<path fill-rule="evenodd" clip-rule="evenodd" d="M13.2857 8.35714C13.2857 7.64707 12.7101 7.07143 12 7.07143C11.2899 7.07143 10.7143 7.64707 10.7143 8.35714V13.9286C10.7143 14.6386 11.2899 15.2143 12 15.2143C12.7101 15.2143 13.2857 14.6386 13.2857 13.9286V8.35714ZM12 20.3571C12.9468 20.3571 13.7143 19.5897 13.7143 18.6429C13.7143 17.6961 12.9468 16.9286 12 16.9286C11.0532 16.9286 10.2857 17.6961 10.2857 18.6429C10.2857 19.5897 11.0532 20.3571 12 20.3571Z" fill="#FCFDFF"/>
</g>
<defs>
<clipPath id="clip0_1385_13077">
<rect width="24" height="24" fill="white"/>
</clipPath>
</defs>
</svg>
