<svg width="64" height="64" viewBox="0 0 64 64" fill="none" xmlns="http://www.w3.org/2000/svg">
<g id="calculator-2--shop-shopping-pay-payment-store-cash-calculate-math-sign">
<path id="Union" fill-rule="evenodd" clip-rule="evenodd" d="M52.5714 0H32V32H0V52.5714C0 58.8832 5.11675 64 11.4286 64H32V32H64V11.4286C64 5.11675 58.8832 0 52.5714 0Z" fill="#FFA502"/>
<path id="Union_2" fill-rule="evenodd" clip-rule="evenodd" d="M11.4286 0C5.11675 0 0 5.11675 0 11.4286V32H32V64H52.5714C58.8832 64 64 58.8832 64 52.5714V32H32V0H11.4286Z" fill="#002462"/>
<path id="Union_3" fill-rule="evenodd" clip-rule="evenodd" d="M17.8644 9.59799C17.8644 8.02002 16.5852 6.74084 15.0073 6.74084C13.4293 6.74084 12.1501 8.02002 12.1501 9.59799V12.4551H9.29299C7.71503 12.4551 6.43585 13.7343 6.43585 15.3123C6.43585 16.8902 7.71503 18.1694 9.29299 18.1694H12.1501V21.0266C12.1501 22.6045 13.4293 23.8837 15.0073 23.8837C16.5852 23.8837 17.8644 22.6045 17.8644 21.0266V18.1694H20.7216C22.2995 18.1694 23.5787 16.8902 23.5787 15.3123C23.5787 13.7343 22.2995 12.4551 20.7216 12.4551H17.8644V9.59799ZM44.1161 41.2901C42.5381 41.2901 41.2589 42.5693 41.2589 44.1473C41.2589 45.7253 42.5381 47.0044 44.1161 47.0044H53.259C54.837 47.0044 56.1161 45.7253 56.1161 44.1473C56.1161 42.5693 54.837 41.2901 53.259 41.2901H44.1161ZM41.2589 53.2901C41.2589 51.712 42.5381 50.433 44.1161 50.433H53.259C54.837 50.433 56.1161 51.712 56.1161 53.2901C56.1161 54.8682 54.837 56.1472 53.259 56.1472H44.1161C42.5381 56.1472 41.2589 54.8682 41.2589 53.2901Z" fill="#FFA502"/>
<path id="Union_4" fill-rule="evenodd" clip-rule="evenodd" d="M41.2592 15.3125C41.2592 13.7345 42.5384 12.4553 44.1164 12.4553H53.2594C54.837 12.4553 56.1166 13.7345 56.1166 15.3125C56.1166 16.8904 54.837 18.1696 53.2594 18.1696H44.1164C42.5384 18.1696 41.2592 16.8904 41.2592 15.3125ZM8.1404 42.1265C9.25619 41.0107 11.0652 41.0107 12.181 42.1265L15.0065 44.9519L17.8318 42.1265C18.9476 41.0107 20.7567 41.0107 21.8725 42.1265C22.9883 43.2423 22.9883 45.0513 21.8725 46.1673L19.0471 48.9924L21.8725 51.818C22.9883 52.9339 22.9883 54.7428 21.8725 55.8587C20.7567 56.9741 18.9476 56.9741 17.8318 55.8587L15.0065 53.0331L12.181 55.8587C11.0652 56.9741 9.25619 56.9741 8.1404 55.8587C7.02465 54.7428 7.02465 52.9339 8.1404 51.818L10.9658 48.9924L8.1404 46.1673C7.02465 45.0513 7.02465 43.2423 8.1404 42.1265Z" fill="#002462"/>
</g>
</svg>
