<svg width="64" height="64" viewBox="0 0 64 64" fill="none" xmlns="http://www.w3.org/2000/svg">
<g id="share-link--share-transmit">
<path id="Vector 1175 (Stroke)" fill-rule="evenodd" clip-rule="evenodd" d="M56.6601 9.38422C57.7893 11.6424 56.8741 14.3883 54.6158 15.5174L21.6506 32.0001L54.6158 48.4828C56.8741 49.6119 57.7893 52.3575 56.6601 54.6158C55.531 56.8741 52.7854 57.7893 50.5271 56.6601L9.38418 36.0889C7.83543 35.3145 6.85714 33.7316 6.85714 32.0001C6.85714 30.2685 7.83543 28.6856 9.38418 27.9113L50.5271 7.33983C52.7854 6.21073 55.531 7.12602 56.6601 9.38422Z" fill="#002462"/>
<path id="Ellipse 375" d="M51.4286 25.1429C58.3716 25.1429 64 19.5144 64 12.5714C64 5.62842 58.3716 0 51.4286 0C44.4856 0 38.8571 5.62842 38.8571 12.5714C38.8571 19.5144 44.4856 25.1429 51.4286 25.1429Z" fill="#FFA502"/>
<path id="Ellipse 376" d="M51.4286 64C58.3716 64 64 58.3716 64 51.4286C64 44.4856 58.3716 38.8572 51.4286 38.8572C44.4856 38.8572 38.8571 44.4856 38.8571 51.4286C38.8571 58.3716 44.4856 64 51.4286 64Z" fill="#FFA502"/>
<path id="Ellipse 377" d="M12.5714 44.5714C19.5144 44.5714 25.1429 38.943 25.1429 32C25.1429 25.057 19.5144 19.4286 12.5714 19.4286C5.62842 19.4286 0 25.057 0 32C0 38.943 5.62842 44.5714 12.5714 44.5714Z" fill="#FFA502"/>
</g>
</svg>
