<svg width="64" height="57" viewBox="0 0 64 57" fill="none" xmlns="http://www.w3.org/2000/svg">
<g id="computer-pc-desktop--screen-desktop-monitor-device-electronics-display-pc-computer">
<path id="Subtract" fill-rule="evenodd" clip-rule="evenodd" d="M32 6.51003C32 3.98532 34.0467 1.9386 36.5714 1.9386H59.4286C61.9534 1.9386 64 3.98532 64 6.51003V52.2242C64 54.749 61.9534 56.7957 59.4286 56.7957H36.5714C36.3779 56.7957 36.1871 56.7838 35.9999 56.7605C36.3695 55.7675 36.5714 54.6933 36.5714 53.5714C36.5714 53.1189 36.5385 52.6736 36.475 52.2384C42.3744 51.2025 46.8571 46.0532 46.8571 39.8571V21.5714C46.8571 14.6284 41.2287 8.99999 34.2857 8.99999H32V6.51003Z" fill="#002462"/>
<path id="Subtract_2" fill-rule="evenodd" clip-rule="evenodd" d="M59.4286 0.367188C61.9534 0.367188 64 2.41391 64 4.93862V26.0815H46.8571V21.5714C46.8571 14.6284 41.2287 9.00001 34.2857 9.00001H32V4.93862C32 2.41391 34.0467 0.367188 36.5714 0.367188H59.4286Z" fill="#002462"/>
<path id="Ellipse 1042" d="M54.4274 13.8685C56.3614 13.8685 57.9291 12.3008 57.9291 10.3668C57.9291 8.43288 56.3614 6.86511 54.4274 6.86511C52.4935 6.86511 50.9257 8.43288 50.9257 10.3668C50.9257 12.3008 52.4935 13.8685 54.4274 13.8685Z" fill="#FFA502"/>
<path id="Subtract_3" fill-rule="evenodd" clip-rule="evenodd" d="M17.1428 46.7144H24V50.1429H27.4286C29.3221 50.1429 30.8571 51.678 30.8571 53.5715C30.8571 55.465 29.3221 57.0001 27.4286 57.0001H20.5714H13.7143C11.8207 57.0001 10.2857 55.465 10.2857 53.5715C10.2857 51.678 11.8207 50.1429 13.7143 50.1429H17.1428V46.7144Z" fill="#FFA502"/>
<path id="Union" fill-rule="evenodd" clip-rule="evenodd" d="M6.85714 14.7144C3.07005 14.7144 0 17.7844 0 21.5715V39.8572C0 43.6442 3.07005 46.7144 6.85714 46.7144H34.2857C38.0728 46.7144 41.1429 43.6442 41.1429 39.8572V21.5715C41.1429 17.7844 38.0728 14.7144 34.2857 14.7144H6.85714Z" fill="#002462"/>
</g>
</svg>
