<svg width="40" height="40" viewBox="0 0 40 40" fill="none" xmlns="http://www.w3.org/2000/svg">
<g clip-path="url(#clip0_4_1616)">
<path d="M39.7289 13.5361C39.1443 12.4473 37.8039 12.0459 36.7342 12.641L34.7012 13.7717C34.7012 13.7717 34.6995 13.7664 34.6978 13.7647C34.6549 13.7926 34.6121 13.8205 34.5675 13.8467L23.9329 19.7585C22.8632 20.3536 21.5227 19.9522 20.9382 18.8634C20.3537 17.7746 20.7479 16.41 21.8176 15.815L26.6584 13.1243C26.6927 13.1051 26.7287 13.0894 26.7647 13.072C26.7647 13.072 26.7629 13.0685 26.7612 13.0667L28.0023 12.3775C29.0719 11.7825 29.4662 10.4179 28.8816 9.32908C28.2971 8.24024 26.9566 7.83891 25.887 8.43393L14.8135 14.59C13.7439 15.1851 12.4034 14.7837 11.8189 13.6949C11.2343 12.6061 11.6286 11.2415 12.6982 10.6465L24.7042 3.96865C20.3948 2.42613 15.4837 2.67914 11.1589 5.08366C3.71601 9.21915 0.601376 18.2841 3.58402 26.1223L1.14819 27.4764C0.0785561 28.0714 -0.315701 29.4359 0.268828 30.5248C0.853358 31.6136 2.19383 32.0149 3.26347 31.4199L5.70444 30.0641L11.2086 27.0035C12.2783 26.4085 13.6187 26.8098 14.2033 27.8986C14.7878 28.9875 14.3935 30.352 13.3239 30.947L8.89621 33.4091C13.9856 37.4417 21.1422 38.2653 27.1641 34.9168C33.2373 31.5403 36.4291 24.8851 35.7777 18.291L38.8478 16.5845C39.9174 15.9895 40.3117 14.6249 39.7272 13.5361H39.7289ZM16.8894 28.2668C15.7203 27.9178 15.0501 26.6685 15.3929 25.4784C15.7357 24.2884 16.9631 23.6061 18.1321 23.9551C19.3012 24.3041 19.9714 25.5535 19.6286 26.7435C19.2858 27.9335 18.0584 28.6158 16.8894 28.2668Z" fill="url(#paint0_linear_4_1616)"/>
<path d="M32.1508 9.73369C33.3702 9.73369 34.3587 8.72747 34.3587 7.48622C34.3587 6.24498 33.3702 5.23875 32.1508 5.23875C30.9315 5.23875 29.943 6.24498 29.943 7.48622C29.943 8.72747 30.9315 9.73369 32.1508 9.73369Z" fill="url(#paint1_linear_4_1616)"/>
</g>
<defs>
<linearGradient id="paint0_linear_4_1616" x1="3.14226" y1="15.2124" x2="37.0971" y2="25.0043" gradientUnits="userSpaceOnUse">
<stop stop-color="#FFA502"/>
<stop offset="1" stop-color="#FF8430"/>
</linearGradient>
<linearGradient id="paint1_linear_4_1616" x1="30.035" y1="6.85399" x2="34.2821" y2="8.07875" gradientUnits="userSpaceOnUse">
<stop stop-color="#FFA502"/>
<stop offset="1" stop-color="#FF8430"/>
</linearGradient>
<clipPath id="clip0_4_1616">
<rect width="40" height="34" fill="white" transform="translate(0 3)"/>
</clipPath>
</defs>
</svg>
