<svg xmlns="http://www.w3.org/2000/svg" width="44" height="44" fill="none" viewBox="0 0 44 44">
  <g clip-path="url(#a)">
    <path fill="url(#b)" d="M22 42c11.046 0 20-8.953 20-20S33.046 2 22 2 2 10.954 2 22s8.954 20 20 20Z"/>
    <path fill="#fff" fill-rule="evenodd" d="M33.526 18.054c.252.19.495.4.722.628h.002a6.896 6.896 0 0 1 1.988 4.819c0 1.75-.65 3.396-1.834 4.66l-.004.014-.152.152a6.774 6.774 0 0 1-4.828 2.004h-5.19v.002h-2.097v-.002h-5.486a8.61 8.61 0 0 1-6.109-2.538A8.609 8.609 0 0 1 8 21.666a8.61 8.61 0 0 1 2.538-6.128A8.608 8.608 0 0 1 16.658 13a8.693 8.693 0 0 1 6.191 2.54l1.34 1.308c-.005 0-1.108 1.1-1.108 1.1l-1.338-1.306a7.043 7.043 0 0 0-2.469-1.604 7.15 7.15 0 0 0-2.576-.477h-.024l-.23.004c-3.816.117-6.883 3.184-6.883 7.1 0 3.917 3.186 7.105 7.104 7.105h7.112v-.003h5.642a5.22 5.22 0 0 0 3.572-1.4l.153-.154a5.215 5.215 0 0 0 1.53-3.713 5.215 5.215 0 0 0-2.324-4.365 5.23 5.23 0 0 0-2.92-.88 5.215 5.215 0 0 0-3.713 1.532l-3.844 3.843h-2.21l.512-.513 4.436-4.435a6.767 6.767 0 0 1 4.819-1.989c1.5 0 2.925.478 4.096 1.361Zm-16.659.065a3.788 3.788 0 0 0-3.783 3.784 3.79 3.79 0 0 0 2.802 3.654l-1.28 1.28a5.436 5.436 0 0 1-3.167-4.934 5.435 5.435 0 0 1 5.428-5.429c2.188 0 4.076 1.3 4.935 3.167l-1.28 1.28a3.79 3.79 0 0 0-3.655-2.802Z" clip-rule="evenodd"/>
    <path fill="url(#c)" fill-rule="evenodd" d="M22 42c11.046 0 20-8.953 20-20S33.046 2 22 2 2 10.954 2 22s8.954 20 20 20Zm22-20c0 12.152-9.85 22-22 22S0 34.15 0 22 9.85 0 22 0s22 9.848 22 22Z" clip-rule="evenodd"/>
    <path fill="url(#d)" fill-rule="evenodd" d="M22 42c11.046 0 20-8.953 20-20S33.046 2 22 2 2 10.954 2 22s8.954 20 20 20Zm22-20c0 12.152-9.85 22-22 22S0 34.15 0 22 9.85 0 22 0s22 9.848 22 22Z" clip-rule="evenodd"/>
  </g>
  <defs>
    <linearGradient id="b" x1="11.177" x2="32.217" y1="5.982" y2="38.499" gradientUnits="userSpaceOnUse">
      <stop stop-color="#FFA502"/>
      <stop offset="1" stop-color="#FF705B"/>
    </linearGradient>
    <linearGradient id="c" x1="22" x2="22" y1="0" y2="44" gradientUnits="userSpaceOnUse">
      <stop stop-color="#FFA502"/>
      <stop offset="1" stop-color="#FF705B"/>
    </linearGradient>
    <linearGradient id="d" x1="22" x2="22" y1="0" y2="44" gradientUnits="userSpaceOnUse">
      <stop stop-color="#FFA502"/>
      <stop offset="1" stop-color="#FF705B"/>
    </linearGradient>
    <clipPath id="a">
      <path fill="#fff" d="M0 0h44v44H0z"/>
    </clipPath>
  </defs>
</svg>
